v -0.53340 -0.20320 0.00000
v 0.53340 -0.20320 0.00000
v 0.53340 0.20320 0.00000
v -0.53340 0.20320 0.00000
v -0.53340 -0.20320 0.13970
v 0.53340 -0.20320 0.13970
v 0.53340 0.20320 0.13970
v -0.53340 0.20320 0.13970
v 0.99060 0.00000 0.00000
v 1.07109 0.00000 0.13970
vn 0.00000 0.00000 -1.00000
vn -0.00000 -0.00000 1.00000
vn 0.00000 0.00000 -1.00000
vn -0.00000 -0.00000 1.00000
vn 0.00000 -1.00000 0.00000
vn -0.00000 1.00000 -0.00000
vn 0.00000 1.00000 0.00000
vn -0.00000 -1.00000 -0.00000
vn -1.00000 0.00000 0.00000
vn 1.00000 -0.00000 -0.00000
vn 0.39546 -0.88978 -0.22784
vn -0.39546 0.88978 0.22784
vn 0.40614 0.91381 0.00000
vn -0.40614 -0.91381 -0.00000
f 4//1 3//1 2//1 1//1
f 1//2 2//2 3//2 4//2
f 2//3 3//3 9//3
f 9//4 3//4 2//4
f 1//5 2//5 6//5 5//5
f 5//6 6//6 2//6 1//6
f 3//7 4//7 8//7 7//7
f 7//8 8//8 4//8 3//8
f 4//9 1//9 5//9 8//9
f 8//10 5//10 1//10 4//10
f 2//11 9//11 10//11 6//11
f 6//12 10//12 9//12 2//12
f 9//13 3//13 7//13 10//13
f 10//14 7//14 3//14 9//14
