v 0.2927 0.4251 0.0000
v 0.3524 -0.1118 1.4932
v -0.5749 -0.6504 0.8621
v -0.5150 -0.5974 0.9962
v 0.1758 -0.7136 0.3168
v -0.5560 0.1866 1.1505
v 1.0000 0.1774 0.1519
v -0.6812 -0.4447 0.7844
v 0.3650 0.0319 1.4264
v 0.8191 -0.0109 1.2317
v 0.8234 -0.1492 1.0310
v -0.2238 0.7091 0.6602
v -0.0778 0.7250 0.5636
v 0.6108 0.1984 0.0000
v 0.7029 -0.7250 0.7351
v -1.0000 -0.0064 0.4103
v 0.2195 -0.2677 0.0000
v -0.4755 0.2664 1.2172
v 0.2423 0.4537 1.2103
vn 0.9625 -0.2525 0.0995
vn -0.6986 0.6795 0.2243
vn 0.4985 -0.5803 -0.6440
vn 0.4492 -0.5463 -0.7069
vn -0.0542 -0.9977 0.0411
vn -0.3704 -0.5136 -0.7739
vn -0.4609 -0.6931 -0.5542
vn -0.3123 0.0330 -0.9494
vn 0.0582 -0.7629 0.6439
vn -0.0169 -0.9272 0.3741
vn -0.3945 -0.2108 0.8944
vn -0.2059 0.8093 0.5501
vn 0.3357 -0.2817 -0.8989
vn 0.3414 0.4789 -0.8088
vn -0.0000 0.0000 -1.0000
vn -0.8710 -0.3046 0.3854
vn -0.8414 -0.2548 0.4766
vn -0.7891 0.5118 0.3398
vn -0.5063 -0.1919 0.8408
vn -0.8310 -0.1464 0.5367
vn -0.8274 -0.1498 0.5413
vn 0.4957 -0.5488 0.6731
vn 0.9199 -0.3135 0.2355
vn 0.9770 -0.1656 0.1347
vn 0.6046 0.7614 0.2341
vn 0.4862 0.8652 0.1222
vn 0.1188 0.9353 0.3334
vn 0.3661 0.8996 -0.2379
vn -0.4511 0.6879 -0.5685
vn -0.4184 0.6586 -0.6255
vn 0.3963 0.3578 0.8455
vn 0.3797 0.5070 0.7738
vn -0.1047 0.4264 0.8985
vn -0.1035 0.4296 0.8971
f 11//1 15//1 7//1
f 18//2 12//2 16//2
f 5//3 7//3 15//3
f 5//4 17//4 7//4
f 5//5 15//5 3//5
f 5//6 16//6 17//6
f 5//7 3//7 16//7
f 1//8 17//8 16//8
f 4//9 15//9 2//9
f 4//10 3//10 15//10
f 4//11 2//11 18//11
f 19//12 12//12 18//12
f 14//13 7//13 17//13
f 14//14 1//14 7//14
f 14//15 17//15 1//15
f 8//16 16//16 3//16
f 8//17 3//17 4//17
f 6//18 18//18 16//18
f 6//19 4//19 18//19
f 6//20 16//20 8//20
f 6//21 8//21 4//21
f 10//22 2//22 15//22
f 10//23 15//23 11//23
f 10//24 11//24 7//24
f 10//25 7//25 19//25
f 13//26 19//26 7//26
f 13//27 12//27 19//27
f 13//28 7//28 1//28
f 13//29 16//29 12//29
f 13//30 1//30 16//30
f 9//31 2//31 10//31
f 9//32 10//32 19//32
f 9//33 18//33 2//33
f 9//34 19//34 18//34
