v -0.5752 -0.1473 0.0000
v 0.0958 -0.0199 0.0000
v -0.3744 -0.6455 0.7263
v -0.7339 0.2915 0.0754
v -0.5448 0.1868 0.9093
v 0.9400 0.1281 0.1155
v 0.6233 -0.5533 0.1737
v 0.3152 0.0378 1.2133
v 1.0000 -0.0146 0.5552
v 0.7772 0.4882 0.0104
v 0.2379 0.6455 0.0000
v 0.9094 0.2589 0.5167
v -0.9703 0.0571 0.0219
v 0.3243 0.5105 0.9751
v -0.3112 -0.0488 1.0840
v -1.0000 -0.1051 0.1630
v 0.4044 -0.2337 0.9074
v -0.0863 0.3364 1.1634
v 0.7437 0.4316 0.8742
v -0.3117 -0.4545 0.0000
vn -0.4854 -0.8343 -0.2613
vn -0.0539 -0.9646 -0.2583
vn 0.1618 -0.1761 -0.9710
vn 0.2114 -0.6998 0.6824
vn 0.3300 -0.8254 0.4580
vn 0.5678 -0.5266 0.6327
vn 0.5349 -0.7044 0.4665
vn -0.3273 0.9319 0.1564
vn -0.1077 -0.5027 0.8577
vn -0.1894 -0.0912 0.9777
vn 0.8680 -0.4253 -0.2565
vn 0.2159 -0.1823 -0.9592
vn -0.3233 0.9330 0.1578
vn 0.2158 0.4361 0.8736
vn 0.0181 -0.0039 -0.9998
vn 0.0505 -0.0473 -0.9976
vn -0.4038 0.8919 0.2035
vn -0.5115 0.1231 0.8504
vn -0.7653 -0.2837 0.5777
vn -0.7415 -0.2853 0.6073
vn -0.2229 0.4249 -0.8774
vn -0.4437 -0.5406 -0.7148
vn -0.8319 0.4431 0.3340
vn -0.7102 0.6604 0.2439
vn 0.6828 -0.1228 0.7202
vn 0.2866 0.4268 0.8577
vn 0.2779 0.9578 0.0735
vn 0.2105 0.9707 0.1157
vn -0.0362 0.0371 -0.9987
vn -0.0989 -0.0848 -0.9915
vn 0.9059 0.3363 0.2573
vn 0.7888 0.6106 0.0706
vn 0.9501 0.3107 -0.0288
vn 0.9160 0.3968 -0.0595
vn -0.0000 0.0000 -1.0000
vn -0.0000 0.0000 -1.0000
f 20//1 3//1 16//1
f 20//2 7//2 3//2
f 10//3 7//3 20//3
f 17//4 8//4 3//4
f 17//5 3//5 7//5
f 17//6 9//6 8//6
f 17//7 7//7 9//7
f 4//8 18//8 11//8
f 15//9 3//9 8//9
f 15//10 8//10 18//10
f 6//11 9//11 7//11
f 6//12 7//12 10//12
f 14//13 11//13 18//13
f 14//14 18//14 8//14
f 2//15 11//15 10//15
f 2//16 10//16 20//16
f 5//17 18//17 4//17
f 5//18 15//18 18//18
f 5//19 16//19 3//19
f 5//20 3//20 15//20
f 13//21 4//21 11//21
f 13//22 20//22 16//22
f 13//23 16//23 5//23
f 13//24 5//24 4//24
f 19//25 8//25 9//25
f 19//26 14//26 8//26
f 19//27 10//27 11//27
f 19//28 11//28 14//28
f 1//29 13//29 11//29
f 1//30 20//30 13//30
f 12//31 19//31 9//31
f 12//32 10//32 19//32
f 12//33 9//33 6//33
f 12//34 6//34 10//34
f 1//35 2//35 20//35
f 1//36 11//36 2//36
