v 0.6196 -0.3769 0.0485
v 0.8913 0.6528 0.5249
v -0.2375 0.3321 0.0000
v -0.9351 -0.1226 1.0625
v -0.4777 -0.0885 1.8028
v 0.7928 -0.1601 1.3269
v -0.9357 0.2024 0.0000
v 0.7229 0.4972 1.3613
v -1.0000 0.6602 0.0350
v -0.6136 0.5650 1.7243
v 0.1170 -0.3766 0.0000
v 1.0000 0.4563 1.2092
v 0.6979 -0.1205 1.6202
v -0.7093 0.8383 0.1658
v -0.1469 -0.5402 1.5039
v 0.8795 -0.2170 0.0000
v -0.6169 -0.2931 0.0000
v 0.1710 -0.8383 0.8039
v -0.6947 -0.0832 1.4806
vn -0.9476 0.2223 0.2293
vn 0.1557 0.1496 0.9764
vn 0.9881 0.0693 -0.1371
vn -0.5479 -0.8360 -0.0300
vn -0.5182 -0.8461 0.1250
vn -0.5936 -0.6988 0.3990
vn 0.3316 -0.8043 0.4931
vn 0.1214 -0.4844 0.8664
vn -0.8256 -0.1051 0.5544
vn -0.6694 -0.5978 0.4411
vn -0.8608 -0.0812 0.5025
vn 0.7050 -0.7051 0.0763
vn 0.5829 -0.7587 0.2909
vn 0.9494 -0.3048 0.0751
vn 0.9125 -0.2441 0.3283
vn 0.4917 0.3196 0.8100
vn 0.2613 0.3641 0.8939
vn 0.2632 0.9376 0.2274
vn 0.1043 0.9738 0.2022
vn 0.2450 0.4985 -0.8315
vn -0.5705 0.8023 0.1757
vn 0.0763 0.9829 0.1677
vn 0.1418 0.4250 -0.8940
vn 0.2444 0.4999 -0.8309
vn -0.0986 -0.8658 -0.4906
vn -0.9899 -0.1359 -0.0410
vn -0.8297 -0.5339 -0.1628
vn -0.0138 0.0744 -0.9971
vn 0.0872 -0.4164 -0.9050
vn 0.4775 -0.8470 -0.2338
vn 0.0479 -0.8648 -0.4998
vn 0.0000 -0.0000 -1.0000
vn 0.0000 -0.0000 -1.0000
vn 0.0000 -0.0000 -1.0000
f 4//1 10//1 9//1
f 13//2 10//2 5//2
f 2//3 12//3 16//3
f 17//4 18//4 4//4
f 15//5 4//5 18//5
f 15//6 5//6 4//6
f 15//7 18//7 13//7
f 15//8 13//8 5//8
f 19//9 5//9 10//9
f 19//10 4//10 5//10
f 19//11 10//11 4//11
f 6//12 18//12 16//12
f 6//13 13//13 18//13
f 6//14 16//14 12//14
f 6//15 12//15 13//15
f 8//16 13//16 12//16
f 8//17 10//17 13//17
f 8//18 12//18 2//18
f 8//19 2//19 10//19
f 3//20 2//20 16//20
f 14//21 9//21 10//21
f 14//22 10//22 2//22
f 14//23 3//23 9//23
f 14//24 2//24 3//24
f 11//25 18//25 17//25
f 7//26 4//26 9//26
f 7//27 17//27 4//27
f 7//28 9//28 3//28
f 1//29 11//29 16//29
f 1//30 16//30 18//30
f 1//31 18//31 11//31
f 7//32 16//32 11//32
f 7//33 3//33 16//33
f 7//34 11//34 17//34
