<?xml version='1.0' encoding='utf-8'?>
<COLLADA xmlns="http://www.collada.org/2005/11/COLLADASchema" version="1.4.1">
  <asset>
    <unit name="meter" meter="1" />
    <up_axis>Z_UP</up_axis>
  </asset>
  <library_effects>
    <effect id="DockCubes-effect">
      <profile_COMMON>
        <technique sid="common">
          <lambert>
            <diffuse>
              <color sid="diffuse">0.8 0.8 0.8 1</color>
            </diffuse>
            </lambert>
        </technique>
      </profile_COMMON>
    </effect>
  </library_effects>
  <library_materials>
    <material id="DockCubes-material" name="DockCubes">
      <instance_effect url="#DockCubes-effect" />
    </material>
  </library_materials>
  <library_geometries>
    <geometry id="Cube_021-mesh" name="Cube.021">
      <mesh>
        <source id="Cube_021-mesh-positions">
          <float_array id="Cube_021-mesh-positions-array" count="1449">-0.2189822 0.2189822 -0.263346 -0.249756 0.2062353 -0.263346 -0.2272511 0.2404342 -0.263346 -0.2325314 0.2325315 -0.263346 -0.2253969 0.249756 -0.2524657 -0.2189822 0.2189822 -0.2524657 -0.249756 0.2062353 -0.2524657 -0.2331014 0.2095481 -0.2524657 -0.2253969 0.249756 -0.263346 -0.249756 0.2253969 -0.263346 -0.2404342 0.2272511 -0.263346 -0.2095479 0.2331014 -0.263346 -0.2062352 0.249756 -0.263346 -0.2331014 0.2095481 -0.263346 -0.2272511 0.2404342 -0.2524657 -0.2325314 0.2325315 -0.2524657 -0.249756 0.2253969 -0.2524657 -0.2404342 0.2272511 -0.2524657 -0.2095479 0.2331014 -0.2524657 -0.2062352 0.249756 -0.2524657 0.1506338 0.287818 -0.263346 0.250244 0.2062353 -0.263346 0.2314503 0.2335799 -0.263346 0.250244 0.2062353 -0.2524657 -0.1506341 0.2878185 -0.2746819 -0.250244 0.2253969 -0.2746819 -0.2409222 0.227251 -0.2746819 -0.2314503 0.2335799 -0.2746819 -0.250244 0.2253969 -0.2638016 -0.2314503 0.2335799 -0.2638016 -0.250244 0.2062353 -0.2638016 -0.2335892 0.2095479 -0.2638016 -0.2194702 0.2189822 -0.2638016 -0.1506341 0.2878185 -0.2638016 0.240922 0.2272512 -0.263346 0.250244 0.2253969 -0.263346 0.2194702 0.2189822 -0.263346 0.2335894 0.209548 -0.263346 0.2314503 0.2335799 -0.2524657 0.240922 0.2272512 -0.2524657 0.250244 0.2253969 -0.2524657 0.2194702 0.2189822 -0.2524657 0.1506338 0.287818 -0.2524657 0.2335894 0.209548 -0.2524657 -0.250244 0.2062353 -0.2746819 -0.2335892 0.2095479 -0.2746819 -0.2194702 0.2189822 -0.2746819 -0.2409222 0.227251 -0.2638016 0.2189822 0.2189822 -0.2746819 0.2331014 0.209548 -0.2746819 0.2095481 0.2331013 -0.2746819 0.2325314 0.2325314 -0.2746819 0.2497559 0.2253969 -0.2746819 0.2253969 0.2497559 -0.2746819 0.2404342 0.2272511 -0.2638016 0.2325314 0.2325314 -0.2638016 0.2497559 0.2253969 -0.2638016 0.2253969 0.2497559 -0.2638016 0.2272512 0.2404341 -0.2638016 0.2331014 0.209548 -0.2638016 0.2497559 0.2062353 -0.2638016 0.2404342 0.2272511 -0.2746819 0.2272512 0.2404341 -0.2746819 0.2497559 0.2062353 -0.2746819 0.2062352 0.2497559 -0.2746819 0.2189822 0.2189822 -0.2638016 0.2062352 0.2497559 -0.2638016 0.2095481 0.2331013 -0.2638016 -0.1671544 -0.252857 -0.07889193 -0.1223891 -0.2510501 -0.04851573 0.122389 -0.2510501 -0.04851573 0.250244 -0.2062353 -0.2517949 0.2194702 -0.2189822 -0.2517949 0.250244 -0.2253969 -0.2517949 0.240922 -0.2272511 -0.2517949 0.250244 -0.2253969 -0.2409148 0.240922 -0.2272511 -0.2409148 0.250244 -0.2062353 -0.2409148 0.2194702 -0.2189822 -0.2409148 0.1605644 -0.2507426 -0.07572734 0.2314503 -0.23358 -0.2517949 0.2335892 -0.209548 -0.2517949 0.1506341 -0.2878186 -0.2517949 0.2314503 -0.23358 -0.2409148 0.2335892 -0.209548 -0.2409148 0.1506341 -0.2878186 -0.2409148 -0.2528571 -0.1671543 -0.4067022 -0.2507425 0.1605646 -0.4067022 -0.2507425 0.1605646 -0.07572734 -0.2510502 0.1223891 -0.04851573 -0.2189822 0.2194703 -0.2517949 -0.2095479 0.2335894 -0.2517949 -0.2062352 0.250244 -0.2517949 -0.2335799 0.2314504 -0.2517949 -0.2253969 0.2502441 -0.2517949 -0.2335799 0.2314504 -0.2409148 -0.2272512 0.2409222 -0.2409148 -0.2253969 0.2502441 -0.2409148 -0.2095479 0.2335894 -0.2409148 -0.2062352 0.250244 -0.2409148 -0.2507425 -0.1605644 -0.07572734 -0.2272512 0.2409222 -0.2517949 -0.2878181 0.1506339 -0.2517949 -0.2189822 0.2194703 -0.2409148 -0.2878181 0.1506339 -0.2409148 -0.2402455 0.1780924 -0.4067022 -0.2492575 0.1605646 -0.4067022 -0.1605644 0.2492575 -0.4067022 0.25 -0.1545428 -0.4067022 0.1605644 -0.2492575 -0.4067022 0.1545429 0.2500001 -0.4067022 0.25 0.1545429 -0.4067022 -0.2492575 -0.1605644 -0.07572734 -0.2439784 -0.1733093 -0.0810064 -0.2489498 -0.1223891 -0.04851573 -0.1780923 -0.2402454 -0.0817489 -0.1733093 -0.2439783 -0.0810064 -0.1671544 -0.2471429 -0.07889193 -0.1605644 -0.2492575 -0.07572734 -0.1671544 0.247143 -0.07889193 -0.1733093 0.2439785 -0.0810064 -0.1288048 0.2500001 -0.05379486 -0.1190503 0.2459596 -0.04404044 -0.1223891 0.24895 -0.04851573 -0.2414841 0.1192967 -0.04105001 -0.2402455 0.1780924 -0.0817489 -0.2439784 0.1733094 -0.0810064 -0.247143 0.1671544 -0.07889193 0.1605644 -0.2492575 -0.07572734 0.1733093 -0.2439783 -0.0810064 0.1192967 -0.2414841 -0.04105001 0.1190503 -0.2459595 -0.04404044 0.2402455 -0.1780923 -0.0817489 0.25 -0.1545428 -0.07199442 0.2471429 -0.1671543 -0.07889193 0.25 0.1545429 -0.07199442 0.2402455 0.1780924 -0.0817489 0.2492575 0.1605646 -0.07572734 0.2471429 0.1671544 -0.07889193 0.25 0.1288048 -0.05379486 0.2414841 0.1192967 -0.04105001 0.2489498 0.1223891 -0.04851573 0.1288048 0.2500001 -0.05379486 0.122389 0.24895 -0.04851573 0.1192967 0.2414842 -0.04105001 0.1780923 0.2402455 -0.0817489 0.1545429 0.2500001 -0.07199442 0.1733093 0.2439785 -0.0810064 0.2362049 0.1230908 -0.0399999 -0.1230908 0.2362051 -0.0399999 0.1230906 0.2362051 -0.0399999 0.1230906 -0.236205 -0.0399999 -0.1324633 -0.0801194 -0.01159662 -0.0638718 -0.0517079 -0.000935346 -0.05170798 -0.0638718 -0.000935346 -0.08011949 -0.1324633 -0.01159662 -0.08011949 0.1324634 -0.01159662 -0.05170798 0.0638719 -0.000935346 -0.0638718 0.051708 -0.000935346 -0.1324633 0.0801195 -0.01159662 0.08011949 -0.1324633 -0.01159662 0.05170792 -0.0638718 -0.000935346 0.0638718 -0.0517079 -0.000935346 0.1324633 -0.0801195 -0.01159662 0.1324633 0.0801195 -0.01159662 0.0638718 0.051708 -0.000935346 0.05170792 0.0638719 -0.000935346 0.08011949 0.1324634 -0.01159662 -0.2121815 0.1506342 -0.2631949 -0.1988925 0.1639232 -0.2631949 -0.26642 0.2314504 -0.2523148 -0.2314503 0.2664201 -0.2523148 -0.1639227 0.1988929 -0.2523148 -0.2121815 0.1506342 -0.2523148 0.2194702 0.2810178 -0.2517949 0.26642 0.2314504 -0.2517949 0.163923 0.1988926 -0.2517949 0.26642 0.2314504 -0.2409148 0.1506338 -0.2121819 -0.263346 0.2121815 -0.1506341 -0.263346 0.26642 -0.2314503 -0.263346 0.2314503 -0.26642 -0.263346 0.2121815 -0.1506341 -0.2524657 -0.1639227 0.1988929 -0.2631949 0.1988928 0.1639227 -0.2517949 0.1988928 0.1639227 -0.2409148 0.1639227 -0.1988928 -0.2524657 0.1988925 -0.163923 -0.2524657 -0.2133615 0.2483317 -0.2631949 -0.2483313 0.2133618 -0.2523148 0.2483313 -0.2133618 -0.263346 0.2133613 -0.2483316 -0.263346 0.2483313 -0.2133618 -0.2524657 0.2483317 0.2133614 -0.2409148 0.2133619 0.2483313 -0.2409148 -0.247143 -0.1671543 -0.07889193 -0.2402455 -0.1780923 -0.0817489 -0.2414841 -0.1192967 -0.04105001 -0.2362051 -0.1230908 -0.0399999 -0.2362051 0.1230908 -0.0399999 -0.2459595 -0.1190503 -0.04404044 -0.2459595 0.1190504 -0.04404044 -0.2489498 0.1223892 -0.04851573 -0.2492575 0.1605646 -0.07572734 0.2489498 -0.1223891 -0.04851573 0.25 -0.1288047 -0.05379486 0.2459595 -0.1190503 -0.04404044 0.2459595 0.1190504 -0.04404044 0.2414841 -0.1192967 -0.04105001 0.2362049 -0.1230908 -0.0399999 0.1190503 0.2459596 -0.04404044 -0.1192967 0.2414842 -0.04105001 -0.1223891 -0.2489498 -0.04851573 0.122389 -0.2489498 -0.04851573 -0.1190503 -0.2459595 -0.04404044 -0.1192967 -0.2414841 -0.04105001 -0.1230908 -0.236205 -0.0399999 0.1780923 -0.2402454 -0.0817489 0.1671544 -0.2471429 -0.4067022 0.1671544 -0.2471429 -0.07889193 -0.1605644 0.2492575 -0.07572734 -0.1545429 0.2500001 -0.07199442 -0.1671544 0.247143 -0.4067022 -0.1733093 0.2439785 -0.4067022 -0.1780923 0.2402455 -0.0817489 0.1671544 0.247143 -0.07889193 0.1671544 0.247143 -0.4067022 0.1605644 0.2492575 -0.07572734 0.2492575 -0.1605644 -0.07572734 0.2439783 -0.1733093 -0.0810064 0.2439783 0.1733094 -0.0810064 -0.26642 0.2314504 -0.2631949 -0.2314503 0.2664201 -0.2631949 -0.2810178 0.2194703 -0.2631949 -0.1506339 0.212182 -0.2631949 -0.1988925 0.1639232 -0.2523148 -0.2194702 0.2810178 -0.2523148 -0.1506339 0.212182 -0.2523148 0.2314503 0.2664201 -0.2517949 0.2121819 0.1506339 -0.2517949 0.1506341 0.2121815 -0.2517949 0.2314503 0.2664201 -0.2409148 0.163923 0.1988926 -0.2409148 0.2810178 0.2194703 -0.2409148 0.2121819 0.1506339 -0.2409148 0.1506341 0.2121815 -0.2409148 0.1639227 -0.1988928 -0.263346 0.1988925 -0.163923 -0.263346 0.2810178 -0.2194702 -0.263346 0.26642 -0.2314503 -0.2524657 0.2314503 -0.26642 -0.2524657 0.2194702 -0.2810177 -0.2524657 0.1506338 -0.2121819 -0.2524657 -0.2483313 0.2133618 -0.2631949 -0.2133615 0.2483317 -0.2523148 0.2133613 -0.2483316 -0.2524657 0.2483317 0.2133614 -0.2517949 0.2133619 0.2483313 -0.2517949 -0.1671544 -0.252857 -0.4067022 -0.1733093 -0.2439783 -0.4067022 -0.2402455 -0.1780923 -0.4067022 -0.2439784 -0.1733093 -0.4067022 -0.247143 0.1671544 -0.4067022 0.2402455 -0.1780923 -0.4067022 0.2492575 -0.1605644 -0.4067022 0.2471429 -0.1671543 -0.4067022 0.2439783 -0.1733093 -0.4067022 0.1733093 -0.2439783 -0.4067022 0.1780923 0.2402455 -0.4067022 0.1605644 0.2492575 -0.4067022 0.1733093 0.2439785 -0.4067022 0.2439783 0.1733094 -0.4067022 0.2492575 0.1605646 -0.4067022 -0.1671544 -0.2471429 -0.4067022 -0.1780923 -0.2402454 -0.4067022 -0.247143 -0.1671543 -0.4067022 -0.2439784 0.1733094 -0.4067022 0.1780923 -0.2402454 -0.4067022 -0.1545429 0.2500001 -0.4067022 -0.1780923 0.2402455 -0.4067022 0.2402455 0.1780924 -0.4067022 0.2471429 0.1671544 -0.4067022 -0.2044304 0.2182808 -0.2400806 -0.2550634 0.1945083 -0.2400806 -0.226562 0.199611 -0.2400806 -0.1945987 0.2455151 -0.2400806 -0.1997014 0.2740165 -0.2400806 -0.255292 0.2038699 -0.2155217 -0.212652 0.2227636 -0.2155217 -0.2314407 0.2076041 -0.2155217 -0.2550786 0.1945216 -0.2227248 -0.2044495 0.2182743 -0.2227248 -0.2265818 0.1996149 -0.2227248 -0.2039602 0.2452865 -0.2155217 -0.2076945 0.2691378 -0.2155217 -0.194612 0.2454999 -0.2227248 -0.2396011 0.2244106 -0.2836523 -0.2610119 0.2243875 -0.2836523 -0.224478 0.2395666 -0.2836523 -0.2705507 0.2166564 -0.2628147 -0.2301183 0.2166564 -0.2628147 -0.2167469 0.2300278 -0.2628147 -0.2167469 0.2704603 -0.2628147 -0.2167469 0.2300278 -0.2836523 -0.2167469 0.2704603 -0.2836523 -0.2705507 0.2166564 -0.2836523 -0.2301183 0.2166564 -0.2836523 -0.224478 0.2395666 -0.3017265 -0.2245011 0.2609773 -0.3017265 -0.2610119 0.2243875 -0.3017265 -0.2396011 0.2244106 -0.3017265 0.2095481 -0.2331013 -0.2631949 0.2325314 -0.2325314 -0.2631949 0.2253969 -0.249756 -0.2631949 0.2497559 -0.2253969 -0.2631949 0.2404342 -0.2272511 -0.2631949 0.2325314 -0.2325314 -0.2523148 0.2497559 -0.2253969 -0.2523148 0.2404342 -0.2272511 -0.2523148 0.2189822 -0.2189822 -0.2523148 0.2062352 -0.249756 -0.2523148 0.2497559 -0.2062353 -0.2523148 0.2272512 -0.2404341 -0.2631949 0.2189822 -0.2189822 -0.2631949 0.2062352 -0.249756 -0.2631949 0.2497559 -0.2062353 -0.2631949 0.2331014 -0.209548 -0.2631949 0.2272512 -0.2404341 -0.2523148 0.2253969 -0.249756 -0.2523148 0.2095481 -0.2331013 -0.2523148 0.2331014 -0.209548 -0.2523148 0.2095481 0.2335894 -0.2631949 0.2878185 0.1506342 -0.2631949 0.2253969 0.250244 -0.2631949 0.2272512 0.2409222 -0.2631949 0.2272512 0.2409222 -0.2523148 0.2335799 0.2314504 -0.2523148 0.2062352 0.250244 -0.2523148 0.2095481 0.2335894 -0.2523148 0.2189822 0.2194703 -0.2523148 0.2878185 0.1506342 -0.2523148 0.287818 -0.1506338 -0.2746819 0.2189822 -0.2194702 -0.2746819 0.2335799 -0.2314503 -0.2746819 0.2272512 -0.2409221 -0.2746819 0.2253969 -0.250244 -0.2746819 0.2335799 -0.2314503 -0.2638016 0.2272512 -0.2409221 -0.2638016 0.2253969 -0.250244 -0.2638016 0.287818 -0.1506338 -0.2638016 0.2335799 0.2314504 -0.2631949 0.2062352 0.250244 -0.2631949 0.2189822 0.2194703 -0.2631949 0.2253969 0.250244 -0.2523148 0.2095482 -0.2335893 -0.2746819 0.2062352 -0.250244 -0.2746819 0.2189822 -0.2194702 -0.2638016 0.2095482 -0.2335893 -0.2638016 0.2062352 -0.250244 -0.2638016 0.2455151 0.1945083 -0.2400806 0.2182809 0.2043399 -0.2400806 0.1945084 0.254973 -0.2400806 0.1996111 0.2264715 -0.2400806 0.2043399 0.2822072 -0.2400806 0.2452865 0.2038699 -0.2155217 0.2691378 0.2076041 -0.2155217 0.2454999 0.1945216 -0.2227248 0.2038698 0.2552015 -0.2155217 0.2227637 0.2125615 -0.2155217 0.2076041 0.2313502 -0.2155217 0.1945216 0.2549882 -0.2227248 0.2182742 0.204359 -0.2227248 0.199615 0.2264913 -0.2227248 0.2395666 0.2243875 -0.2836523 0.2244105 0.2395108 -0.2836523 0.2243875 0.2609215 -0.2836523 0.2300277 0.2166564 -0.2628147 0.2704603 0.2166564 -0.2628147 0.2166565 0.2300278 -0.2628147 0.2300277 0.2166564 -0.2836523 0.2704603 0.2166564 -0.2836523 0.2166565 0.2704603 -0.2836523 0.2166565 0.2300278 -0.2836523 0.2395666 0.2243875 -0.3017265 0.2609772 0.2244106 -0.3017265 0.2243875 0.2609215 -0.3017265 0.2244105 0.2395108 -0.3017265 -0.2095479 -0.2336428 -0.263346 -0.2878185 -0.1506877 -0.263346 -0.2335799 -0.2315039 -0.263346 -0.2253969 -0.2502975 -0.2524657 -0.2272511 -0.2409757 -0.2524657 -0.2095479 -0.2336428 -0.2524657 -0.2878185 -0.1506877 -0.2524657 -0.2253969 -0.2502975 -0.263346 -0.2272511 -0.2409757 -0.263346 -0.2062352 -0.2502975 -0.263346 -0.2189822 -0.2195237 -0.263346 -0.2335799 -0.2315039 -0.2524657 -0.2062352 -0.2502975 -0.2524657 -0.2189822 -0.2195237 -0.2524657 -0.212182 -0.1506875 -0.2746819 -0.1506341 -0.212235 -0.2746819 -0.2314503 -0.2664736 -0.2746819 -0.2664201 -0.231504 -0.2746819 -0.2314503 -0.2664736 -0.2638016 -0.2664201 -0.231504 -0.2638016 -0.1988928 -0.1639763 -0.2638016 -0.163923 -0.1989462 -0.2638016 -0.212182 -0.1506875 -0.2638016 -0.1506341 -0.212235 -0.2638016 -0.1988928 -0.1639763 -0.2746819 -0.163923 -0.1989462 -0.2746819 -0.2483317 -0.213415 -0.2746819 -0.2483317 -0.213415 -0.2638016 -0.2133619 -0.2483848 -0.2638016 -0.2194702 -0.2810714 -0.2746819 -0.2810178 -0.2195239 -0.2638016 -0.2133619 -0.2483848 -0.2746819 -0.249756 -0.2062888 -0.2517949 -0.2062352 -0.2498096 -0.2517949 -0.2404342 -0.2273046 -0.2517949 -0.2325314 -0.2325851 -0.2517949 -0.249756 -0.2254505 -0.2517949 -0.2253969 -0.2498095 -0.2517949 -0.2404342 -0.2273046 -0.2409148 -0.2325314 -0.2325851 -0.2409148 -0.249756 -0.2254505 -0.2409148 -0.2253969 -0.2498095 -0.2409148 -0.2272512 -0.2404877 -0.2409148 -0.2331014 -0.2096015 -0.2409148 -0.2189822 -0.2190358 -0.2409148 -0.249756 -0.2062888 -0.2409148 -0.2062352 -0.2498096 -0.2409148 -0.2095479 -0.2331549 -0.2409148 -0.2272512 -0.2404877 -0.2517949 -0.2331014 -0.2096015 -0.2517949 -0.2189822 -0.2190358 -0.2517949 -0.2095479 -0.2331549 -0.2517949 -0.2194702 -0.2190358 -0.2631949 -0.250244 -0.2254505 -0.2631949 -0.2314503 -0.2336335 -0.2523148 -0.2409222 -0.2273046 -0.2523148 -0.250244 -0.2254505 -0.2523148 -0.2335894 -0.2096015 -0.2523148 -0.250244 -0.2062888 -0.2523148 -0.2314503 -0.2336335 -0.2631949 -0.2409222 -0.2273046 -0.2631949 -0.1506339 -0.2878715 -0.2631949 -0.2335894 -0.2096015 -0.2631949 -0.250244 -0.2062888 -0.2631949 -0.2194702 -0.2190358 -0.2523148 -0.1506339 -0.2878715 -0.2523148 -0.2044304 -0.2817727 -0.2400806 -0.2183713 -0.2039054 -0.2400806 -0.1945987 -0.2545384 -0.2400806 -0.1997014 -0.226037 -0.2400806 -0.2962386 -0.2178463 -0.2400806 -0.2456055 -0.1940739 -0.2400806 -0.2314407 -0.2924494 -0.2155217 -0.2039602 -0.254767 -0.2155217 -0.2228541 -0.212127 -0.2155217 -0.2076945 -0.2309157 -0.2155217 -0.194612 -0.2545536 -0.2227248 -0.2183648 -0.2039246 -0.2227248 -0.1997054 -0.2260569 -0.2227248 -0.245377 -0.2034354 -0.2155217 -0.2692283 -0.2071696 -0.2155217 -0.2455903 -0.1940871 -0.2227248 0.2455151 -0.3055452 -0.2400806 0.1945084 -0.2450806 -0.2400806 0.2043399 -0.2178463 -0.2400806 0.2549729 -0.1940739 -0.2400806 0.2264716 -0.1991765 -0.2400806 0.2691378 -0.2924494 -0.2155217 0.2038698 -0.2448521 -0.2155217 0.1945216 -0.2450654 -0.2227248 0.2552015 -0.2034354 -0.2155217 0.2125616 -0.2223292 -0.2155217 0.2313503 -0.2071696 -0.2155217 0.2549881 -0.1940871 -0.2227248 0.2043591 -0.2178398 -0.2227248 0.2264913 -0.1991804 -0.2227248</float_array>
          <technique_common>
            <accessor source="#Cube_021-mesh-positions-array" count="483" stride="3">
              <param name="X" type="float" />
              <param name="Y" type="float" />
              <param name="Z" type="float" />
            </accessor>
          </technique_common>
        </source>
        <source id="Cube_021-mesh-normals">
          <float_array id="Cube_021-mesh-normals-array" count="1917">-1 0 0 0.7126849 0.7014845 0 0 0 1 2.60701e-06 0 -1 -7.29573e-07 0 -1 0 0 -1 -0.4429615 0.8965407 0 -0.6587802 0.7523356 -2.53568e-05 -0.3207229 0.9471731 3.22968e-05 0.06613248 -0.997811 0 2.1751e-06 0 -1 -0.06613379 -0.9978108 0 0.06618428 -0.9978075 0 0.6587941 -0.7523234 0 0.4429904 -0.8965264 0 0.7523553 -0.6587576 0 -0.06615048 0.9978098 6.33487e-06 0.06616032 0.997809 -6.33487e-06 0.9978109 -0.06613278 0 0.9471825 -0.3206951 0 0.9978109 0.066132 0 -0.9978092 -0.0661571 0 -0.9978092 0.06615686 2.2849e-05 -9.77616e-07 0 1 0.320745 -0.9471656 0 -0.9471728 0.3207237 0 -0.8965399 0.442963 0 -0.7071068 0.7071068 0 0.7071077 -0.7071059 0 0.7071077 -0.7071059 0 -0.7523365 0.6587791 -6.93003e-06 0.8965268 -0.4429897 0 -0.7071059 -0.7071077 0 -5.38691e-07 0 -1 -0.7071092 0.7071043 0 -0.707109 0.7071045 0 -0.6959334 -0.7181063 0 -0.7071037 -0.7071099 0 -0.6703909 -0.7420081 0 -0.06615549 0.9978094 -6.93007e-06 -0.3362058 0.9417886 2.38661e-05 0.0661571 0.9978092 0 -0.707109 0.7071047 0 0.3206954 -0.9471825 0 0.06613188 -0.9978109 0 0.4429909 -0.8965261 0 -0.06613373 -0.9978108 0 0.06613343 0.9978109 0 -0.06613224 0.9978109 0 2.17512e-06 0 -1 -0.06613326 -0.9978109 0 -0.3206957 -0.9471823 0 0.7071073 0.7071064 0 0.6703965 -0.7420031 4.54802e-06 0.6959396 -0.7181004 0 -0.06614637 0.99781 0 0.06616508 0.9978087 0 -1.45915e-06 0 1 -1.09437e-06 0 1 0.7071062 0.7071075 0 -0.4567335 0.8896036 0 -0.6799678 0.7332419 0 0.6992902 0.7148379 8.42401e-05 0.7071065 0.7071072 0 -2.17507e-06 0 1 1.45917e-06 0 1 -2.60696e-06 0 -1 -0.4429897 -0.8965268 0 0.6799619 0.7332476 0 0.4567378 0.8896015 0 0.7071093 -0.7071043 0 0.7071093 -0.7071043 0 -0.6992961 0.7148322 0 0.3362097 0.9417871 0 1 0 0 0 1 0 -1.30348e-06 0 1 -2.1751e-06 0 1 -0.7148357 0.6992925 0 -0.7071075 0.7071062 0 0.7071084 -0.7071052 0 0.06613326 0.9978109 0 -0.06613218 0.9978109 0 -2.60699e-06 0 1 6.51748e-07 0 -1 -0.7071094 0.7071042 0 -0.7332456 0.679964 0 -0.7071077 -0.7071059 0 -0.4572584 -0.8893339 0 -0.5071804 -0.86184 -3.78815e-07 -0.5601271 -0.8284067 0 -0.6965249 -0.7175328 0 -0.7042248 -0.709977 0 0 -1 0 0.5071822 -0.8618388 -3.80911e-07 0.4078193 -0.9130627 0 0.5601281 -0.8284061 0 0.357016 -0.9340984 0 0.3055365 -0.9521804 0 -7.29578e-07 0 -1 -0.7148346 0.6992936 4.25108e-05 -0.0661571 -0.9978092 -2.51787e-06 -0.7071074 0.7071063 0 0.7071089 -0.7071047 0 0.7071035 0.7071101 0 0.7071042 -0.7071094 0 0.06615471 -0.9978094 -2.2849e-05 1.45915e-06 0 1 -0.7071055 -0.7071081 0 -0.7181038 -0.695936 0 -0.7071055 -0.7071081 0 0.707106 0.7071076 0 -0.06613284 0.9978109 0 -0.7332445 0.679965 0 0.06613314 0.9978109 0 -0.7071039 -0.7071097 0 0.7014883 -0.7126809 0 0.7014794 -0.7126897 0 -0.5601272 0.8284067 0 0.5000029 -0.4999984 0.7071059 0.7071062 -0.7071074 0 -0.7071098 -0.7071039 0 -3.91045e-06 0 1 -7.2958e-07 0 -1 -0.06615549 0.9978094 0 0.06615632 0.9978093 0 -0.9978073 0.06618791 0 -0.9978076 -0.06618297 0 0.9978094 -0.06615382 0 0.06613194 -0.9978109 0 -0.7523224 -0.6587952 0 -0.8965483 -0.442946 0 -0.6587963 -0.7523216 0 -0.06613391 -0.9978108 0 -0.3206956 -0.9471824 0 -2.91829e-06 0 -1 -0.7523221 0.6587955 0 0.3207185 0.9471746 0 0.4429585 0.8965421 3.22969e-05 -0.9471815 -0.3206983 0 -0.4429901 -0.8965266 0 -0.6587958 0.752322 0 0.658779 0.7523367 -3.17131e-05 0.7523373 0.658778 0 0.9978093 0.0661571 2.51785e-06 0.947174 0.3207203 2.28491e-05 1.3035e-06 0 1 2.60696e-06 0 -1 -0.9471647 -0.3207478 0 0.8965402 0.4429625 -3.2297e-05 -0.8965489 0.4429449 0 -0.7071095 0.7071042 0 2.60694e-06 0 -1 -3.25876e-07 0 1 -5.18919e-07 0 -1 -0.9978109 -0.0661329 0 -0.7071092 0.7071045 0 -0.06613308 0.9978109 0 0.06615668 -0.9978092 0 -0.06615489 -0.9978094 0 0.06613266 0.9978109 0 -2.17507e-06 0 1 -0.7063423 -0.7078705 0 1.45916e-06 0 1 0.7071058 0.7071078 0 -0.6703948 0.7420045 -1.4091e-05 -0.4429912 0.8965259 0 -0.6959381 0.7181019 0 0.6992976 -0.7148306 0 0.6799697 -0.7332403 0 5.1892e-07 0 1 1.08753e-06 0 -1 -0.3206962 0.9471821 0 5.3869e-07 0 1 0.4567377 -0.8896015 -7.26404e-07 0.3362107 -0.9417869 4.43541e-07 -2.28108e-06 0 1 2.59458e-07 0 -1 -0.4999991 0.4999997 0.7071076 0.9978109 0.06613314 0 -0.580439 0 0.8143038 0.3811438 -1.05985e-06 0.9245159 0.3826942 -1.07044e-06 0.9238751 0.7175344 -0.6965232 0 0.1223961 0.9924814 0 0.8284125 0.5601184 0 0.8618449 -0.507172 -4.42378e-07 0.861845 0.507172 -4.27011e-07 0.9340999 0.3570119 0 0.9978109 -0.06613332 0 0.9471652 -0.3207461 0 -0.6959402 0.7180998 0 0.896526 -0.4429913 0 0.7420073 -0.6703919 -1.82045e-05 0.7181054 -0.6959345 0 0.6992953 -0.7148329 -3.0075e-05 0.7071084 -0.7071052 0 0.6799677 -0.7332421 0 -2.5946e-07 0 1 1.33294e-06 0 1 -2.60694e-06 0 -1 -0.8895992 0.4567421 -1.8733e-05 -0.9417861 0.3362128 1.90826e-05 -0.9978094 0.06615525 2.28489e-05 -0.9978092 -0.06615829 -2.28489e-05 -0.00232023 0.9999974 0 -0.02336168 0.9997271 -7.20844e-07 1.89617e-06 0.9999965 0.002684891 -0.02693146 -0.2184212 0.975483 0.06604462 -0.2354393 0.9696425 0.05121999 -0.198663 0.9787285 -0.5000041 -0.4999991 0.7071046 -0.8893367 -0.457253 0 -0.8618419 -0.5071772 -4.787e-07 -0.8893371 -0.4572521 0 -1.00769e-06 0.3811441 0.9245157 -1.2368e-06 0.6586956 0.7524097 1.22469e-06 0.7531405 0.6578599 3.1963e-06 0.8970574 0.441914 -2.07219e-07 0.9479032 0.3185584 -0.8618419 0.5071771 -4.55417e-07 -0.9130644 0.4078154 2.43705e-07 -0.9341018 0.3570069 0 -0.9521818 0.305532 0 -0.9521839 0.3055258 0 0.708028 3.51109e-07 0.7061844 0.7071046 -8.22241e-07 0.7071091 -0.7531403 -1.12504e-06 0.6578601 -0.8314616 0 0.5555822 -0.6586987 1.25496e-06 0.7524068 -0.381147 -1.073e-06 0.9245145 -0.3826973 -1.05985e-06 0.9238739 -0.2325466 -0.06973356 0.9700822 -0.2422332 0.0518198 0.9688333 0.9253685 1.9148e-06 0.3790689 0.9999966 -1.84914e-06 0.002619028 0.9999964 -1.91852e-06 0.002687811 0 -0.8314744 0.5555631 3.53903e-07 -0.7080199 0.7061927 0 -0.8314608 0.5555835 3.08454e-06 -0.4429091 0.8965665 -3.66126e-07 -0.7071108 0.7071028 -5.83008e-07 -0.3194275 0.9476108 0.05077379 0.2412806 0.9691263 1.07917e-06 0.3826954 0.9238746 0.9238724 -1.83657e-06 0.3827009 0.2412803 -0.05077379 0.9691264 0.8284122 -0.560119 9.86072e-06 0.7099772 -0.7042247 2.19417e-05 -0.7175335 0.696524 0 -0.8284076 0.5601259 0 -0.1893848 0.981903 0 -0.2504481 0.9681301 0 -0.357005 0.9341025 0 -0.4077644 0.9130872 0 -0.507179 0.8618409 -3.43192e-07 0.5071809 0.8618397 -3.30387e-07 0.4078084 0.9130675 0 0.3570047 0.9341026 0 0.2504475 0.9681303 1.61213e-05 0.189433 0.9818937 0 0.1223961 0.9924814 0 0.7126571 0.7015125 0 0.9924834 -0.1223794 0 0.9818857 -0.1894744 0 0.9681178 -0.2504952 1.75389e-05 0.9341005 -0.3570105 0 0.9130656 -0.407813 9.44792e-06 0.9130843 0.4077708 0 0.9681299 0.2504484 0 0.9818952 0.1894252 0 0.9999974 0.002311468 -2.82815e-05 0.696495 0.7175617 0 0.5601282 0.828406 0 0.09046483 0.1955929 0.9765038 0.06333667 0.01245206 0.9979146 0.2259737 0.03021001 0.9736649 -0.1955929 0.09046465 0.9765039 -0.04225999 0.1100141 0.9930313 -0.02730864 0.2191033 0.9753195 0.00625807 0.1418399 0.9898698 0.003657698 -0.08304774 0.9965389 -0.04667937 -0.1215202 0.9914908 0.1215195 -0.04668182 0.9914908 0.1926395 -0.08025109 0.9779825 -0.08916348 0.2267508 0.9698629 -0.2121393 -0.05790019 0.9755227 0.22675 0.08916348 0.969863 -0.03399354 -0.003587007 0.9994156 -0.08609181 0.003800094 0.99628 -1.03784e-06 0 1 -2.17511e-06 0 -1 -0.695932 -0.7181077 0 0.7181069 -0.6959328 0 -0.679964 -0.7332456 0 -0.6992919 -0.7148362 -4.17426e-05 0.7332424 0.6799674 0 -5.18917e-07 0 -1 0.6959355 0.7181043 0 0.7071034 0.7071101 0 -0.9978109 -0.06613308 0 0.7148323 0.6992959 8.33828e-06 0.7071061 0.7071076 0 0.9978109 -0.0661323 0 0.997811 0.06613254 0 0.7181007 0.6959392 0 0.6992902 0.714838 0 -0.7332693 -0.6799384 0 -0.7071041 -0.7071095 0 -0.7148286 -0.6992998 -3.00751e-05 -0.7071052 -0.7071085 0 -0.742006 -0.6703932 0 5.38689e-07 0 1 -0.7014915 0.7126778 0 -0.7099763 0.7042257 0 0.7042296 0.7099724 0 0.5000016 0.4999944 0.7071098 0.9997272 0.02335619 -7.47386e-07 -0.08916348 -0.2267501 0.9698631 -0.7126814 -0.7014878 0 -0.7126886 -0.7014806 0 -0.8284072 -0.5601263 0 1.86497e-06 0.9999967 0.002615332 0 -0.5804414 0.8143021 4.85404e-07 0 -1 -8.63848e-07 0 -1 8.74873e-07 0 -1 9.84555e-07 0 -1 -1.43758e-06 0 -1 5.03207e-07 0 -1 -3.77404e-07 0 -1 0.5993844 -0.1204636 0.791345 0.5315272 -0.3159283 0.7859187 0.6182802 -0.007838904 0.7859187 0.9849123 -0.1730532 0.000790605 0.8681933 -0.4962258 0.000615181 0.9999904 0.004351913 0.000614802 -0.120463 -0.5993821 0.7913469 -0.007839441 -0.6182777 0.7859207 -0.1730539 -0.9849121 0.000791503 0.004351735 -0.9999904 0.000616693 0.4588491 -0.404016 0.7913461 0.3023477 -0.5393626 0.7859224 0.1953638 -0.5793097 0.7913491 0.342588 -0.9394854 0.000790088 0.5037649 -0.8638407 0.000614785 0.7664331 -0.6423238 0.000790528 -5.95878e-06 0 -1 2.02036e-06 0 -1 -0.9999995 -0.001078128 0 0.7078717 -0.7063411 0 0.001078724 -0.9999995 0 -2.60696e-06 0 -1 1.30349e-06 0 -1 0.4429586 -0.8965421 0 0.6587802 -0.7523356 0 0.320719 -0.9471744 0 1.45916e-06 0 -1 -0.8965256 0.4429919 0 -0.9471649 0.3207473 0 -0.9978109 0.06613212 0 0.7523369 -0.6587787 0 0.8965405 -0.4429618 0 0.9978094 0.06615477 -2.28489e-05 0.9978095 -0.06615388 2.28489e-05 -0.4429907 0.8965263 0 -0.7071075 0.7071061 0 0.947173 -0.3207232 0 -0.3207455 0.9471654 0 -0.9978072 0.06618845 0 -0.947165 0.3207467 0 -0.9978076 -0.06618261 0 0.9417864 -0.336212 0 0.9978094 -0.06615465 0 0.8896005 -0.4567397 0 0.8896002 0.45674 -5.94209e-05 0.7332429 0.6799669 0 0.9417859 0.3362133 0 -0.9978109 0.06613194 0 0.7148334 0.6992948 -3.00749e-05 0.9978095 0.06615459 -2.28489e-05 0.9978094 -0.06615406 2.28489e-05 -0.7181072 0.6959325 0 -0.7420098 0.6703892 0 0.9978092 0.06615668 0 -0.8965256 -0.442992 0 0.7332457 -0.6799638 0 0.7148362 -0.699292 0 -2.91829e-06 0 -1 -0.5993815 0.1204638 0.7913472 -0.618278 0.007840216 0.7859203 -0.9849124 0.1730518 0.000785844 -0.9999906 -0.004300236 0.000609095 -0.1204619 -0.5993813 0.7913477 -0.3159268 -0.5315223 0.7859226 -0.007839381 -0.6182767 0.7859215 -0.1730539 -0.9849122 0.000790726 -0.4962717 -0.8681671 0.000610425 0.004351556 -0.9999904 0.000616694 -0.5793143 -0.1953682 0.7913446 -0.5393664 -0.3023508 0.7859185 -0.4040132 -0.4588472 0.7913486 -0.939486 -0.3425863 0.000786842 -0.8638416 -0.5037633 0.000611272 -0.6423249 -0.7664322 0.000784916 -5.21393e-06 0 1 0.896526 0.4429911 0 -0.9978093 -0.06615734 0 -0.9417867 -0.3362112 -1.90826e-05 -0.9978092 0.06615686 2.2849e-05 2.17508e-06 0 -1 0.7181025 0.6959373 0 0.9471817 0.3206976 0 0.8965263 0.4429906 0 -0.8896 -0.4567406 3.10326e-06 -0.7332417 -0.6799681 0 -0.7148314 -0.6992968 4.17426e-05 -5.3869e-07 0 1 0.7420042 0.6703953 -4.59479e-05 0.6959375 -0.7181024 0 -0.7181068 0.695933 0 -0.6799688 0.7332411 0 0.7071079 -0.7071057 0 1.03783e-06 0 -1 0.7332459 -0.6799637 0 0.7148364 -0.6992917 3.3376e-05 -0.6992971 0.7148312 -4.25108e-05 0.9471654 0.3207456 0 0.9978075 0.06618392 0 0.9978107 -0.06613463 0 -0.3207234 -0.9471729 0 -0.06615716 -0.9978092 0 -0.4429627 -0.8965401 3.22967e-05 0.3206984 0.9471814 0 4.56219e-06 0 -1 0.06615483 -0.9978094 0 0.4429923 0.8965255 0 0.6587963 0.7523215 0 0.7523218 0.6587958 0 -0.8965375 -0.4429681 3.17134e-05 -0.7523401 -0.6587749 0 -0.9471714 -0.3207278 6.93005e-06 -0.9978092 0.06615692 2.28489e-05 -0.6587834 -0.7523328 -2.53568e-05 -0.9978093 -0.0661565 -2.28489e-05 1.30347e-06 0 -1 -0.679966 -0.7332436 0 -0.4567334 -0.8896037 0 -0.6992937 -0.7148345 0 -3.2587e-07 0 -1 0.6959364 0.7181035 0 0.7071036 0.70711 0 0.6703935 0.7420058 2.3187e-05 0.06615668 -0.9978092 0 -0.06615573 -0.9978093 0 -0.3362066 -0.9417883 0 0.3207466 0.9471651 0 0.4429919 0.8965258 0 0.599385 -0.1204632 0.7913447 0.6182803 -0.007838964 0.7859187 0.9849123 -0.1730529 0.000791035 0.9999904 0.004352092 0.000614822 0.1730525 0.9849123 0.000786391 0.4962259 0.8681933 0.000623549 -0.004298865 0.9999907 0.00061072 0.120465 0.5993805 0.7913478 0.3159304 0.5315294 0.7859164 0.007840692 0.6182754 0.7859225 0.5793129 0.1953673 0.7913458 0.5393663 0.3023491 0.7859194 0.404017 0.4588543 0.7913426 0.6423255 0.7664316 0.000799028 0.8638677 0.5037185 0.000616458 0.939486 0.3425867 0.000790187 -0.599382 0.1204628 0.7913469 -0.5315265 0.3159289 0.785919 -0.6182776 0.007839977 0.7859207 -0.9849126 0.1730515 0.000785853 -0.868193 0.4962263 0.000613349 -0.9999906 -0.004300773 0.000609657 0.1730521 0.9849125 0.000784977 -0.004352748 0.9999904 0.000610223 0.1204635 0.5993812 0.7913475 0.007839381 0.618275 0.7859228 -0.1953659 0.5793101 0.7913482 -0.3023501 0.5393618 0.7859219 -0.4588509 0.4040158 0.7913451 -0.342588 0.9394855 0.000789747 -0.5037623 0.8638422 0.000614125 -0.7664314 0.6423258 0.000791719 -1.45915e-06 0 -1 2.60696e-06 0 -1 0.7071055 -0.7071081 0 -1.45916e-06 0 -1 0.5000477 0.5000109 0.7070655 -3.64791e-07 0 -1 0.7071077 0.7071059 0 1.09438e-06 0 1 5.21383e-06 0 1 -1.82393e-06 0 -1 -0.707105 -0.7071086 0 0 0.5804414 0.8143021 -0.4999979 0.4999979 0.7071098 -6.51738e-07 0 -1 0.7071084 -0.7071053 0 -0.4572581 -0.8893342 0 -0.4999979 -0.4999979 0.7071098 0.3055375 -0.9521801 0 -1.45916e-06 0 -1 0.7071088 -0.7071049 0 0.5000318 -0.5000023 0.7070828 0.4999952 -0.4999989 0.707111 0.7078729 -0.7063399 0 -1.48509e-05 0 -1 5.93983e-05 0 -1 -2.96983e-05 0 -1 2.96965e-05 0 -1 -2.96965e-05 0 -1 -5.93965e-05 0 -1 1.3035e-06 0 -1 -1.45914e-06 0 -1 -5.18919e-07 0 1 -2.03621e-06 0 -1 -0.5000001 0.5000001 0.7071067 -1.30347e-06 0 1 -0.4328801 0 0.9014516 0.5000154 0.5000049 0.7070925 -2.54528e-07 0 -1 1.09437e-06 0 1 0.580439 0 0.8143038 0.5000547 -0.5000652 0.7070221 -0.4999962 0.4999857 0.7071197 -0.4999998 0.5000008 0.7071064 -0.5000265 0.5000118 0.7070798 -0.5 0.5000003 0.7071067 -0.5000007 0.4999789 0.7071213 -0.5000055 0.4999783 0.7071183 -0.4999894 0.5000004 0.707114 -0.4999704 0.5000072 0.7071228 -0.5000016 0.4999976 0.7071074 -0.5000005 0.4999982 0.7071079 -0.500001 0.500009 0.7070999 -0.5000016 0.499997 0.7071078 -0.5000069 0.5000069 0.7070971 0 -0.4328814 0.901451 -2.91832e-06 0 1 -2.03622e-06 0 -1 5.3869e-07 0 -1 -0.7014827 0.7126864 0 -0.4999998 -0.5000008 0.7071064 -0.4999669 -0.4999722 0.7071499 -0.5000151 -0.5000225 0.7070802 -0.4999997 -0.5000012 0.7071062 -0.4999927 -0.5000176 0.7070996 -0.4999904 -0.4999996 0.7071139 -0.5000006 -0.5000011 0.7071056 -0.500005 -0.4999879 0.707112 -0.500008 -0.4999765 0.7071178 -0.500003 -0.5000004 0.7071045 -0.5000081 -0.4999971 0.7071032 -0.5000033 -0.4999986 0.7071055 -0.8314612 0 0.5555828 0.9924834 -0.1223794 0 2.59459e-07 0 1 0.7071061 0.7071075 0 -1.27263e-06 0 -1 -0.7071081 0.7071055 0 -5.3869e-07 0 1 -5.38692e-07 0 1 0.4999994 0.5000004 0.7071071 0.4999975 0.4999818 0.7071215 0.5000026 0.4999989 0.7071058 0.499999 0.500015 0.707097 0.5000009 0.4999963 0.7071089 0.5000007 0.4999967 0.7071086 0.4999788 0.5000077 0.7071164 0.5000024 0.4999969 0.7071074 0.4999996 0.4999997 0.7071074 0.5000059 0.4999949 0.7071062 0.4999907 0.5000012 0.7071126 0.5000014 0.499996 0.7071087 0.4999981 0.5000014 0.7071071 0.4999859 0.4999979 0.7071184 0.500002 0.4999979 0.7071069 0.5000004 -0.5000014 0.7071056 0.4999708 -0.4999603 0.7071555 0.500009 -0.500009 0.7070942 0.500001 -0.4999981 0.7071075 0.4999966 -0.5000002 0.7071091 0.4999894 -0.4999734 0.7071332 0.500018 -0.5000118 0.7070859 0.4999997 -0.5000002 0.7071068 0.5000035 -0.4999943 0.7071084 0.4999954 -0.5000151 0.7070994 0.4999991 -0.4999969 0.7071096 0.5000057 -0.5000008 0.7071022 1.62643e-06 0 -1 2.96947e-05 0 -1 -2.02449e-05 0 -1 -6.06047e-07 0 -1 0 0 -1 -5.55491e-06 0 -1 1.99484e-07 0 -1 -8.74962e-07 0 -1 -8.90409e-07 0 -1 1.74746e-06 0 -1 -4.58739e-06 0 -1 7.42523e-06 0 -1 -9.31874e-07 0 -1 -1.02887e-06 0 -1 4.3754e-07 0 -1 2.78417e-06 0 -1 -2.97162e-06 0 -1 1.5725e-05 0 -1 -5.93917e-05 0 -1 5.84886e-07 0 1 3.19587e-06 0 1 -2.33954e-06 0 1 -2.22176e-06 0 -1 5.55435e-07 0 -1 -2.8011e-06 0 -1 1.78121e-06 0 -1 -1.81814e-06 0 -1 0.9999995 0.001080572 0 1.95525e-06 0 -1 -2.607e-06 0 -1 2.60696e-06 0 1 -6.75367e-07 0 1 -2.22177e-06 0 -1 -1.87806e-06 0 -1 -5.6023e-06 0 -1 -2.8731e-06 0 -1 0.001078724 -0.9999995 0 7.63573e-07 0 -1 -2.91828e-06 0 1 1.34097e-06 0 -1 3.64789e-07 0 1 3.19587e-06 0 1 -5.55432e-07 0 -1</float_array>
          <technique_common>
            <accessor source="#Cube_021-mesh-normals-array" count="639" stride="3">
              <param name="X" type="float" />
              <param name="Y" type="float" />
              <param name="Z" type="float" />
            </accessor>
          </technique_common>
        </source>
        <source id="Cube_021-mesh-map-0">
          <float_array id="Cube_021-mesh-map-0-array" count="4056">0.6791347 0.3045449 0.6881546 0.310817 0.6791346 0.310817 0.7615 0.8420954 0.7666873 0.8375638 0.7666873 0.8420954 0.7011627 0.2982733 0.692143 0.2920013 0.7011627 0.2920013 0.243936 0.9925816 0.2520324 0.9977689 0.243936 0.9977689 0.7615 0.8466269 0.7666873 0.8420954 0.7666873 0.8466269 0.2277433 0.9925816 0.2358397 0.9977689 0.2277433 0.9977689 0.692143 0.3045455 0.7011627 0.2982733 0.7011628 0.3045455 0.692143 0.3170898 0.7011628 0.3108175 0.7011628 0.3170898 0.6791346 0.3170891 0.6881546 0.310817 0.6881546 0.3170891 0.6881546 0.3045449 0.6791347 0.2982727 0.6881546 0.2982727 0.2520324 0.9925816 0.2601288 0.9977689 0.2520324 0.9977689 0.7615 0.8330323 0.7666873 0.8285007 0.7666873 0.8330323 0.7011628 0.3045455 0.692143 0.3108175 0.692143 0.3045455 0.6791347 0.2920007 0.6881546 0.2982727 0.6791347 0.2982727 0.7615 0.8375638 0.7666873 0.8330323 0.7666873 0.8375638 0.2358397 0.9925816 0.243936 0.9977689 0.2358397 0.9977689 0.7491073 0.532394 0.7542947 0.4859803 0.7542947 0.532394 0.7697491 0.0567162 0.7749364 0.05218464 0.7749364 0.0567162 0.7423666 0.3934198 0.747554 0.3853236 0.747554 0.3934198 0.7141709 0.4254076 0.7051511 0.4321268 0.7051511 0.4254076 0.6407623 0.6911002 0.6497822 0.6978194 0.6407623 0.6978194 0.6407623 0.6848281 0.6497822 0.6911002 0.6407623 0.6911002 0.7491073 0.5485862 0.7542947 0.5404901 0.7542947 0.5485862 0.7423666 0.4015159 0.747554 0.3934198 0.747554 0.4015159 0.6873418 0.616158 0.678322 0.6228773 0.678322 0.616158 0.6873418 0.6098859 0.678322 0.616158 0.678322 0.6098859 0.6757989 0.7249219 0.6667789 0.7311939 0.6667789 0.7249219 0.7697491 0.05218464 0.7749364 0.04675322 0.7749364 0.05218464 0.6757989 0.7249219 0.6667789 0.718203 0.6757989 0.718203 0.7051511 0.4321268 0.7141708 0.4383988 0.7051511 0.4383988 0.7491073 0.5404901 0.7542947 0.532394 0.7542947 0.5404901 0.7186506 0.9759219 0.7132191 0.9707346 0.7186506 0.9707346 0.6873418 0.6228773 0.678322 0.6685465 0.678322 0.6228773 0.7132191 0.9759219 0.7086876 0.9707346 0.7132191 0.9707346 0.6523417 0.9026814 0.6433219 0.8964091 0.6523417 0.8964091 0.7083631 0.8901364 0.7173829 0.8838644 0.7173829 0.8901364 0.7575116 0.887948 0.7523242 0.896044 0.7523242 0.887948 0.7575116 0.871756 0.7523242 0.8798519 0.7523242 0.871756 0.7083631 0.8901364 0.7173829 0.8964085 0.7083631 0.8964085 0.7698942 0.3274537 0.7750816 0.3229222 0.7750816 0.3274537 0.7575116 0.896044 0.7523242 0.9041401 0.7523242 0.896044 0.6523417 0.8838648 0.6433219 0.8775925 0.6523417 0.8775925 0.7575116 0.8798519 0.7523242 0.887948 0.7523242 0.8798519 0.7698942 0.3319854 0.7750816 0.3274537 0.7750816 0.3319854 0.7698942 0.3410482 0.7750816 0.3365167 0.7750816 0.3410482 0.6433219 0.890137 0.6523417 0.8838648 0.6523417 0.890137 0.6523417 0.8964091 0.6433219 0.890137 0.6523417 0.890137 0.7083631 0.9026805 0.7173829 0.8964085 0.7173829 0.9026805 0.7083631 0.8838644 0.7173829 0.8775924 0.7173829 0.8838644 0.7698942 0.3365167 0.7750816 0.3319854 0.7750816 0.3365167 0.7003499 0.5785253 0.6913303 0.5718061 0.7003499 0.5718061 0.6751462 0.2920011 0.6661263 0.2857288 0.6751462 0.2857288 0.7515424 0.4355772 0.7567297 0.4274809 0.7567297 0.4355772 0.6751462 0.2790096 0.6661263 0.2857288 0.6661265 0.2790096 0.7515424 0.4274809 0.7567297 0.4193847 0.7567297 0.4274809 0.7758632 0.7448838 0.7706757 0.750315 0.7706757 0.7448838 0.7758632 0.7403522 0.7706757 0.7448838 0.7706757 0.7403522 0.6913303 0.5847974 0.7003499 0.5785253 0.7003499 0.5847974 0.4184276 0.2699691 0.4266608 0.2940589 0.4094803 0.2659088 0.3355122 0.9342162 0.3354029 0.9118474 0.3364036 0.9118808 0.1734679 0.916098 0.3312694 0.9168061 0.1734679 0.9168063 0.6542379 0.4697589 0.6632578 0.4764778 0.6542379 0.4764778 0.7513976 0.06382822 0.7565849 0.05573189 0.7565849 0.06382822 0.7513976 0.05573189 0.7565849 0.04763561 0.7565849 0.05573189 0.7513976 0.04763561 0.7565849 0.001220703 0.7565849 0.04763561 0.6537706 0.6534678 0.6627905 0.6467487 0.6627905 0.6534678 0.6537706 0.6534678 0.6627905 0.6597397 0.6537706 0.6597397 0.6537706 0.6467487 0.6627905 0.6010801 0.6627905 0.6467487 0.6632578 0.4634868 0.6542379 0.4697589 0.6542379 0.4634868 0.7702625 0.484113 0.7754498 0.4786816 0.7754498 0.484113 0.7702625 0.4786816 0.7754498 0.4741501 0.7754498 0.4786816 0.416013 0.3566893 0.5133334 0.3052679 0.4921463 0.3566768 0.7331558 0.1152861 0.5780866 0.1119202 0.7331558 0.1119202 0.7331558 0.1119202 0.5780866 0.1090247 0.7331558 0.1090247 0.5927305 0.2695534 0.601678 0.2736134 0.6099112 0.2977033 0.7331558 0.06097018 0.5780866 0.064336 0.5780866 0.06097018 0.7239378 0.9348315 0.7265039 0.8211932 0.7265039 0.9347139 0.7265039 0.9347139 0.7290702 0.8196014 0.7290702 0.9363058 0.3287523 0.9234051 0.1734679 0.9201057 0.3297605 0.9201055 0.3297605 0.9201055 0.1734679 0.9168063 0.3312694 0.9168061 0.740637 0.8478178 0.7432034 0.7341806 0.7432034 0.8477004 0.5872924 0.8018412 0.589859 0.9169539 0.5872924 0.9153621 0.5847262 0.8017237 0.5872924 0.9153621 0.5847262 0.9154795 0.5847262 0.8017237 0.5821599 0.9172884 0.5821599 0.7999147 0.7457696 0.8492921 0.7483357 0.7295297 0.7483357 0.8523509 0.1632211 0.9798932 0.2783345 0.9773268 0.2799263 0.9798931 0.1646955 0.9747605 0.2783345 0.9773268 0.1648129 0.9773269 0.1628866 0.9721943 0.2784519 0.9747605 0.1646955 0.9747605 0.7239378 0.9348315 0.7213713 0.8192669 0.7239378 0.8210756 0.7457696 0.8492921 0.7432034 0.7341806 0.7457693 0.7325887 0.740637 0.8478178 0.7380706 0.7322542 0.740637 0.734063 0.1565051 0.4321985 0.001220703 0.4354981 0.001220703 0.4321986 0.1575132 0.4354982 0.001220703 0.4387978 0.001220703 0.4354981 0.1590219 0.4395062 0.001220703 0.4387978 0.1590219 0.438798 0.001220703 0.3845055 0.1561511 0.3873981 0.001220703 0.3873982 0.3283984 0.9262979 0.1734679 0.9234055 0.3287523 0.9234051 0.001220881 0.01360571 0.1590222 0.01071321 0.160802 0.01360595 0.001220822 0.01071292 0.1575134 0.007413566 0.1590222 0.01071321 0.001220881 0.007413208 0.1565053 0.004113852 0.1575134 0.007413566 0.1565052 0.1704631 0.001220703 0.1671633 0.1575132 0.1671635 0.1575132 0.1671635 0.001220703 0.1638635 0.159022 0.1638637 0.159022 0.1638637 0.001220703 0.1609708 0.1608018 0.1609711 0.1561511 0.2152635 0.001220703 0.2181562 0.001220703 0.2152634 0.001220703 0.3750134 0.1590219 0.3779061 0.001220703 0.3779062 0.001220703 0.3779062 0.1575132 0.3812058 0.001220703 0.381206 0.001220703 0.381206 0.1565051 0.3845055 0.001220703 0.3845055 0.1565051 0.218156 0.001220703 0.2214558 0.001220703 0.2181562 0.1575132 0.221456 0.001220703 0.2247555 0.001220703 0.2214558 0.159022 0.2247555 0.001220703 0.2276483 0.001220703 0.2247555 0.1561511 0.1733558 0.001220703 0.170463 0.1565052 0.1704631 0.4921457 0.4824604 0.4841143 0.4439827 0.5168343 0.4575761 0.3911057 0.4576369 0.4296033 0.4495916 0.4160019 0.4823448 0.4784598 0.449669 0.4160019 0.4823448 0.4296033 0.4495916 0.416013 0.3566893 0.478486 0.3894641 0.429642 0.3894376 0.4841448 0.3951556 0.4921463 0.3566768 0.5168766 0.3815323 0.5168766 0.3815323 0.4841143 0.4439827 0.4841448 0.3951556 0.3911057 0.4576369 0.3946745 0.5336621 0.3397734 0.4790177 0.5135009 0.5338274 0.4160019 0.4823448 0.4921457 0.4824604 0.3397734 0.4790177 0.3911542 0.381434 0.3911057 0.4576369 0.5681536 0.3600676 0.5168343 0.4575761 0.5168766 0.3815323 0.5133334 0.3052679 0.5168766 0.3815323 0.4921463 0.3566768 0.4921457 0.4824604 0.5681571 0.4788701 0.5135009 0.5338274 0.3911542 0.381434 0.429642 0.3894376 0.4239466 0.3951042 0.4238948 0.4439284 0.3911542 0.381434 0.4239466 0.3951042 0.7173465 0.7692748 0.7263663 0.8149443 0.7173465 0.8149443 0.6621379 0.2333406 0.653118 0.279009 0.6531181 0.2333406 0.7758632 0.7998338 0.7706757 0.8453639 0.7706757 0.7998338 0.7605733 0.1588168 0.7657607 0.1124032 0.7657607 0.1588168 0.7758632 0.8834148 0.7706757 0.9289448 0.7706757 0.8834148 0.6653499 0.8646019 0.6563301 0.8189327 0.6653499 0.8189327 0.7043747 0.8646016 0.6953548 0.8189327 0.7043747 0.8189327 0.653118 0.3300797 0.6621379 0.3757492 0.6531181 0.3757492 0.5488794 0.2068793 0.5540668 0.2304581 0.5488794 0.2304581 0.7750813 0.2179086 0.769894 0.2634405 0.769894 0.2179086 0.7615 0.9329332 0.785079 0.966268 0.7615 0.966268 0.4843525 0.2572471 0.479165 0.2336685 0.4843525 0.2336685 0.6563301 0.9613413 0.6653499 0.9156727 0.6653499 0.9613413 0.7173465 0.6228771 0.7263663 0.6685462 0.7173465 0.6685462 0.7263663 0.5261365 0.7173465 0.5718057 0.7173465 0.5261365 0.7607182 0.3204007 0.7659056 0.2739869 0.7659056 0.3204007 0.7420736 0.2863428 0.7472611 0.2399291 0.7472611 0.2863428 0.4720899 0.2848146 0.4669026 0.2612355 0.4720899 0.2612355 0.7675789 0.9850977 0.7220474 0.9799103 0.7675789 0.9799103 0.6802545 0.4764773 0.6892745 0.5221456 0.6802545 0.5221456 0.7750813 0.1343253 0.769894 0.179857 0.769894 0.1343253 0.6839953 0.9850977 0.6384625 0.9799103 0.6839953 0.9799103 0.7798513 0.5237458 0.8034302 0.5570806 0.7798513 0.5570806 0.7790697 0.1838484 0.8026487 0.1505137 0.8026487 0.1838485 0.8025038 0.109202 0.7789248 0.07586717 0.8025038 0.07586717 0.63778 0.7808113 0.6613588 0.7474763 0.6613588 0.7808113 0.8025038 0.001220703 0.7789248 0.03455549 0.7789248 0.001220703 0.3283984 0.9682055 0.1734679 0.9262982 0.3283984 0.9262979 0.1561511 0.2152635 0.001220703 0.1733558 0.1561511 0.1733558 0.1561509 0.4293058 0.001220703 0.3873982 0.1561511 0.3873981 0.669656 0.5970917 0.6524753 0.5689418 0.663703 0.5755187 0.1561509 0.4293058 0.001220703 0.4321986 0.001220703 0.4293059 0.4239466 0.3951042 0.478486 0.3894641 0.4841143 0.4439827 0.3911542 0.381434 0.3945268 0.3054246 0.416013 0.3566893 0.7331558 0.1090247 0.5780866 0.06723159 0.7331557 0.06723159 0.7331558 0.064336 0.5780866 0.06723159 0.5780866 0.064336 0.001220881 0.004113376 0.1561512 0.001220881 0.1565053 0.004113852 0.59086 0.8002494 0.589859 0.9169539 0.5898587 0.8002493 0.7290702 0.9363058 0.7316364 0.8165426 0.7316364 0.9393647 0.608624 0.6696798 0.615201 0.658452 0.6367739 0.6524992 0.3422192 0.8820038 0.3423284 0.9043728 0.3416209 0.9043492 0.9000591 0.1438465 0.898523 0.1428779 0.9018302 0.1442478 0.9000591 0.07443076 0.9460827 0.07392531 0.9460827 0.07413381 0.766274 0.573435 0.7607181 0.5859302 0.7607181 0.573435 0.6490395 0.3299854 0.6407719 0.3437858 0.6407647 0.3299809 0.766274 0.5859302 0.7607181 0.5984252 0.7607181 0.5859302 0.766274 0.5984252 0.7607181 0.6109203 0.7607181 0.5984252 0.6408016 0.3713956 0.6490591 0.3575894 0.6490764 0.3713912 0.6407843 0.3575907 0.6490468 0.3437874 0.6490591 0.3575894 0.4994432 0.2891374 0.508459 0.2990723 0.4994432 0.2990723 0.4824506 0.2990723 0.4631735 0.2891374 0.4824506 0.2891374 0.3566369 0.5484325 0.3713663 0.5521185 0.352089 0.5521186 0.3494109 0.5412222 0.352089 0.5521186 0.3457139 0.5457434 0.7442422 0.9383609 0.7356247 0.9281529 0.7442422 0.9281529 0.7442422 0.8669046 0.7356247 0.8566966 0.7442422 0.8566966 0.6797873 0.743738 0.6888074 0.737466 0.6888074 0.743738 0.6693383 0.8775922 0.6783581 0.8838643 0.6693383 0.8838643 0.6783581 0.9026806 0.6693383 0.8964086 0.6783581 0.8964086 0.6783581 0.8901364 0.6693383 0.8964086 0.6693383 0.8901364 0.7758629 0.593657 0.7706755 0.5981881 0.7706755 0.593657 0.6797873 0.7562818 0.6888074 0.7500098 0.6888074 0.7562818 0.6783581 0.8901364 0.6693383 0.8838643 0.6783581 0.8838643 0.6888074 0.7500098 0.6797873 0.743738 0.6888074 0.743738 0.7515423 0.2497027 0.7567297 0.2416065 0.7567297 0.2497027 0.7515423 0.2577988 0.7567297 0.2497027 0.7567297 0.2577988 0.7758629 0.5981881 0.7706755 0.6027196 0.7706755 0.5981881 0.7515423 0.2416065 0.7567297 0.2335106 0.7567297 0.2416065 0.7758629 0.6027196 0.7706755 0.6072512 0.7706755 0.6027196 0.7515424 0.2335106 0.7567297 0.2254143 0.7567297 0.2335106 0.7758629 0.5891256 0.7706755 0.593657 0.7706755 0.5891256 0.6888074 0.7311942 0.6797873 0.737466 0.6797873 0.7311942 0.7043383 0.6098862 0.7133581 0.6161583 0.7043383 0.6161583 0.7043383 0.6161583 0.7133581 0.6228774 0.7043383 0.6228774 0.7051513 0.3233623 0.7141711 0.3170903 0.7141711 0.3233623 0.6762661 0.4764776 0.6672462 0.5221465 0.6672462 0.4764776 0.7051513 0.3300815 0.7141711 0.3233623 0.7141711 0.3300815 0.7607182 0.3869941 0.7659058 0.378898 0.7659058 0.3869941 0.716646 0.9942734 0.7121145 0.989086 0.716646 0.989086 0.7666872 0.7180521 0.7615 0.7234837 0.7615 0.7180521 0.7666872 0.7135207 0.7615 0.7180521 0.7615 0.7135207 0.7607182 0.3708022 0.7659058 0.3243891 0.7659058 0.3708022 0.6762661 0.4697586 0.6672462 0.4764776 0.6672462 0.4697586 0.6823466 0.9089526 0.6913664 0.9156716 0.6823466 0.9156716 0.6823466 0.9026804 0.6913664 0.9089526 0.6823466 0.9089526 0.6762661 0.4634864 0.6672462 0.4697586 0.6672462 0.4634864 0.7575114 0.7020758 0.7523242 0.7101719 0.7523242 0.7020758 0.7220773 0.9942734 0.716646 0.989086 0.7220773 0.989086 0.7575114 0.6939795 0.7523242 0.7020758 0.7523242 0.6939795 0.7607182 0.378898 0.7659058 0.3708022 0.7659058 0.378898 0.766274 0.6109203 0.7607181 0.6234154 0.7607181 0.6109203 0.6490764 0.3713912 0.6408238 0.3852005 0.6408016 0.3713956 0.7607181 0.4984644 0.766274 0.4859693 0.766274 0.4984644 0.7607181 0.6359105 0.766274 0.6234154 0.766274 0.6359105 0.6408238 0.2471516 0.6491256 0.233372 0.6490986 0.2471738 0.6408507 0.3990052 0.6490986 0.3851932 0.6491256 0.3989951 0.4864391 0.2849185 0.4954549 0.2948534 0.4864391 0.2948534 0.4452617 0.2756994 0.4353269 0.2949767 0.4353269 0.2756994 0.7442422 0.8771126 0.7356247 0.8669046 0.7442422 0.8669046 0.3493999 0.531014 0.3457139 0.5457434 0.3457139 0.5264661 0.3566103 0.5237879 0.3457139 0.5264661 0.352089 0.520091 0.7442422 0.8873208 0.7356247 0.8771126 0.7442422 0.8771126 0.7615 0.8285007 0.7666873 0.8239691 0.7666873 0.8285007 0.7011627 0.285729 0.692143 0.2920013 0.692143 0.285729 0.6881546 0.3233612 0.6791346 0.3170891 0.6881546 0.3170891 0.6791347 0.3300802 0.6881546 0.3233612 0.6881546 0.3300802 0.2196469 0.9925816 0.2277433 0.9977689 0.2196469 0.9977689 0.7011627 0.285729 0.692143 0.2790099 0.7011628 0.2790099 0.7615 0.8239691 0.7666873 0.8185376 0.7666873 0.8239691 0.2115506 0.9925816 0.2196469 0.9977689 0.2115506 0.9977689 0.7423666 0.4479295 0.747554 0.4015159 0.747554 0.4479295 0.7141708 0.3797386 0.7051511 0.4254076 0.7051511 0.3797386 0.6757989 0.718203 0.6667789 0.6725349 0.6757989 0.6725349 0.7051511 0.4764789 0.7141708 0.5221481 0.7051511 0.5221481 0.7697491 0.1303369 0.7749364 0.08480542 0.7749364 0.1303369 0.7697491 0.04675322 0.7749364 0.001220703 0.7749364 0.04675322 0.1605396 0.3866467 0.165727 0.4102259 0.1605396 0.4102259 0.8026489 0.2958182 0.7790701 0.2624832 0.8026489 0.2624832 0.802649 0.2998065 0.7790701 0.3331414 0.7790701 0.2998065 0.7513976 0.07192456 0.7565849 0.06382822 0.7565849 0.07192456 0.6537706 0.6660119 0.6627905 0.6722841 0.6537706 0.6722841 0.7702625 0.4605553 0.7754498 0.4560236 0.7754498 0.4605553 0.7513976 0.09621328 0.7565849 0.08811718 0.7565849 0.09621328 0.6627905 0.6722841 0.6537706 0.6785562 0.6537706 0.6722841 0.6537706 0.6597397 0.6627905 0.6660119 0.6537706 0.6660119 0.6632578 0.4383984 0.6542379 0.4446705 0.6542379 0.4383984 0.6632578 0.4509428 0.6542379 0.4572146 0.6542379 0.4509428 0.6537706 0.6785562 0.6627905 0.6848282 0.6537706 0.6848282 0.6632578 0.4509428 0.6542379 0.4446705 0.6632578 0.4446705 0.6632578 0.4572146 0.6542379 0.4634868 0.6542379 0.4572146 0.7513976 0.08811718 0.7565849 0.08002084 0.7565849 0.08811718 0.7513976 0.08002084 0.7565849 0.07192456 0.7565849 0.08002084 0.7702625 0.4696184 0.7754498 0.465087 0.7754498 0.4696184 0.7702625 0.465087 0.7754498 0.4605553 0.7754498 0.465087 0.7702625 0.4741501 0.7754498 0.4696184 0.7754498 0.4741501 0.7173465 0.718204 0.7263663 0.6725346 0.7263663 0.718204 0.7173465 0.724923 0.7263663 0.7311952 0.7173465 0.7311952 0.7750813 0.179857 0.769894 0.1852883 0.769894 0.179857 0.7173465 0.724923 0.7263663 0.718204 0.7263663 0.724923 0.6563301 0.8775933 0.6653499 0.8713213 0.6653499 0.8775933 0.7607182 0.2092185 0.7659056 0.1628051 0.7659056 0.2092185 0.6653499 0.8713213 0.6563301 0.8646019 0.6653499 0.8646019 0.7750813 0.1852883 0.769894 0.1898198 0.769894 0.1852883 0.7607182 0.2254105 0.7659056 0.2173146 0.7659056 0.2254105 0.7607182 0.2173146 0.7659056 0.2092185 0.7659056 0.2173146 0.6490468 0.2885796 0.6407647 0.3023712 0.6407719 0.2885662 0.766274 0.5359497 0.7607181 0.5484448 0.7607181 0.5359497 0.7607181 0.573435 0.766274 0.5609399 0.766274 0.573435 0.7607181 0.5609399 0.766274 0.5484448 0.766274 0.5609399 0.6490395 0.3023815 0.6407622 0.3161761 0.6407647 0.3023712 0.649037 0.3161835 0.6407647 0.3299809 0.6407622 0.3161761 0.766274 0.4984644 0.7607181 0.5109595 0.7607181 0.4984644 0.6490986 0.2471738 0.6408016 0.2609565 0.6408238 0.2471516 0.5741909 0.3446485 0.5527125 0.3388934 0.5626806 0.3016917 0.7607181 0.5359497 0.766274 0.5234546 0.766274 0.5359497 0.7607181 0.5234546 0.766274 0.5109595 0.766274 0.5234546 0.6407719 0.2885662 0.649059 0.2747776 0.6490468 0.2885796 0.6407843 0.2747613 0.6490764 0.2609757 0.649059 0.2747776 0.6791347 0.3045449 0.6881546 0.3045449 0.6881546 0.310817 0.7615 0.8420954 0.7615 0.8375638 0.7666873 0.8375638 0.7011627 0.2982733 0.692143 0.2982733 0.692143 0.2920013 0.243936 0.9925816 0.2520324 0.9925816 0.2520324 0.9977689 0.7615 0.8466269 0.7615 0.8420954 0.7666873 0.8420954 0.2277433 0.9925816 0.2358397 0.9925816 0.2358397 0.9977689 0.692143 0.3045455 0.692143 0.2982733 0.7011627 0.2982733 0.692143 0.3170898 0.692143 0.3108175 0.7011628 0.3108175 0.6791346 0.3170891 0.6791346 0.310817 0.6881546 0.310817 0.6881546 0.3045449 0.6791347 0.3045449 0.6791347 0.2982727 0.2520324 0.9925816 0.2601288 0.9925816 0.2601288 0.9977689 0.7615 0.8330323 0.7615 0.8285007 0.7666873 0.8285007 0.7011628 0.3045455 0.7011628 0.3108175 0.692143 0.3108175 0.6791347 0.2920007 0.6881546 0.2920007 0.6881546 0.2982727 0.7615 0.8375638 0.7615 0.8330323 0.7666873 0.8330323 0.2358397 0.9925816 0.243936 0.9925816 0.243936 0.9977689 0.7697491 0.0567162 0.7697491 0.05218464 0.7749364 0.05218464 0.7423666 0.3934198 0.7423666 0.3853236 0.747554 0.3853236 0.7141709 0.4254076 0.7141708 0.4321268 0.7051511 0.4321268 0.6407623 0.6911002 0.6497822 0.6911002 0.6497822 0.6978194 0.6407623 0.6848281 0.6497822 0.6848281 0.6497822 0.6911002 0.7491073 0.5485862 0.7491073 0.5404901 0.7542947 0.5404901 0.7423666 0.4015159 0.7423666 0.3934198 0.747554 0.3934198 0.6873418 0.616158 0.6873418 0.6228773 0.678322 0.6228773 0.6873418 0.6098859 0.6873418 0.616158 0.678322 0.616158 0.6407623 0.6978194 0.6497822 0.6978194 0.6497822 0.743488 0.6757989 0.7249219 0.6757989 0.7311939 0.6667789 0.7311939 0.7697491 0.05218464 0.7697491 0.04675322 0.7749364 0.04675322 0.7423666 0.4479295 0.7423666 0.4015159 0.747554 0.4015159 0.6757989 0.7249219 0.6667789 0.7249219 0.6667789 0.718203 0.7141708 0.3797386 0.7141709 0.4254076 0.7051511 0.4254076 0.6757989 0.718203 0.6667789 0.718203 0.6667789 0.6725349 0.7051511 0.4321268 0.7141708 0.4321268 0.7141708 0.4383988 0.7491073 0.5404901 0.7491073 0.532394 0.7542947 0.532394 0.7186506 0.9759219 0.7132191 0.9759219 0.7132191 0.9707346 0.7132191 0.9759219 0.7086876 0.9759219 0.7086876 0.9707346 0.6523417 0.9026814 0.6433219 0.9026814 0.6433219 0.8964091 0.7083631 0.8901364 0.7083631 0.8838644 0.7173829 0.8838644 0.7575116 0.887948 0.7575116 0.896044 0.7523242 0.896044 0.7575116 0.871756 0.7575116 0.8798519 0.7523242 0.8798519 0.7083631 0.8901364 0.7173829 0.8901364 0.7173829 0.8964085 0.7698942 0.3274537 0.7698942 0.3229222 0.7750816 0.3229222 0.7575116 0.896044 0.7575116 0.9041401 0.7523242 0.9041401 0.6523417 0.8838648 0.6433219 0.8838648 0.6433219 0.8775925 0.7575116 0.8798519 0.7575116 0.887948 0.7523242 0.887948 0.7698942 0.3319854 0.7698942 0.3274537 0.7750816 0.3274537 0.7698942 0.3410482 0.7698942 0.3365167 0.7750816 0.3365167 0.6433219 0.890137 0.6433219 0.8838648 0.6523417 0.8838648 0.6523417 0.8964091 0.6433219 0.8964091 0.6433219 0.890137 0.7083631 0.9026805 0.7083631 0.8964085 0.7173829 0.8964085 0.7083631 0.8838644 0.7083631 0.8775924 0.7173829 0.8775924 0.7698942 0.3365167 0.7698942 0.3319854 0.7750816 0.3319854 0.3355122 0.9342162 0.3364036 0.9377333 0.3336806 0.9376425 0.7003499 0.5785253 0.6913303 0.5785253 0.6913303 0.5718061 0.6751462 0.2333406 0.6751462 0.2790096 0.6661265 0.2790096 0.6751462 0.2920011 0.6661263 0.2920011 0.6661263 0.2857288 0.7515424 0.4355772 0.7515424 0.4274809 0.7567297 0.4274809 0.7515424 0.4819919 0.7515424 0.4355772 0.7567297 0.4355772 0.7003499 0.5718061 0.6913303 0.5718061 0.6913303 0.5261365 0.6751462 0.2790096 0.6751462 0.2857288 0.6661263 0.2857288 0.7515424 0.4274809 0.7515424 0.4193847 0.7567297 0.4193847 0.7758632 0.7448838 0.7758632 0.750315 0.7706757 0.750315 0.7758632 0.7403522 0.7758632 0.7448838 0.7706757 0.7448838 0.6913303 0.5847974 0.6913303 0.5785253 0.7003499 0.5785253 0.3404814 0.1473264 0.3407747 0.1696766 0.3397734 0.169683 0.3397995 0.6589023 0.3400929 0.6365529 0.340801 0.6365576 0.3647016 0.2664095 0.3675725 0.265909 0.3615597 0.2678353 0.3675725 0.265909 0.4094803 0.2659088 0.3503918 0.2940589 0.4094803 0.2659088 0.4123511 0.2664095 0.415493 0.2678353 0.415493 0.2678353 0.4184276 0.2699691 0.4094803 0.2659088 0.4184276 0.2699691 0.4311938 0.2883169 0.4266608 0.2940589 0.4311938 0.2883169 0.4313114 0.2913345 0.4297195 0.2933507 0.4297195 0.2933507 0.4266608 0.2940589 0.4311938 0.2883169 0.4266608 0.2940589 0.3503918 0.2940589 0.4094803 0.2659088 0.3503918 0.2940589 0.347333 0.2933507 0.3458586 0.2883169 0.347333 0.2933507 0.345741 0.2913345 0.3458586 0.2883169 0.3458586 0.2883169 0.3476675 0.2847574 0.3503918 0.2940589 0.3476675 0.2847574 0.3563448 0.272486 0.3503918 0.2940589 0.3563448 0.272486 0.3586252 0.2699691 0.3675725 0.265909 0.3503918 0.2940589 0.3563448 0.272486 0.3675725 0.265909 0.3586252 0.2699691 0.3615597 0.2678353 0.3675725 0.265909 0.340497 0.9077992 0.3416209 0.9043492 0.3423284 0.9043728 0.6542379 0.4697589 0.6632578 0.4697589 0.6632578 0.4764778 0.7513976 0.06382822 0.7513976 0.05573189 0.7565849 0.05573189 0.7513976 0.05573189 0.7513976 0.04763561 0.7565849 0.04763561 0.6537706 0.6534678 0.6537706 0.6467487 0.6627905 0.6467487 0.6537706 0.6534678 0.6627905 0.6534678 0.6627905 0.6597397 0.6542379 0.4764778 0.6632578 0.4764778 0.6632578 0.5221467 0.6632578 0.4634868 0.6632578 0.4697589 0.6542379 0.4697589 0.7702625 0.484113 0.7702625 0.4786816 0.7754498 0.4786816 0.7702625 0.4786816 0.7702625 0.4741501 0.7754498 0.4741501 0.416013 0.3566893 0.3945268 0.3054246 0.5133334 0.3052679 0.5780866 0.1152861 0.7331558 0.1152861 0.7331557 0.118003 0.7331558 0.1152861 0.5780866 0.1152861 0.5780866 0.1119202 0.7331558 0.1119202 0.5780866 0.1119202 0.5780866 0.1090247 0.5479519 0.2700539 0.5508229 0.2695532 0.54481 0.2714797 0.5508229 0.2695532 0.5927305 0.2695534 0.5336424 0.2977033 0.5927305 0.2695534 0.5956016 0.2700539 0.5987434 0.2714797 0.5987434 0.2714797 0.601678 0.2736134 0.5927305 0.2695534 0.601678 0.2736134 0.6144441 0.2919612 0.6099112 0.2977033 0.6144441 0.2919612 0.6145617 0.2949786 0.6129699 0.2969949 0.6129699 0.2969949 0.6099112 0.2977033 0.6144441 0.2919612 0.6099112 0.2977033 0.5336424 0.2977033 0.5927305 0.2695534 0.5336424 0.2977033 0.5305835 0.2969949 0.5291093 0.2919612 0.5305835 0.2969949 0.5289917 0.2949786 0.5291093 0.2919612 0.5291093 0.2919612 0.5418756 0.2736134 0.5336424 0.2977033 0.5418756 0.2736134 0.54481 0.2714797 0.5508229 0.2695532 0.5508229 0.2695532 0.5336424 0.2977033 0.5418756 0.2736134 0.7331557 0.05825322 0.7331558 0.06097018 0.5780866 0.06097018 0.7331558 0.06097018 0.7331558 0.064336 0.5780866 0.064336 0.7239378 0.9348315 0.7239378 0.8210756 0.7265039 0.8211932 0.7265039 0.9347139 0.7265039 0.8211932 0.7290702 0.8196014 0.3287523 0.9234051 0.1734679 0.9234055 0.1734679 0.9201057 0.3297605 0.9201055 0.1734679 0.9201057 0.1734679 0.9168063 0.740637 0.8478178 0.740637 0.734063 0.7432034 0.7341806 0.1632211 0.9798932 0.2799263 0.9798931 0.2799263 0.9808945 0.5872924 0.8018412 0.5898587 0.8002493 0.589859 0.9169539 0.5847262 0.8017237 0.5872924 0.8018412 0.5872924 0.9153621 0.5847262 0.8017237 0.5847262 0.9154795 0.5821599 0.9172884 0.7457696 0.8492921 0.7457693 0.7325887 0.7483357 0.7295297 0.1632211 0.9798932 0.1648129 0.9773269 0.2783345 0.9773268 0.1646955 0.9747605 0.2784519 0.9747605 0.2783345 0.9773268 0.1628866 0.9721943 0.2802608 0.9721943 0.2784519 0.9747605 0.7239378 0.9348315 0.7213713 0.9366403 0.7213713 0.8192669 0.7457696 0.8492921 0.7432034 0.8477004 0.7432034 0.7341806 0.740637 0.8478178 0.7380706 0.8496267 0.7380706 0.7322542 0.1565051 0.4321985 0.1575132 0.4354982 0.001220703 0.4354981 0.1575132 0.4354982 0.1590219 0.438798 0.001220703 0.4387978 0.001220703 0.3845055 0.1565051 0.3845055 0.1561511 0.3873981 0.3283984 0.9262979 0.1734679 0.9262982 0.1734679 0.9234055 0.001220881 0.01360571 0.001220822 0.01071292 0.1590222 0.01071321 0.001220822 0.01071292 0.001220881 0.007413208 0.1575134 0.007413566 0.001220881 0.007413208 0.001220881 0.004113376 0.1565053 0.004113852 0.1565052 0.1704631 0.001220703 0.170463 0.001220703 0.1671633 0.1575132 0.1671635 0.001220703 0.1671633 0.001220703 0.1638635 0.159022 0.1638637 0.001220703 0.1638635 0.001220703 0.1609708 0.1561511 0.2152635 0.1565051 0.218156 0.001220703 0.2181562 0.001220703 0.3750134 0.1608017 0.3750135 0.1590219 0.3779061 0.001220703 0.3779062 0.1590219 0.3779061 0.1575132 0.3812058 0.001220703 0.381206 0.1575132 0.3812058 0.1565051 0.3845055 0.1565051 0.218156 0.1575132 0.221456 0.001220703 0.2214558 0.1575132 0.221456 0.159022 0.2247555 0.001220703 0.2247555 0.159022 0.2247555 0.1608018 0.2276483 0.001220703 0.2276483 0.1561511 0.1733558 0.001220703 0.1733558 0.001220703 0.170463 0.4921457 0.4824604 0.4784598 0.449669 0.4841143 0.4439827 0.3911057 0.4576369 0.4238948 0.4439284 0.4296033 0.4495916 0.4784598 0.449669 0.4921457 0.4824604 0.4160019 0.4823448 0.416013 0.3566893 0.4921463 0.3566768 0.478486 0.3894641 0.4841448 0.3951556 0.478486 0.3894641 0.4921463 0.3566768 0.5168766 0.3815323 0.5168343 0.4575761 0.4841143 0.4439827 0.3911057 0.4576369 0.4160019 0.4823448 0.3946745 0.5336621 0.5135009 0.5338274 0.3946745 0.5336621 0.4160019 0.4823448 0.3397734 0.4790177 0.3397734 0.3602178 0.3911542 0.381434 0.5681536 0.3600676 0.5681571 0.4788701 0.5168343 0.4575761 0.5133334 0.3052679 0.5681536 0.3600676 0.5168766 0.3815323 0.4921457 0.4824604 0.5168343 0.4575761 0.5681571 0.4788701 0.3911542 0.381434 0.416013 0.3566893 0.429642 0.3894376 0.4238948 0.4439284 0.3911057 0.4576369 0.3911542 0.381434 0.7173465 0.718204 0.7173465 0.6725346 0.7263663 0.6725346 0.7758632 0.7998338 0.7758632 0.8453639 0.7706757 0.8453639 0.7420737 0.1751602 0.7420736 0.1287465 0.7472611 0.1287465 0.7605733 0.0476343 0.7605733 0.001220703 0.7657607 0.001220703 0.7758632 0.8834148 0.7758632 0.9289448 0.7706757 0.9289448 0.5488794 0.2068793 0.5540668 0.2068793 0.5540668 0.2304581 0.7607182 0.2092185 0.7607182 0.1628051 0.7659056 0.1628051 0.7750813 0.2179086 0.7750813 0.2634405 0.769894 0.2634405 0.7615 0.9329332 0.785079 0.9329332 0.785079 0.966268 0.4843525 0.2572471 0.479165 0.2572471 0.479165 0.2336685 0.7043747 0.9156725 0.7043747 0.9613413 0.6953548 0.9613413 0.4720899 0.2848146 0.4669026 0.2848146 0.4669026 0.2612355 0.7675789 0.9850977 0.7220474 0.9850977 0.7220474 0.9799103 0.7750813 0.1343253 0.7750813 0.179857 0.769894 0.179857 0.6839953 0.9850977 0.6384625 0.9850977 0.6384625 0.9799103 0.7798513 0.5237458 0.8034302 0.5237458 0.8034302 0.5570806 0.6802545 0.4254072 0.6802545 0.3797388 0.6892745 0.3797388 0.7790697 0.1838484 0.7790697 0.1505137 0.8026487 0.1505137 0.8025038 0.109202 0.7789248 0.109202 0.7789248 0.07586717 0.63778 0.7808113 0.63778 0.7474763 0.6613588 0.7474763 0.8025038 0.001220703 0.8025038 0.03455549 0.7789248 0.03455549 0.3283984 0.9682055 0.1734679 0.9682059 0.1734679 0.9262982 0.1561511 0.2152635 0.001220703 0.2152634 0.001220703 0.1733558 0.1561509 0.4293058 0.001220703 0.4293059 0.001220703 0.3873982 0.6076967 0.5694425 0.6105676 0.5689418 0.6045547 0.5708683 0.6105676 0.5689418 0.6524753 0.5689418 0.669656 0.5970917 0.6524753 0.5689418 0.6553462 0.5694425 0.6584882 0.5708683 0.6584882 0.5708683 0.6614227 0.573002 0.6524753 0.5689418 0.6614227 0.573002 0.663703 0.5755187 0.6524753 0.5689418 0.663703 0.5755187 0.6723803 0.5877902 0.669656 0.5970917 0.6723803 0.5877902 0.6741893 0.5913497 0.669656 0.5970917 0.6741893 0.5913497 0.6743066 0.5943672 0.6727147 0.5963837 0.6727147 0.5963837 0.669656 0.5970917 0.6741893 0.5913497 0.669656 0.5970917 0.5933869 0.5970917 0.6105676 0.5689418 0.5933869 0.5970917 0.5903281 0.5963838 0.5888537 0.5913497 0.5903281 0.5963838 0.5887362 0.5943673 0.5888537 0.5913497 0.5888537 0.5913497 0.5906626 0.5877902 0.5933869 0.5970917 0.5906626 0.5877902 0.5993399 0.5755188 0.5933869 0.5970917 0.5993399 0.5755188 0.6016202 0.573002 0.6105676 0.5689418 0.5933869 0.5970917 0.5993399 0.5755188 0.6105676 0.5689418 0.6016202 0.573002 0.6045547 0.5708683 0.6105676 0.5689418 0.1561509 0.4293058 0.1565051 0.4321985 0.001220703 0.4321986 0.4841143 0.4439827 0.4784598 0.449669 0.4296033 0.4495916 0.4296033 0.4495916 0.4238948 0.4439284 0.4841143 0.4439827 0.4238948 0.4439284 0.4239466 0.3951042 0.4841143 0.4439827 0.4239466 0.3951042 0.429642 0.3894376 0.478486 0.3894641 0.478486 0.3894641 0.4841448 0.3951556 0.4841143 0.4439827 0.3911542 0.381434 0.3397734 0.3602178 0.3945268 0.3054246 0.7331558 0.1090247 0.5780866 0.1090247 0.5780866 0.06723159 0.7331558 0.064336 0.7331557 0.06723159 0.5780866 0.06723159 0.001220881 0.004113376 0.001220881 0.001220703 0.1561512 0.001220881 0.7290702 0.9363058 0.7290702 0.8196014 0.7316364 0.8165426 0.6091246 0.7144584 0.608624 0.7115874 0.6105504 0.7176004 0.608624 0.7115874 0.608624 0.6696798 0.6367739 0.7287681 0.608624 0.6696798 0.6091246 0.6668087 0.6105504 0.6636669 0.6105504 0.6636669 0.6126841 0.6607323 0.608624 0.6696798 0.6126841 0.6607323 0.615201 0.658452 0.608624 0.6696798 0.615201 0.658452 0.6274724 0.6497747 0.6367739 0.6524992 0.6274724 0.6497747 0.6310318 0.647966 0.6367739 0.6524992 0.6310318 0.647966 0.6340494 0.6478485 0.6360659 0.6494404 0.6360659 0.6494404 0.6367739 0.6524992 0.6310318 0.647966 0.6367739 0.6524992 0.6367739 0.7287681 0.608624 0.6696798 0.6367739 0.7287681 0.6360659 0.7318269 0.6310318 0.7333014 0.6360659 0.7318269 0.6340494 0.7334187 0.6310318 0.7333014 0.6310318 0.7333014 0.6126842 0.7205348 0.6367739 0.7287681 0.6126842 0.7205348 0.6105504 0.7176004 0.608624 0.7115874 0.608624 0.7115874 0.6367739 0.7287681 0.6126842 0.7205348 0.8880233 0.08566409 0.8888258 0.08566409 0.8885288 0.1316878 0.8888258 0.1326132 0.8885288 0.1316878 0.8897945 0.1341493 0.8885288 0.1316878 0.8888258 0.08566409 0.9018302 0.1442478 0.8888258 0.08566409 0.8892702 0.0847997 0.8897945 0.08412802 0.8897945 0.08412802 0.898523 0.07539945 0.9000591 0.07443076 0.898523 0.07539945 0.8991947 0.07487523 0.9000591 0.07443076 0.9000591 0.07443076 0.9460827 0.07413381 0.9586427 0.08743524 0.8897945 0.08412802 0.9000591 0.07443076 0.8888258 0.08566409 0.9460827 0.07413381 0.9470081 0.07443076 0.9485443 0.07539945 0.9470081 0.07443076 0.9478726 0.07487523 0.9485443 0.07539945 0.9485443 0.07539945 0.9572728 0.08412802 0.9586427 0.08743524 0.9460827 0.07413381 0.9485443 0.07539945 0.9586427 0.08743524 0.9572728 0.08412802 0.9577972 0.0847997 0.9582416 0.08566409 0.9582416 0.08566409 0.9585384 0.08658957 0.9586427 0.08743524 0.9586427 0.08743524 0.9586427 0.1308421 0.9452371 0.1442478 0.9586427 0.1308421 0.9585384 0.1316878 0.9582416 0.1326132 0.9452371 0.1442478 0.9586427 0.1308421 0.9485443 0.1428779 0.9582416 0.1326132 0.9577972 0.1334776 0.9572728 0.1341493 0.9586427 0.1308421 0.9582416 0.1326132 0.9572728 0.1341493 0.9572728 0.1341493 0.9485443 0.1428779 0.9586427 0.1308421 0.9485443 0.1428779 0.9478726 0.143402 0.9470081 0.1438465 0.9470081 0.1438465 0.9460827 0.1441435 0.9452371 0.1442478 0.9452371 0.1442478 0.9018302 0.1442478 0.9586427 0.08743524 0.9018302 0.1442478 0.9009845 0.1441435 0.9000591 0.1438465 0.9586427 0.08743524 0.9018302 0.1442478 0.9000591 0.07443076 0.9000591 0.1438465 0.8991947 0.143402 0.898523 0.1428779 0.898523 0.1428779 0.8897945 0.1341493 0.9018302 0.1442478 0.8897945 0.1341493 0.8892702 0.1334776 0.8888258 0.1326132 0.8885288 0.1316878 0.9018302 0.1442478 0.8897945 0.1341493 0.9018302 0.1442478 0.8888258 0.08566409 0.9000591 0.07443076 0.9572728 0.08412802 0.9582416 0.08566409 0.9586427 0.08743524 0.9485443 0.1428779 0.9470081 0.1438465 0.9452371 0.1442478 0.766274 0.573435 0.766274 0.5859302 0.7607181 0.5859302 0.6490395 0.3299854 0.6490468 0.3437874 0.6407719 0.3437858 0.5626806 0.3016917 0.5741909 0.3016917 0.5841591 0.3074468 0.5841591 0.3074468 0.5899142 0.317415 0.5626806 0.3016917 0.766274 0.5859302 0.766274 0.5984252 0.7607181 0.5984252 0.766274 0.5984252 0.766274 0.6109203 0.7607181 0.6109203 0.6408016 0.3713956 0.6407843 0.3575907 0.6490591 0.3575894 0.6407843 0.3575907 0.6407719 0.3437858 0.6490468 0.3437874 0.5217914 0.285149 0.5079865 0.285149 0.4960312 0.2782466 0.4960312 0.2782466 0.4891287 0.2662912 0.4891287 0.2524864 0.3639104 0.9715297 0.3639104 0.990807 0.338258 0.9971822 0.3639104 0.990807 0.3575352 0.9971822 0.338258 0.9971822 0.4994432 0.2891374 0.508459 0.2891374 0.508459 0.2990723 0.4452617 0.2756994 0.4452617 0.2949767 0.4353269 0.2949767 0.3493999 0.531014 0.3494109 0.5412222 0.3457139 0.5457434 0.3494109 0.5412222 0.3566369 0.5484325 0.352089 0.5521186 0.3591768 0.2095251 0.3519585 0.2167434 0.3417503 0.2167434 0.7442422 0.9281529 0.7356247 0.9281529 0.7356247 0.9179448 0.7442422 0.9383609 0.7356247 0.9383609 0.7356247 0.9281529 0.6797873 0.743738 0.6797873 0.737466 0.6888074 0.737466 0.6693383 0.8775922 0.6783581 0.8775922 0.6783581 0.8838643 0.6783581 0.9026806 0.6693383 0.9026806 0.6693383 0.8964086 0.6783581 0.8901364 0.6783581 0.8964086 0.6693383 0.8964086 0.7758629 0.593657 0.7758629 0.5981881 0.7706755 0.5981881 0.6797873 0.7562818 0.6797873 0.7500098 0.6888074 0.7500098 0.6783581 0.8901364 0.6693383 0.8901364 0.6693383 0.8838643 0.6888074 0.7500098 0.6797873 0.7500098 0.6797873 0.743738 0.7515423 0.2497027 0.7515423 0.2416065 0.7567297 0.2416065 0.7515423 0.2577988 0.7515423 0.2497027 0.7567297 0.2497027 0.7758629 0.5981881 0.7758629 0.6027196 0.7706755 0.6027196 0.7515423 0.2416065 0.7515424 0.2335106 0.7567297 0.2335106 0.7758629 0.6027196 0.7758629 0.6072512 0.7706755 0.6072512 0.7515424 0.2335106 0.7515424 0.2254143 0.7567297 0.2254143 0.7758629 0.5891256 0.7758629 0.593657 0.7706755 0.593657 0.6888074 0.7311942 0.6888074 0.737466 0.6797873 0.737466 0.7043383 0.6098862 0.7133581 0.6098862 0.7133581 0.6161583 0.7043383 0.6161583 0.7133581 0.6161583 0.7133581 0.6228774 0.7043383 0.6228774 0.7133581 0.6228774 0.7133581 0.6685464 0.7051513 0.3233623 0.7051512 0.3170903 0.7141711 0.3170903 0.7051513 0.3300815 0.7051513 0.3233623 0.7141711 0.3233623 0.7607182 0.3869941 0.7607182 0.378898 0.7659058 0.378898 0.716646 0.9942734 0.7121145 0.9942734 0.7121145 0.989086 0.7666872 0.7180521 0.7666872 0.7234837 0.7615 0.7234837 0.7666872 0.7135207 0.7666872 0.7180521 0.7615 0.7180521 0.7051512 0.3757503 0.7051513 0.3300815 0.7141711 0.3300815 0.7575114 0.6475651 0.7575114 0.6939795 0.7523242 0.6939795 0.6762661 0.4697586 0.6762661 0.4764776 0.6672462 0.4764776 0.6823466 0.9156716 0.6913664 0.9156716 0.6913664 0.9613412 0.6823466 0.9089526 0.6913664 0.9089526 0.6913664 0.9156716 0.6823466 0.9026804 0.6913664 0.9026804 0.6913664 0.9089526 0.6762661 0.4634864 0.6762661 0.4697586 0.6672462 0.4697586 0.7575114 0.7020758 0.7575114 0.7101719 0.7523242 0.7101719 0.7220773 0.9942734 0.716646 0.9942734 0.716646 0.989086 0.7575114 0.6939795 0.7575114 0.7020758 0.7523242 0.7020758 0.7607182 0.378898 0.7607182 0.3708022 0.7659058 0.3708022 0.5527125 0.3388934 0.5469573 0.3289253 0.5626806 0.3016917 0.5469573 0.3289253 0.5469573 0.317415 0.5626806 0.3016917 0.5469573 0.317415 0.5527125 0.3074468 0.5626806 0.3016917 0.766274 0.6109203 0.766274 0.6234154 0.7607181 0.6234154 0.6490764 0.3713912 0.6490986 0.3851932 0.6408238 0.3852005 0.7607181 0.4984644 0.7607181 0.4859693 0.766274 0.4859693 0.7607181 0.6359105 0.7607181 0.6234154 0.766274 0.6234154 0.6408238 0.2471516 0.6408507 0.2333467 0.6491256 0.233372 0.6408507 0.3990052 0.6408238 0.3852005 0.6490986 0.3851932 0.4891287 0.2524864 0.4960312 0.2405309 0.5079866 0.2336285 0.5079866 0.2336285 0.5217914 0.2336285 0.4891287 0.2524864 0.5217914 0.2336285 0.5337468 0.2405309 0.4891287 0.2524864 0.3575352 0.9651546 0.3639104 0.9715297 0.3639104 0.990807 0.4864391 0.2849185 0.4954549 0.2849185 0.4954549 0.2948534 0.2845834 0.972194 0.3038607 0.972194 0.3038607 0.9821289 0.7442422 0.8771126 0.7356247 0.8771126 0.7356247 0.8669046 0.3668184 0.523777 0.3566103 0.5237879 0.352089 0.520091 0.3566103 0.5237879 0.3493999 0.531014 0.3457139 0.5264661 0.3417503 0.2167434 0.3345323 0.2095251 0.3345323 0.199317 0.7442422 0.8669046 0.7356247 0.8669046 0.7356247 0.8566966 0.7615 0.8285007 0.7615 0.8239691 0.7666873 0.8239691 0.7011627 0.285729 0.7011627 0.2920013 0.692143 0.2920013 0.6881546 0.3233612 0.6791346 0.3233612 0.6791346 0.3170891 0.6791347 0.3300802 0.6791346 0.3233612 0.6881546 0.3233612 0.6791346 0.375749 0.6791347 0.3300802 0.6881546 0.3300802 0.1651353 0.9925816 0.2115506 0.9925816 0.2115506 0.9977689 0.2196469 0.9925816 0.2277433 0.9925816 0.2277433 0.9977689 0.7011627 0.285729 0.692143 0.285729 0.692143 0.2790099 0.7011628 0.2790099 0.692143 0.2790099 0.692143 0.2333406 0.7615 0.8239691 0.7615 0.8185376 0.7666873 0.8185376 0.2115506 0.9925816 0.2196469 0.9925816 0.2196469 0.9977689 0.6757989 0.7692729 0.6757989 0.8149414 0.6667789 0.8149414 0.7423666 0.3367461 0.7423666 0.2903312 0.747554 0.2903312 0.7697491 0.1303369 0.7697491 0.08480542 0.7749364 0.08480542 0.7697491 0.04675322 0.7697491 0.001220703 0.7749364 0.001220703 0.1605396 0.3866467 0.165727 0.3866467 0.165727 0.4102259 0.8026489 0.2958182 0.7790701 0.2958182 0.7790701 0.2624832 0.802649 0.2998065 0.802649 0.3331414 0.7790701 0.3331414 0.7513976 0.07192456 0.7513976 0.06382822 0.7565849 0.06382822 0.6537706 0.6660119 0.6627905 0.6660119 0.6627905 0.6722841 0.7702625 0.4605553 0.7702625 0.4560236 0.7754498 0.4560236 0.7513976 0.09621328 0.7513976 0.08811718 0.7565849 0.08811718 0.6627905 0.6722841 0.6627905 0.6785562 0.6537706 0.6785562 0.6537706 0.6597397 0.6627905 0.6597397 0.6627905 0.6660119 0.6632578 0.4383984 0.6632578 0.4446705 0.6542379 0.4446705 0.6632578 0.4509428 0.6632578 0.4572146 0.6542379 0.4572146 0.6537706 0.6785562 0.6627905 0.6785562 0.6627905 0.6848282 0.6632578 0.4509428 0.6542379 0.4509428 0.6542379 0.4446705 0.6632578 0.4572146 0.6632578 0.4634868 0.6542379 0.4634868 0.7513976 0.08811718 0.7513976 0.08002084 0.7565849 0.08002084 0.7513976 0.08002084 0.7513976 0.07192456 0.7565849 0.07192456 0.7702625 0.4696184 0.7702625 0.465087 0.7754498 0.465087 0.7702625 0.465087 0.7702625 0.4605553 0.7754498 0.4605553 0.7702625 0.4741501 0.7702625 0.4696184 0.7754498 0.4696184 0.7173465 0.724923 0.7263663 0.724923 0.7263663 0.7311952 0.7750813 0.179857 0.7750813 0.1852883 0.769894 0.1852883 0.7173465 0.724923 0.7173465 0.718204 0.7263663 0.718204 0.6653499 0.8646019 0.6563301 0.8646019 0.6563301 0.8189327 0.6563301 0.8775933 0.6563301 0.8713213 0.6653499 0.8713213 0.6653499 0.8713213 0.6563301 0.8713213 0.6563301 0.8646019 0.7750813 0.1852883 0.7750813 0.1898198 0.769894 0.1898198 0.7607182 0.2254105 0.7607182 0.2173146 0.7659056 0.2173146 0.7607182 0.2173146 0.7607182 0.2092185 0.7659056 0.2092185 0.6490468 0.2885796 0.6490395 0.3023815 0.6407647 0.3023712 0.5899142 0.3289253 0.5841591 0.3388934 0.5741909 0.3446485 0.5899142 0.317415 0.5899142 0.3289253 0.5626806 0.3016917 0.766274 0.5359497 0.766274 0.5484448 0.7607181 0.5484448 0.7607181 0.573435 0.7607181 0.5609399 0.766274 0.5609399 0.7607181 0.5609399 0.7607181 0.5484448 0.766274 0.5484448 0.6490395 0.3023815 0.649037 0.3161835 0.6407622 0.3161761 0.649037 0.3161835 0.6490395 0.3299854 0.6407647 0.3299809 0.5406492 0.2662912 0.5337468 0.2782466 0.5217914 0.285149 0.5337468 0.2405309 0.5406492 0.2662912 0.5217914 0.285149 0.5217914 0.285149 0.4960312 0.2782466 0.5337468 0.2405309 0.766274 0.4984644 0.766274 0.5109595 0.7607181 0.5109595 0.6490986 0.2471738 0.6490764 0.2609757 0.6408016 0.2609565 0.5741909 0.3446485 0.5626807 0.3446485 0.5527125 0.3388934 0.7607181 0.5359497 0.7607181 0.5234546 0.766274 0.5234546 0.7607181 0.5234546 0.7607181 0.5109595 0.766274 0.5109595 0.6407719 0.2885662 0.6407843 0.2747613 0.649059 0.2747776 0.6407843 0.2747613 0.6408016 0.2609565 0.6490764 0.2609757 0.5337468 0.2405309 0.5406492 0.2524864 0.5406492 0.2662912 0.5337468 0.2405309 0.5406492 0.2662912 0.4891287 0.2524864</float_array>
          <technique_common>
            <accessor source="#Cube_021-mesh-map-0-array" count="2028" stride="2">
              <param name="S" type="float" />
              <param name="T" type="float" />
            </accessor>
          </technique_common>
        </source>
        <vertices id="Cube_021-mesh-vertices">
          <input semantic="POSITION" source="#Cube_021-mesh-positions" />
        </vertices>
        <triangles material="DockCubes-material" count="676">
          <input semantic="VERTEX" source="#Cube_021-mesh-vertices" offset="0" />
          <input semantic="NORMAL" source="#Cube_021-mesh-normals" offset="1" />
          <input semantic="TEXCOORD" source="#Cube_021-mesh-map-0" offset="2" set="0" />
          <p>0 4 0 2 4 1 11 4 2 17 6 3 3 7 4 10 8 5 14 2 6 19 2 7 4 2 8 5 13 9 13 14 10 0 15 11 16 16 12 10 8 13 9 17 14 19 18 15 11 19 16 12 20 17 5 2 18 14 2 19 15 2 20 6 23 21 17 23 22 16 23 23 12 5 24 2 5 25 8 5 26 3 5 27 13 5 28 10 5 29 7 24 30 1 12 31 13 14 32 14 25 33 8 22 34 2 26 35 15 2 36 7 2 37 5 2 38 1 5 39 10 5 40 13 5 41 15 30 42 2 26 43 3 7 44 18 31 45 0 15 46 11 19 47 41 36 48 20 37 49 36 38 50 28 39 51 26 40 52 25 41 53 31 43 54 44 44 55 45 45 56 46 5 57 26 5 58 27 5 59 34 49 60 36 49 61 22 49 62 35 5 63 37 5 64 34 5 65 23 50 66 37 51 67 21 9 68 32 53 69 45 45 70 46 54 71 39 57 72 41 57 73 43 57 74 40 58 75 43 58 76 23 58 77 47 2 78 30 2 79 31 2 80 47 60 81 27 61 82 26 40 83 47 64 84 32 64 85 29 64 86 26 5 87 44 5 88 25 5 89 43 67 90 36 38 91 37 51 92 38 68 93 34 69 94 22 62 95 38 2 96 42 2 97 41 2 98 39 73 99 35 56 100 34 69 101 57 122 102 67 122 103 58 122 104 48 3 105 62 3 106 51 3 107 65 130 108 50 131 109 48 132 110 60 133 111 49 134 112 63 129 113 48 135 114 61 135 115 49 135 116 54 137 117 52 125 118 61 138 119 67 139 120 64 127 121 50 131 122 54 2 123 60 2 124 56 2 125 59 140 126 48 132 127 49 134 128 55 142 129 61 138 130 51 143 131 57 144 132 62 145 133 53 128 134 65 146 135 54 146 136 55 146 137 58 2 138 65 2 139 55 2 140 63 84 141 61 84 142 52 84 143 50 147 144 53 147 145 62 147 146 58 149 147 51 143 148 62 145 149 76 161 150 78 161 151 83 161 152 71 5 153 74 5 154 81 5 155 78 165 156 81 166 157 72 167 158 72 171 159 74 171 160 80 171 161 84 172 162 71 48 163 81 166 164 76 174 165 80 169 166 74 175 167 75 106 168 74 175 169 73 101 170 77 176 171 76 176 172 75 176 173 203 178 174 199 178 175 125 178 176 118 180 177 69 180 178 212 180 179 87 75 180 203 75 181 106 75 182 101 10 183 90 10 184 93 10 185 99 189 186 91 190 187 92 179 188 98 192 189 90 193 190 91 190 191 103 194 192 102 80 193 90 193 194 96 2 195 103 2 196 98 2 197 96 199 198 99 199 199 97 199 200 95 2 201 104 2 202 103 2 203 92 200 204 101 200 205 94 200 206 95 86 207 101 201 208 93 78 209 96 202 210 94 203 211 101 201 212 155 208 213 151 209 214 160 210 215 273 88 216 116 89 217 259 90 218 259 90 219 115 91 220 274 92 221 115 211 222 118 211 223 216 211 224 275 212 225 113 213 226 195 214 227 211 215 228 210 216 229 122 217 230 122 217 231 143 218 232 123 219 233 126 220 234 262 221 235 127 222 236 127 222 237 106 223 238 203 224 239 140 181 240 206 225 241 207 226 242 201 227 243 114 228 244 200 229 245 124 230 246 200 229 247 197 231 248 124 230 249 198 232 250 199 233 251 141 234 252 205 235 253 139 236 254 213 237 255 214 238 256 212 239 257 130 240 258 214 238 259 131 241 260 151 209 261 215 242 262 130 240 263 211 215 264 150 243 265 144 244 266 141 234 267 206 225 268 204 245 269 140 181 270 209 246 271 208 182 272 129 94 273 218 95 274 267 96 275 219 97 276 109 98 277 218 95 278 79 74 279 109 74 280 128 74 281 266 247 282 132 183 283 263 248 284 125 249 285 276 250 286 126 220 287 278 205 288 220 251 289 221 206 290 107 252 291 119 253 292 220 251 293 222 254 294 120 255 295 119 253 296 147 256 297 226 257 298 225 258 299 225 258 300 269 259 301 227 260 302 227 260 303 110 184 304 146 261 305 136 1 306 271 185 307 280 262 308 108 263 309 228 264 310 264 265 311 264 265 312 134 266 313 265 267 314 265 267 315 229 186 316 266 247 317 230 187 318 281 268 319 271 185 320 138 188 321 272 269 322 281 268 323 137 270 324 111 271 325 272 269 326 145 272 327 270 273 328 147 256 329 167 274 330 165 275 331 164 276 332 159 277 333 157 278 334 156 279 335 166 280 336 156 279 337 157 278 338 155 208 339 161 281 340 154 282 341 162 283 342 160 210 343 163 284 344 163 284 345 165 275 346 162 283 347 159 277 348 149 285 349 199 233 350 150 243 351 156 279 352 167 274 353 199 233 354 152 286 355 159 277 356 209 246 357 164 276 358 163 284 359 151 209 360 163 284 361 160 210 362 167 274 363 148 287 364 150 243 365 152 286 366 154 282 367 153 288 368 158 289 369 152 286 370 153 288 371 170 290 372 173 290 373 235 290 374 240 5 375 238 5 376 176 5 377 185 34 378 175 100 379 184 35 380 245 79 381 174 191 382 240 102 383 241 195 384 176 196 385 238 197 386 232 297 387 234 297 388 183 297 389 241 198 390 245 198 391 242 198 392 175 154 393 239 154 394 184 154 395 193 52 396 257 52 397 194 52 398 170 301 399 169 302 400 231 296 401 242 173 402 193 173 403 194 173 404 255 105 405 190 105 406 192 105 407 168 5 408 231 5 409 169 5 410 181 177 411 178 177 412 246 177 413 179 5 414 180 5 415 247 5 416 173 108 417 233 109 418 168 110 419 182 111 420 248 305 421 179 59 422 254 27 423 253 27 424 189 27 425 186 59 426 181 306 427 246 63 428 249 170 429 182 170 430 187 170 431 172 308 432 232 295 433 183 115 434 249 309 435 247 310 436 180 307 437 254 2 438 235 2 439 172 2 440 169 33 441 188 33 442 183 33 443 187 312 444 255 312 445 192 312 446 247 5 447 191 5 448 246 5 449 176 5 450 256 5 451 184 5 452 224 313 453 105 314 454 125 249 455 136 1 456 268 315 457 145 272 458 217 116 459 263 248 460 132 183 461 150 316 462 145 316 463 146 316 464 217 116 465 267 96 466 277 117 467 153 288 468 161 281 469 165 275 470 152 286 471 216 318 472 155 208 473 274 92 474 196 319 475 260 320 476 261 321 477 196 319 478 113 213 479 223 118 480 224 313 481 120 255 482 89 2 483 114 2 484 202 2 485 123 219 486 142 322 487 121 207 488 132 119 489 133 119 490 209 119 491 114 323 492 100 323 493 112 323 494 265 326 495 263 327 496 108 5 497 275 328 498 87 329 499 106 330 500 293 331 501 291 332 502 295 333 503 295 334 504 282 335 505 285 336 506 288 341 507 292 342 508 291 332 509 289 343 510 290 338 511 292 342 512 283 340 513 292 344 514 290 339 515 284 345 516 291 346 517 292 344 518 301 120 519 306 120 520 303 120 521 303 74 522 302 74 523 301 74 524 298 347 525 304 347 526 303 347 527 296 348 528 303 348 529 306 348 530 296 350 531 307 350 532 298 350 533 297 351 534 310 351 535 296 351 536 319 2 537 327 2 538 316 2 539 313 352 540 311 352 541 322 352 542 325 5 543 315 5 544 326 5 545 323 353 546 315 353 547 312 353 548 318 354 549 312 355 550 315 356 551 321 153 552 318 153 553 317 153 554 323 357 555 322 357 556 311 357 557 318 83 558 319 83 559 316 83 560 329 358 561 323 136 562 311 359 563 320 360 564 311 359 565 324 155 566 316 361 567 322 362 568 312 355 569 319 141 570 326 365 571 323 136 572 327 367 573 313 364 574 322 362 575 330 368 576 325 157 577 326 365 578 317 158 579 315 356 580 314 159 581 328 2 582 329 2 583 320 2 584 353 76 585 338 76 586 335 76 587 335 77 588 339 77 589 336 77 590 331 66 591 333 66 592 334 66 593 346 2 594 349 2 595 356 2 596 352 291 597 334 291 598 350 291 599 358 369 600 354 370 601 355 371 602 347 372 603 345 373 604 344 374 605 335 375 606 350 376 607 334 377 608 353 380 609 334 377 610 333 381 611 356 382 612 341 156 613 342 383 614 347 65 615 356 65 616 357 65 617 344 5 618 342 5 619 343 5 620 345 152 621 354 152 622 344 152 623 348 2 624 357 2 625 358 2 626 338 148 627 351 300 628 331 385 629 346 386 630 344 374 631 343 387 632 339 311 633 331 385 634 352 109 635 357 150 636 342 383 637 354 370 638 364 393 639 371 394 640 366 395 641 366 396 642 360 397 643 359 398 644 370 390 645 369 399 646 367 389 647 372 400 648 368 401 649 369 399 650 361 392 651 372 402 652 370 391 653 362 403 654 371 404 655 372 402 656 376 121 657 382 121 658 379 121 659 379 93 660 377 93 661 376 93 662 374 162 663 383 162 664 373 162 665 373 5 666 380 5 667 379 5 668 374 5 669 379 5 670 382 5 671 375 349 672 386 349 673 374 349 674 390 407 675 395 408 676 394 409 677 391 2 678 399 2 679 392 2 680 395 5 681 396 5 682 394 5 683 397 410 684 395 410 685 389 410 686 392 412 687 396 304 688 387 413 689 391 2 690 400 2 691 398 2 692 391 414 693 389 415 694 395 408 695 400 418 696 387 413 697 397 411 698 410 422 699 416 419 700 402 29 701 402 5 702 403 5 703 412 5 704 405 2 705 410 2 706 408 2 707 404 423 708 401 423 709 411 423 710 407 70 711 404 425 712 411 71 713 405 426 714 412 366 715 403 421 716 414 87 717 418 87 718 415 87 719 418 5 720 411 5 721 412 5 722 407 173 723 415 173 724 408 173 725 434 427 726 420 428 727 438 406 728 429 2 729 431 2 730 426 2 731 425 430 732 423 431 733 421 432 734 432 81 735 436 433 736 419 82 737 431 2 738 425 2 739 426 2 740 428 2 741 434 2 742 429 2 743 419 434 744 421 434 745 423 434 746 437 5 747 435 5 748 422 5 749 425 2 750 432 2 751 427 2 752 437 5 753 421 5 754 436 5 755 438 5 756 424 5 757 435 5 758 430 436 759 437 437 760 436 433 761 431 438 762 438 406 763 437 437 764 429 439 765 422 440 766 435 441 767 426 443 768 421 432 769 422 440 770 428 444 771 435 441 772 424 442 773 441 2 774 452 2 775 451 2 776 442 405 777 445 405 778 443 405 779 441 446 780 447 447 781 446 448 782 442 2 783 451 2 784 444 2 785 450 449 786 447 449 787 440 449 788 451 450 789 448 451 790 439 452 791 447 5 792 439 5 793 446 5 794 442 455 795 440 454 796 447 447 797 445 114 798 449 456 799 450 112 800 444 457 801 439 452 802 449 456 803 468 462 804 454 463 805 458 464 806 466 465 807 464 466 808 468 467 809 463 459 810 462 468 811 460 458 812 465 469 813 461 470 814 462 468 815 464 471 816 456 472 817 454 463 818 465 473 819 455 461 820 456 472 821 475 474 822 481 475 823 476 476 824 476 477 825 471 478 826 470 479 827 479 2 828 475 2 829 474 2 830 480 483 831 479 484 832 477 482 833 482 485 834 478 486 835 479 484 836 472 481 837 482 487 838 480 480 839 473 488 840 481 489 841 482 487 842 0 491 843 3 491 844 2 491 845 17 6 846 15 30 847 3 7 848 14 2 849 18 2 850 19 2 851 5 13 852 7 24 853 13 14 854 16 16 855 17 6 856 10 8 857 19 18 858 18 31 859 11 19 860 5 2 861 18 2 862 14 2 863 6 2 864 7 2 865 17 2 866 12 123 867 11 123 868 2 123 869 3 493 870 0 493 871 13 493 872 7 24 873 6 11 874 1 12 875 14 25 876 4 21 877 8 22 878 15 2 879 17 2 880 7 2 881 1 353 882 9 353 883 10 353 884 15 30 885 14 25 886 2 26 887 18 31 888 5 13 889 0 15 890 28 39 891 47 60 892 26 40 893 31 43 894 30 46 895 44 44 896 46 5 897 45 5 898 26 5 899 34 490 900 37 490 901 36 490 902 35 495 903 21 495 904 37 495 905 23 50 906 43 67 907 37 51 908 32 53 909 31 43 910 45 45 911 39 2 912 38 2 913 41 2 914 40 498 915 39 498 916 43 498 917 22 5 918 36 5 919 20 5 920 47 2 921 28 2 922 30 2 923 47 60 924 29 72 925 27 61 926 33 28 927 32 53 928 46 54 929 47 2 930 31 2 931 32 2 932 24 5 933 46 5 934 27 5 935 29 2 936 32 2 937 33 2 938 26 499 939 45 499 940 44 499 941 43 67 942 41 36 943 36 38 944 38 68 945 39 73 946 34 69 947 39 73 948 40 55 949 35 56 950 57 2 951 66 2 952 67 2 953 48 508 954 50 508 955 62 508 956 65 130 957 67 139 958 50 131 959 60 133 960 59 140 961 49 134 962 48 519 963 51 519 964 61 519 965 54 137 966 56 124 967 52 125 968 67 139 969 66 126 970 64 127 971 54 497 972 59 497 973 60 497 974 59 140 975 65 130 976 48 132 977 55 142 978 54 137 979 61 138 980 57 144 981 58 149 982 62 145 983 65 2 984 59 2 985 54 2 986 58 107 987 67 107 988 65 107 989 63 5 990 49 5 991 61 5 992 50 5 993 64 5 994 53 5 995 58 149 996 55 142 997 51 143 998 118 525 999 117 525 1000 68 525 1001 76 163 1002 84 163 1003 78 163 1004 82 527 1005 72 527 1006 80 527 1007 71 503 1008 73 503 1009 74 503 1010 78 165 1011 84 172 1012 81 166 1013 85 42 1014 78 165 1015 72 167 1016 83 2 1017 78 2 1018 85 2 1019 72 5 1020 81 5 1021 74 5 1022 84 172 1023 77 47 1024 71 48 1025 76 174 1026 83 168 1027 80 169 1028 75 106 1029 76 174 1030 74 175 1031 77 2 1032 84 2 1033 76 2 1034 128 529 1035 213 529 1036 70 529 1037 202 501 1038 203 501 1039 88 501 1040 120 531 1041 224 531 1042 119 531 1043 224 532 1044 125 532 1045 149 532 1046 125 502 1047 126 502 1048 127 502 1049 127 533 1050 203 533 1051 125 533 1052 203 534 1053 202 534 1054 199 534 1055 202 535 1056 201 535 1057 124 535 1058 124 536 1059 199 536 1060 202 536 1061 199 523 1062 149 523 1063 125 523 1064 149 537 1065 211 537 1066 123 537 1067 211 538 1068 122 538 1069 123 538 1070 123 539 1071 121 539 1072 149 539 1073 121 540 1074 221 540 1075 149 540 1076 221 541 1077 220 541 1078 224 541 1079 149 542 1080 221 542 1081 224 542 1082 220 543 1083 119 543 1084 224 543 1085 195 544 1086 112 544 1087 100 544 1088 101 520 1089 91 520 1090 90 520 1091 99 189 1092 98 192 1093 91 190 1094 98 192 1095 103 194 1096 90 193 1097 96 2 1098 95 2 1099 103 2 1100 96 545 1101 98 545 1102 99 545 1103 93 5 1104 90 5 1105 102 5 1106 92 123 1107 91 123 1108 101 123 1109 95 86 1110 96 202 1111 101 201 1112 96 202 1113 97 204 1114 94 203 1115 155 208 1116 216 318 1117 151 209 1118 117 0 1119 273 0 1120 258 0 1121 273 88 1122 117 505 1123 116 89 1124 259 90 1125 116 89 1126 115 91 1127 113 506 1128 196 506 1129 195 506 1130 196 549 1131 115 549 1132 198 549 1133 115 550 1134 116 550 1135 117 550 1136 117 551 1137 118 551 1138 115 551 1139 118 552 1140 212 552 1141 216 552 1142 212 553 1143 214 553 1144 215 553 1145 215 554 1146 216 554 1147 212 554 1148 216 555 1149 198 555 1150 115 555 1151 198 556 1152 197 556 1153 114 556 1154 197 557 1155 200 557 1156 114 557 1157 114 558 1158 112 558 1159 198 558 1160 112 559 1161 195 559 1162 196 559 1163 196 560 1164 198 560 1165 112 560 1166 86 93 1167 275 93 1168 195 93 1169 275 212 1170 261 321 1171 113 213 1172 211 215 1173 144 244 1174 210 216 1175 122 217 1176 210 216 1177 143 218 1178 126 220 1179 276 250 1180 262 221 1181 127 222 1182 262 221 1183 106 223 1184 140 181 1185 208 182 1186 206 225 1187 213 2 1188 212 2 1189 69 2 1190 201 227 1191 202 561 1192 114 228 1193 124 230 1194 201 227 1195 200 229 1196 124 230 1197 197 231 1198 198 232 1199 141 234 1200 204 245 1201 205 235 1202 213 237 1203 131 241 1204 214 238 1205 130 240 1206 215 242 1207 214 238 1208 151 209 1209 216 318 1210 215 242 1211 211 215 1212 149 285 1213 150 243 1214 141 234 1215 207 226 1216 206 225 1217 140 181 1218 148 287 1219 209 246 1220 129 94 1221 219 97 1222 218 95 1223 219 97 1224 128 507 1225 109 98 1226 266 247 1227 229 186 1228 132 183 1229 125 249 1230 105 314 1231 276 250 1232 278 205 1233 107 252 1234 220 251 1235 107 252 1236 222 254 1237 119 253 1238 222 254 1239 223 118 1240 120 255 1241 147 256 1242 270 273 1243 226 257 1244 225 258 1245 226 257 1246 269 259 1247 227 260 1248 269 259 1249 110 184 1250 136 1 1251 230 187 1252 271 185 1253 108 263 1254 133 562 1255 228 264 1256 264 265 1257 228 264 1258 134 266 1259 265 267 1260 134 266 1261 229 186 1262 230 187 1263 138 188 1264 281 268 1265 138 188 1266 137 270 1267 272 269 1268 137 270 1269 135 317 1270 111 271 1271 145 272 1272 268 315 1273 270 273 1274 167 274 1275 166 280 1276 165 275 1277 159 277 1278 158 289 1279 157 278 1280 166 280 1281 167 274 1282 156 279 1283 155 208 1284 160 210 1285 161 281 1286 162 283 1287 161 281 1288 160 210 1289 163 284 1290 164 276 1291 165 275 1292 159 277 1293 156 279 1294 149 285 1295 150 243 1296 149 285 1297 156 279 1298 199 233 1299 198 232 1300 152 286 1301 209 246 1302 148 287 1303 164 276 1304 151 209 1305 209 246 1306 163 284 1307 167 274 1308 164 276 1309 148 287 1310 152 286 1311 155 208 1312 154 282 1313 158 289 1314 159 277 1315 152 286 1316 171 563 1317 172 563 1318 237 563 1319 185 34 1320 177 113 1321 175 100 1322 251 292 1323 252 37 1324 178 37 1325 243 293 1326 244 509 1327 239 103 1328 241 195 1329 242 504 1330 176 196 1331 193 496 1332 256 496 1333 257 496 1334 236 298 1335 237 104 1336 234 299 1337 170 301 1338 235 564 1339 169 302 1340 242 2 1341 185 2 1342 193 2 1343 255 492 1344 191 492 1345 190 492 1346 177 521 1347 185 521 1348 244 521 1349 254 566 1350 188 566 1351 253 566 1352 186 59 1353 250 68 1354 181 306 1355 172 308 1356 171 294 1357 232 295 1358 249 309 1359 187 500 1360 247 310 1361 254 567 1362 189 567 1363 235 567 1364 250 2 1365 186 2 1366 252 2 1367 169 547 1368 253 547 1369 188 547 1370 187 568 1371 186 568 1372 255 568 1373 247 5 1374 190 5 1375 191 5 1376 176 5 1377 257 5 1378 256 5 1379 224 313 1380 279 548 1381 105 314 1382 136 1 1383 280 262 1384 268 315 1385 217 116 1386 277 117 1387 263 248 1388 230 526 1389 136 526 1390 138 526 1391 136 569 1392 145 569 1393 150 569 1394 145 570 1395 147 570 1396 225 570 1397 225 571 1398 227 571 1399 145 571 1400 227 572 1401 146 572 1402 145 572 1403 146 573 1404 142 573 1405 150 573 1406 142 574 1407 143 574 1408 150 574 1409 143 575 1410 210 575 1411 144 575 1412 144 576 1413 150 576 1414 143 576 1415 150 577 1416 148 577 1417 136 577 1418 148 578 1419 140 578 1420 141 578 1421 140 579 1422 207 579 1423 141 579 1424 141 580 1425 139 580 1426 148 580 1427 139 581 1428 135 581 1429 148 581 1430 135 582 1431 137 582 1432 136 582 1433 148 583 1434 135 583 1435 136 583 1436 137 494 1437 138 494 1438 136 494 1439 217 116 1440 129 94 1441 267 96 1442 165 275 1443 166 280 1444 157 278 1445 157 278 1446 158 289 1447 165 275 1448 158 289 1449 153 288 1450 165 275 1451 153 288 1452 154 282 1453 161 281 1454 161 281 1455 162 283 1456 165 275 1457 152 286 1458 198 232 1459 216 318 1460 274 92 1461 115 91 1462 196 319 1463 261 321 1464 260 320 1465 196 319 1466 223 118 1467 279 548 1468 224 313 1469 123 219 1470 143 218 1471 142 322 1472 129 530 1473 217 530 1474 219 530 1475 217 584 1476 132 584 1477 151 584 1478 132 585 1479 229 585 1480 134 585 1481 134 510 1482 228 510 1483 132 510 1484 228 586 1485 133 586 1486 132 586 1487 133 587 1488 205 587 1489 209 587 1490 205 588 1491 204 588 1492 209 588 1493 204 589 1494 206 589 1495 208 589 1496 208 590 1497 209 590 1498 204 590 1499 209 591 1500 151 591 1501 132 591 1502 151 592 1503 130 592 1504 213 592 1505 130 593 1506 131 593 1507 213 593 1508 213 594 1509 128 594 1510 151 594 1511 128 511 1512 219 511 1513 217 511 1514 217 595 1515 151 595 1516 128 595 1517 258 324 1518 273 5 1519 109 325 1520 218 598 1521 109 325 1522 277 599 1523 109 325 1524 273 5 1525 108 5 1526 273 5 1527 259 5 1528 274 600 1529 274 600 1530 260 601 1531 275 328 1532 260 601 1533 261 518 1534 275 328 1535 275 328 1536 106 330 1537 278 602 1538 274 600 1539 275 328 1540 273 5 1541 106 330 1542 262 603 1543 105 604 1544 262 603 1545 276 515 1546 105 604 1547 105 604 1548 279 605 1549 278 602 1550 106 330 1551 105 604 1552 278 602 1553 279 605 1554 223 517 1555 222 606 1556 222 606 1557 107 607 1558 278 602 1559 278 602 1560 110 608 1561 111 609 1562 110 608 1563 269 513 1564 226 610 1565 111 609 1566 110 608 1567 280 611 1568 226 610 1569 270 516 1570 268 612 1571 110 608 1572 226 610 1573 268 612 1574 268 612 1575 280 611 1576 110 608 1577 280 611 1578 271 514 1579 281 613 1580 281 613 1581 272 614 1582 111 609 1583 111 609 1584 108 5 1585 278 602 1586 108 5 1587 264 5 1588 265 326 1589 278 602 1590 108 5 1591 275 328 1592 265 326 1593 266 597 1594 263 327 1595 263 327 1596 277 599 1597 108 5 1598 277 599 1599 267 5 1600 218 598 1601 109 325 1602 108 5 1603 277 599 1604 108 5 1605 273 5 1606 275 328 1607 279 605 1608 222 606 1609 278 602 1610 280 611 1611 281 613 1612 111 609 1613 293 331 1614 288 341 1615 291 332 1616 295 334 1617 291 346 1618 282 335 1619 289 616 1620 288 616 1621 293 616 1622 293 617 1623 294 617 1624 289 617 1625 288 341 1626 289 343 1627 292 342 1628 289 343 1629 287 337 1630 290 338 1631 283 340 1632 284 345 1633 292 344 1634 284 345 1635 282 335 1636 291 346 1637 286 618 1638 285 618 1639 282 618 1640 282 619 1641 284 619 1642 283 619 1643 299 2 1644 300 2 1645 302 2 1646 300 2 1647 301 2 1648 302 2 1649 301 120 1650 300 120 1651 306 120 1652 305 93 1653 306 93 1654 300 93 1655 297 620 1656 296 620 1657 306 620 1658 296 621 1659 298 621 1660 303 621 1661 307 622 1662 310 622 1663 309 622 1664 298 623 1665 307 623 1666 308 623 1667 296 512 1668 310 512 1669 307 512 1670 319 2 1671 329 2 1672 327 2 1673 313 5 1674 324 5 1675 311 5 1676 325 624 1677 314 624 1678 315 624 1679 323 388 1680 326 388 1681 315 388 1682 318 354 1683 316 361 1684 312 355 1685 321 2 1686 330 2 1687 318 2 1688 323 625 1689 312 625 1690 322 625 1691 318 2 1692 330 2 1693 319 2 1694 329 358 1695 319 141 1696 323 136 1697 320 360 1698 329 358 1699 311 359 1700 316 361 1701 327 367 1702 322 362 1703 319 141 1704 330 368 1705 326 365 1706 327 367 1707 328 363 1708 313 364 1709 330 368 1710 321 160 1711 325 157 1712 317 158 1713 318 354 1714 315 356 1715 328 626 1716 327 626 1717 329 626 1718 353 2 1719 337 2 1720 338 2 1721 335 163 1722 338 163 1723 339 163 1724 336 2 1725 339 2 1726 340 2 1727 331 5 1728 351 5 1729 333 5 1730 352 5 1731 331 5 1732 334 5 1733 358 369 1734 357 150 1735 354 370 1736 347 372 1737 348 384 1738 345 373 1739 335 375 1740 336 379 1741 350 376 1742 353 380 1743 335 375 1744 334 377 1745 332 565 1746 352 565 1747 350 565 1748 340 108 1749 339 311 1750 352 109 1751 347 2 1752 346 2 1753 356 2 1754 343 546 1755 342 546 1756 341 546 1757 344 5 1758 354 5 1759 342 5 1760 345 5 1761 355 5 1762 354 5 1763 348 524 1764 347 524 1765 357 524 1766 338 148 1767 337 378 1768 351 300 1769 346 386 1770 347 372 1771 344 374 1772 339 311 1773 338 148 1774 331 385 1775 357 150 1776 356 382 1777 342 383 1778 367 627 1779 369 627 1780 365 627 1781 369 615 1782 368 615 1783 365 615 1784 368 2 1785 364 2 1786 365 2 1787 364 393 1788 368 401 1789 371 394 1790 366 396 1791 371 404 1792 360 397 1793 370 390 1794 372 400 1795 369 399 1796 372 400 1797 371 394 1798 368 401 1799 361 392 1800 362 403 1801 372 402 1802 362 403 1803 360 397 1804 371 404 1805 359 628 1806 360 628 1807 362 628 1808 362 596 1809 361 596 1810 359 596 1811 361 629 1812 363 629 1813 359 629 1814 378 2 1815 376 2 1816 377 2 1817 376 121 1818 378 121 1819 382 121 1820 381 0 1821 382 0 1822 378 0 1823 374 162 1824 386 162 1825 383 162 1826 375 630 1827 374 630 1828 382 630 1829 374 5 1830 373 5 1831 379 5 1832 383 631 1833 386 631 1834 385 631 1835 373 632 1836 383 632 1837 384 632 1838 390 407 1839 391 414 1840 395 408 1841 391 2 1842 390 2 1843 399 2 1844 395 5 1845 387 5 1846 396 5 1847 397 99 1848 387 99 1849 395 99 1850 388 633 1851 397 633 1852 389 633 1853 393 164 1854 400 418 1855 397 411 1856 392 412 1857 399 303 1858 396 304 1859 391 2 1860 392 2 1861 400 2 1862 398 2 1863 400 2 1864 393 2 1865 391 414 1866 398 416 1867 389 415 1868 400 418 1869 392 412 1870 387 413 1871 406 2 1872 407 2 1873 409 2 1874 417 420 1875 409 151 1876 401 85 1877 407 70 1878 406 424 1879 404 425 1880 405 426 1881 408 366 1882 412 366 1883 414 32 1884 413 32 1885 418 32 1886 418 5 1887 413 5 1888 411 5 1889 407 417 1890 414 417 1891 415 417 1892 434 427 1893 433 429 1894 420 428 1895 429 2 1896 434 2 1897 431 2 1898 425 430 1899 427 435 1900 423 431 1901 432 81 1902 430 436 1903 436 433 1904 431 634 1905 430 634 1906 425 634 1907 428 2 1908 433 2 1909 434 2 1910 419 5 1911 436 5 1912 421 5 1913 437 490 1914 438 490 1915 435 490 1916 425 528 1917 430 528 1918 432 528 1919 437 445 1920 422 445 1921 421 445 1922 438 635 1923 420 635 1924 424 635 1925 430 436 1926 431 438 1927 437 437 1928 431 438 1929 434 427 1930 438 406 1931 429 439 1932 426 443 1933 422 440 1934 426 443 1935 425 430 1936 421 432 1937 428 444 1938 429 439 1939 435 441 1940 442 636 1941 444 636 1942 445 636 1943 441 446 1944 442 455 1945 447 447 1946 442 2 1947 441 2 1948 451 2 1949 446 522 1950 439 522 1951 448 522 1952 450 5 1953 449 5 1954 447 5 1955 447 5 1956 449 5 1957 439 5 1958 442 455 1959 443 453 1960 440 454 1961 445 114 1962 444 457 1963 449 456 1964 444 457 1965 451 450 1966 439 452 1967 468 462 1968 464 471 1969 454 463 1970 461 2 1971 466 2 1972 467 2 1973 462 2 1974 461 2 1975 459 2 1976 466 465 1977 461 470 1978 464 466 1979 463 459 1980 465 469 1981 462 468 1982 465 469 1983 464 466 1984 461 470 1985 464 471 1986 465 473 1987 456 472 1988 465 473 1989 463 460 1990 455 461 1991 458 5 1992 454 5 1993 456 5 1994 457 5 1995 458 5 1996 456 5 1997 456 5 1998 453 5 1999 457 5 2000 475 474 2001 478 486 2002 481 475 2003 476 477 2004 481 489 2005 471 478 2006 479 637 2007 478 637 2008 475 637 2009 480 483 2010 482 485 2011 479 484 2012 482 485 2013 481 475 2014 478 486 2015 472 481 2016 473 488 2017 482 487 2018 473 488 2019 471 478 2020 481 489 2021 471 638 2022 473 638 2023 472 638 2024 471 5 2025 472 5 2026 469 5 2027</p>
        </triangles>
      </mesh>
    </geometry>
  </library_geometries>
  <library_visual_scenes>
    <visual_scene id="Scene" name="Scene">
      <node id="DocckCube_4x4" name="DocckCube.4x4" type="NODE">
        <matrix sid="transform">1 0 0 0 0 1 0 6.96629e-8 0 0 1 -5.96046e-8 0 0 0 1</matrix>
        <instance_geometry url="#Cube_021-mesh" name="DocckCube.4x4">
          <bind_material>
            <technique_common>
              <instance_material symbol="DockCubes-material" target="#DockCubes-material">
                <bind_vertex_input semantic="Cube_021-mesh-map-0" input_semantic="TEXCOORD" input_set="0" />
                </instance_material>
            </technique_common>
          </bind_material>
        </instance_geometry>
      </node>
    </visual_scene>
  </library_visual_scenes>
  <scene>
    <instance_visual_scene url="#Scene" />
  </scene>
</COLLADA>
