v -0.3885 -0.3738 0.0000
v -0.1032 -0.1581 1.5071
v 0.5793 0.3811 1.2076
v -0.7045 0.2769 0.9243
v 0.1735 0.4837 1.2452
v 0.6203 0.2716 0.0000
v -0.8662 0.3998 0.4277
v -0.8703 -0.1127 0.7186
v 0.9576 -0.1318 0.2277
v 0.3854 0.7115 0.8240
v -0.5641 -0.0152 0.0000
v -1.0000 0.2497 0.5274
v -0.2333 -0.6744 0.0265
v 1.0000 -0.2196 0.7741
v -0.2056 -0.7115 0.0913
v 0.5954 -0.5343 1.1367
v -0.5129 0.6739 0.8443
v 0.4171 0.0586 1.4721
v -0.5873 0.1672 0.0000
v 0.4697 -0.5310 1.2552
v 0.9964 0.2128 0.5371
vn -0.0475 0.8755 -0.4809
vn 0.7251 -0.1608 0.6696
vn 0.5249 0.8039 -0.2795
vn -0.7290 0.4549 0.5115
vn -0.4797 0.3899 0.7860
vn 0.1968 -0.3230 0.9257
vn 0.6690 -0.2033 0.7149
vn -0.3408 0.4774 0.8099
vn -0.1127 0.4167 0.9020
vn -0.0265 0.8849 0.4651
vn 0.9958 -0.0374 -0.0834
vn 0.7805 0.3666 -0.5063
vn 0.2830 -0.2811 -0.9170
vn 0.5017 -0.8471 -0.1752
vn 0.6799 0.6894 0.2499
vn 0.2518 0.7927 0.5552
vn 0.2143 0.5526 0.8054
vn 0.7838 0.1074 0.6117
vn 0.8478 0.2603 0.4620
vn -0.0712 0.8600 -0.5054
vn -0.0739 0.8551 -0.5132
vn -0.6972 0.7056 0.1271
vn -0.7432 0.2501 -0.6206
vn 0.0423 -0.0661 -0.9969
vn -0.8004 -0.4482 -0.3982
vn -0.8050 -0.4754 -0.3550
vn -0.8027 0.0268 0.5957
vn -0.7172 -0.0615 0.6941
vn 0.4557 -0.8668 -0.2023
vn 0.4170 -0.7005 -0.5792
vn 0.0769 -0.9911 0.1091
vn -0.7133 -0.6947 -0.0927
vn -0.3929 -0.8465 0.3593
vn -0.4164 -0.8362 0.3570
vn -0.7912 -0.1010 -0.6032
vn -0.7963 -0.3899 -0.4624
vn -0.0000 0.0000 -1.0000
vn -0.0000 0.0000 -1.0000
f 17//1 10//1 6//1
f 18//2 16//2 14//2
f 21//3 6//3 10//3
f 4//4 17//4 12//4
f 4//5 2//5 17//5
f 20//6 18//6 2//6
f 20//7 16//7 18//7
f 5//8 17//8 2//8
f 5//9 2//9 18//9
f 5//10 10//10 17//10
f 9//11 21//11 14//11
f 9//12 6//12 21//12
f 9//13 13//13 6//13
f 9//14 14//14 16//14
f 3//15 21//15 10//15
f 3//16 10//16 5//16
f 3//17 5//17 18//17
f 3//18 18//18 14//18
f 3//19 14//19 21//19
f 7//20 17//20 6//20
f 7//21 6//21 19//21
f 7//22 12//22 17//22
f 7//23 19//23 12//23
f 1//24 6//24 13//24
f 1//25 13//25 12//25
f 8//26 12//26 13//26
f 8//27 4//27 12//27
f 8//28 2//28 4//28
f 15//29 9//29 16//29
f 15//30 13//30 9//30
f 15//31 16//31 20//31
f 15//32 8//32 13//32
f 15//33 20//33 2//33
f 15//34 2//34 8//34
f 11//35 12//35 19//35
f 11//36 1//36 12//36
f 11//37 6//37 1//37
f 11//38 19//38 6//38
