v -0.7578 0.3337 0.0852
v 0.9101 0.5516 0.3299
v -0.9021 -0.4170 0.5117
v 0.7750 -0.5548 1.0415
v -1.0000 0.3633 0.5323
v 0.2424 -0.1270 1.6200
v 0.1557 0.4876 0.0000
v -0.5729 -0.6072 0.9557
v -0.6930 0.6390 0.5917
v 1.0000 -0.5833 0.7036
v 0.7672 -0.6390 0.3053
v 0.7259 0.3771 0.8032
v -0.2295 0.5236 1.1241
v 0.8891 -0.3498 0.9444
v 0.5697 0.4446 0.1141
vn -0.6212 0.1376 0.7715
vn -0.8777 -0.0978 -0.4691
vn -0.0418 -0.2824 -0.9584
vn -0.1691 -0.4621 -0.8706
vn -0.1610 -0.9448 -0.2854
vn -0.6474 0.0469 0.7607
vn -0.8212 -0.1178 0.5584
vn -0.5861 0.5184 0.6227
vn -0.5825 0.7270 -0.3637
vn -0.1891 0.8515 -0.4891
vn 0.8652 -0.0937 -0.4926
vn 0.0162 0.9740 -0.2260
vn 0.0777 0.9862 0.1462
vn -0.0063 -0.8068 0.5908
vn 0.0440 -0.9926 0.1131
vn 0.0314 -0.9931 0.1133
vn 0.2517 -0.1235 -0.9599
vn 0.2668 0.6273 -0.7317
vn 0.5455 -0.0482 -0.8367
vn 0.7104 -0.0635 0.7009
vn 0.9469 0.1657 0.2755
vn 0.8101 -0.1879 0.5554
vn 0.7377 0.2846 0.6122
vn 0.8565 0.2770 0.4356
vn 0.3197 0.7101 0.6274
vn 0.2751 0.8624 0.4251
f 13//1 5//1 6//1
f 1//2 3//2 5//2
f 11//3 1//3 7//3
f 11//4 3//4 1//4
f 8//5 3//5 11//5
f 8//6 6//6 5//6
f 8//7 5//7 3//7
f 9//8 5//8 13//8
f 9//9 1//9 5//9
f 9//10 7//10 1//10
f 2//11 10//11 11//11
f 2//12 7//12 9//12
f 2//13 9//13 13//13
f 4//14 6//14 8//14
f 4//15 11//15 10//15
f 4//16 8//16 11//16
f 15//17 11//17 7//17
f 15//18 7//18 2//18
f 15//19 2//19 11//19
f 14//20 6//20 4//20
f 14//21 10//21 2//21
f 14//22 4//22 10//22
f 12//23 6//23 14//23
f 12//24 14//24 2//24
f 12//25 13//25 6//25
f 12//26 2//26 13//26
