v -0.4113 0.3275 1.4509
v -1.0000 -0.1251 0.4850
v 0.2009 -0.2947 1.8445
v -0.0176 -0.1820 0.0000
v -0.8708 0.4010 0.7098
v -0.9044 0.5691 0.1044
v -0.3865 0.6894 1.2639
v -0.4816 -0.1647 0.0000
v 0.7641 0.9220 0.0471
v 1.0000 0.7557 0.4220
v 0.5005 -0.9220 0.3251
v 0.1846 0.1110 1.7943
v 0.2928 0.3973 0.0000
v -0.0136 -0.2117 1.7373
v -0.2404 0.2058 1.6537
v 0.5057 -0.8684 1.0760
v 0.7672 -0.0700 1.1136
vn -0.4592 -0.7789 -0.4272
vn -0.4625 -0.8842 0.0663
vn 0.2923 0.7869 0.5434
vn 0.7867 -0.2005 -0.5839
vn 0.1498 0.9353 0.3205
vn 0.7980 -0.2863 0.5303
vn 0.7656 0.2723 0.5828
vn 0.7694 0.1087 0.6295
vn 0.9586 -0.2844 -0.0169
vn 0.9500 -0.3118 0.0156
vn -0.5225 -0.7738 0.3581
vn -0.4944 -0.7791 0.3854
vn -0.5612 0.4101 0.7190
vn -0.1279 0.5987 0.7907
vn -0.8021 -0.1750 0.5709
vn -0.7600 -0.2971 0.5781
vn -0.2909 0.1061 0.9509
vn -0.4703 -0.0795 0.8789
vn -0.0154 -0.4112 -0.9114
vn 0.3182 -0.1856 -0.9297
vn -0.2072 0.9783 -0.0090
vn -0.6662 -0.2859 -0.6888
vn -0.0000 -0.0000 -1.0000
vn 0.2385 -0.1278 -0.9627
vn -0.0723 0.0996 -0.9924
vn -0.0650 0.1470 -0.9870
vn -0.9752 0.1934 0.1078
vn -0.6792 0.6966 0.2311
vn -0.8505 -0.0158 0.5258
vn -0.7894 0.3237 0.5216
f 8//1 11//1 2//1
f 16//2 2//2 11//2
f 12//3 10//3 7//3
f 9//4 10//4 11//4
f 9//5 7//5 10//5
f 17//6 3//6 16//6
f 17//7 10//7 12//7
f 17//8 12//8 3//8
f 17//9 11//9 10//9
f 17//10 16//10 11//10
f 14//11 2//11 16//11
f 14//12 16//12 3//12
f 15//13 7//13 1//13
f 15//14 12//14 7//14
f 15//15 1//15 2//15
f 15//16 2//16 14//16
f 15//17 3//17 12//17
f 15//18 14//18 3//18
f 4//19 11//19 8//19
f 4//20 9//20 11//20
f 6//21 7//21 9//21
f 6//22 8//22 2//22
f 13//23 4//23 8//23
f 13//24 9//24 4//24
f 13//25 8//25 6//25
f 13//26 6//26 9//26
f 5//27 6//27 2//27
f 5//28 7//28 6//28
f 5//29 2//29 1//29
f 5//30 1//30 7//30
