v -0.9786 0.1534 0.4739
v 1.0000 -0.0228 0.0000
v -1.0000 0.3209 0.8098
v -0.3576 -0.6232 1.3596
v 0.7284 0.3660 0.0000
v -0.0251 -0.5170 1.4838
v 0.8161 -0.5203 0.0000
v -0.4748 -0.6437 1.2003
v -0.2704 0.6872 1.0313
v -0.8676 -0.4305 0.4206
v -0.3429 0.3048 0.0000
v -0.0332 0.3806 1.2344
v -0.8910 -0.3229 0.2270
v 0.6154 -0.2075 1.4743
v 0.7284 0.6048 0.2488
v 0.6524 -0.6872 0.0000
v 0.9623 -0.0602 0.2243
v 0.5872 0.4169 0.0000
v -0.6269 0.4813 0.9546
v -0.1443 0.6546 0.3028
v -0.8654 -0.4030 0.0000
v 0.9258 0.2282 0.4882
vn -0.5011 0.6582 0.5619
vn 0.6934 -0.6799 0.2386
vn 0.4198 -0.8600 0.2903
vn -0.4183 0.9013 -0.1127
vn 0.4654 0.7174 0.5184
vn 0.0548 0.9979 -0.0351
vn -0.1139 0.2650 0.9575
vn 0.4332 0.7062 0.5601
vn -0.3791 0.2446 0.8925
vn -0.3640 0.3019 0.8811
vn 0.9333 -0.3451 0.0993
vn 0.8998 -0.3856 0.2043
vn -0.9683 -0.2489 -0.0213
vn -0.1823 -0.9738 -0.1359
vn -0.3773 -0.9240 -0.0625
vn -0.8751 -0.3351 0.3493
vn 0.9028 0.4225 -0.0800
vn 0.9865 -0.0231 0.1618
vn 0.6211 0.6257 0.4720
vn 0.9610 -0.1104 0.2537
vn 0.0080 0.7958 -0.6055
vn -0.0818 0.6785 -0.7301
vn -0.6011 0.4437 -0.6647
vn -0.9867 -0.1517 -0.0577
vn -0.5304 0.7448 -0.4050
vn -0.5227 0.7080 -0.4750
vn -0.9813 -0.1895 0.0321
vn -0.9821 -0.1880 0.0142
vn 0.2247 -0.9512 0.2117
vn 0.0548 -0.9947 0.0875
vn -0.7806 -0.1831 0.5977
vn -0.4326 0.2155 0.8755
vn -0.4036 0.2266 0.8865
vn 0.7185 0.5018 -0.4815
vn 0.2519 0.6982 -0.6701
vn 0.0000 0.0000 -1.0000
vn 0.0000 0.0000 -1.0000
vn 0.0000 0.0000 -1.0000
vn 0.0000 0.0000 -1.0000
vn 0.0000 0.0000 -1.0000
f 19//1 9//1 3//1
f 14//2 16//2 7//2
f 14//3 6//3 16//3
f 20//4 3//4 9//4
f 15//5 9//5 14//5
f 15//6 20//6 9//6
f 12//7 6//7 14//7
f 12//8 14//8 9//8
f 12//9 19//9 6//9
f 12//10 9//10 19//10
f 17//11 7//11 2//11
f 17//12 14//12 7//12
f 13//13 21//13 10//13
f 8//14 21//14 16//14
f 8//15 10//15 21//15
f 8//16 3//16 10//16
f 22//17 2//17 15//17
f 22//18 17//18 2//18
f 22//19 15//19 14//19
f 22//20 14//20 17//20
f 18//21 20//21 15//21
f 18//22 11//22 20//22
f 1//23 11//23 21//23
f 1//24 21//24 13//24
f 1//25 3//25 20//25
f 1//26 20//26 11//26
f 1//27 10//27 3//27
f 1//28 13//28 10//28
f 4//29 16//29 6//29
f 4//30 8//30 16//30
f 4//31 3//31 8//31
f 4//32 19//32 3//32
f 4//33 6//33 19//33
f 5//34 15//34 2//34
f 5//35 18//35 15//35
f 5//36 16//36 21//36
f 5//37 2//37 7//37
f 5//38 7//38 16//38
f 5//39 21//39 11//39
f 5//40 11//40 18//40
