v -0.7077 0.7115 0.6555
v 0.3269 -0.4060 1.3101
v -0.4821 -0.6477 1.0299
v -0.3494 -0.0122 1.5168
v 0.8111 0.3480 1.2147
v -0.6581 0.4142 1.2331
v 0.1680 -0.0850 0.0000
v 0.7419 0.0977 0.0000
v 0.8981 0.2235 0.6646
v -1.0000 -0.7115 0.6352
v 0.3076 0.5171 1.2335
v 1.0000 0.0402 0.8130
v 0.1756 0.6972 0.0000
v 0.7658 0.4927 0.5298
vn 0.4344 -0.8782 -0.2001
vn -0.9635 0.1953 0.1833
vn -0.7536 -0.1149 0.6472
vn 0.2834 -0.8901 -0.3568
vn 0.3210 -0.9064 -0.2745
vn 0.3524 -0.9055 -0.2365
vn -0.5028 -0.4571 0.7336
vn -0.1002 -0.5919 0.7998
vn 0.9177 0.2907 -0.2708
vn 0.9154 0.3555 -0.1891
vn 0.9104 0.3111 -0.2729
vn 0.6383 0.6031 -0.4783
vn 0.0000 -0.0000 -1.0000
vn -0.5893 0.1324 -0.7970
vn -0.4797 0.0046 -0.8774
vn 0.8759 0.4806 0.0435
vn 0.6982 -0.3708 0.6124
vn 0.2658 -0.0488 0.9628
vn -0.0563 0.5245 0.8495
vn 0.1434 0.3227 0.9356
vn -0.0942 0.8818 0.4621
vn 0.1137 0.9848 0.1316
vn 0.2303 0.9661 0.1164
vn 0.3193 0.9312 0.1756
f 2//1 8//1 12//1
f 6//2 1//2 10//2
f 6//3 10//3 4//3
f 7//4 8//4 10//4
f 3//5 10//5 8//5
f 3//6 8//6 2//6
f 3//7 4//7 10//7
f 3//8 2//8 4//8
f 9//9 12//9 8//9
f 9//10 14//10 12//10
f 9//11 8//11 14//11
f 13//12 14//12 8//12
f 13//13 8//13 7//13
f 13//14 10//14 1//14
f 13//15 7//15 10//15
f 5//16 12//16 14//16
f 5//17 2//17 12//17
f 5//18 4//18 2//18
f 11//19 6//19 4//19
f 11//20 4//20 5//20
f 11//21 1//21 6//21
f 11//22 13//22 1//22
f 11//23 14//23 13//23
f 11//24 5//24 14//24
