v 0.3740 -0.1566 0.0000
v -0.2269 -0.7191 0.2731
v 0.4960 0.0272 1.1531
v -1.0000 -0.0979 0.2279
v 0.6381 -0.3853 1.1417
v -0.8963 -0.3384 0.5962
v 1.0000 -0.1709 0.6950
v 0.4017 0.5756 0.4778
v 0.3436 -0.1002 1.4321
v -0.1729 0.2047 0.0000
v -0.7184 0.3641 0.6286
v 0.3530 -0.3550 0.0000
v -0.5109 0.0329 1.4956
v -0.0843 0.7191 0.6232
v 0.1318 0.5179 0.0000
vn -0.9065 0.2736 0.3215
vn -0.4427 0.7972 0.4105
vn -0.4910 0.7220 -0.4875
vn -0.4478 0.7937 -0.4116
vn 0.7480 0.4604 -0.4781
vn 0.2105 0.9493 -0.2335
vn -0.9297 0.1281 0.3454
vn -0.3673 0.3574 -0.8587
vn -0.1974 -0.1854 -0.9626
vn 0.7204 0.2587 -0.6435
vn 0.7399 -0.0784 -0.6681
vn 0.4302 -0.8989 -0.0830
vn 0.4549 -0.8693 -0.1932
vn -0.1610 -0.8569 0.4897
vn -0.2597 -0.8483 0.4615
vn -0.2185 -0.3386 -0.9152
vn -0.5810 -0.7467 -0.3239
vn -0.0667 -0.7450 0.6637
vn 0.1634 0.7351 0.6580
vn 0.3836 0.7425 0.5491
vn 0.7477 0.1045 0.6558
vn 0.6400 0.6377 0.4286
vn 0.6935 0.4325 0.5761
vn 0.3851 0.7420 0.5488
vn 0.0000 0.0000 -1.0000
vn 0.0000 0.0000 -1.0000
f 11//1 4//1 13//1
f 11//2 13//2 14//2
f 11//3 15//3 4//3
f 11//4 14//4 15//4
f 8//5 7//5 15//5
f 8//6 15//6 14//6
f 6//7 13//7 4//7
f 10//8 4//8 15//8
f 10//9 12//9 4//9
f 1//10 15//10 7//10
f 1//11 7//11 12//11
f 2//12 7//12 5//12
f 2//13 12//13 7//13
f 2//14 5//14 13//14
f 2//15 13//15 6//15
f 2//16 4//16 12//16
f 2//17 6//17 4//17
f 9//18 13//18 5//18
f 9//19 14//19 13//19
f 9//20 8//20 14//20
f 9//21 5//21 7//21
f 3//22 7//22 8//22
f 3//23 9//23 7//23
f 3//24 8//24 9//24
f 1//25 12//25 10//25
f 1//26 10//26 15//26
