v -0.5480 -0.9667 0.3944
v 0.6075 -0.2448 1.3467
v 0.4846 -0.1337 1.7158
v 0.4089 0.6751 0.0000
v -0.9979 -0.0213 0.1085
v 0.0146 0.8097 0.0000
v 0.7323 0.6568 0.8765
v 0.9607 -0.3812 0.0000
v 0.1937 0.9667 0.1747
v -0.4378 -0.8153 0.0000
v 0.5121 -0.7800 0.1193
v 1.0000 0.2597 1.3185
v -0.2979 -0.7451 0.9671
v -1.0000 -0.0092 0.5858
v -0.4295 0.5639 1.2413
vn -0.9037 -0.4280 0.0069
vn -0.7416 -0.4496 0.4979
vn 0.7037 0.6666 -0.2457
vn 0.9028 0.3755 -0.2095
vn 0.8448 0.4413 -0.3025
vn 0.2088 0.6114 -0.7633
vn -0.7726 -0.4898 -0.4039
vn -0.1375 0.0383 -0.9898
vn 0.3255 -0.8700 0.3703
vn 0.7690 -0.5837 0.2607
vn 0.7315 -0.5463 0.4080
vn 0.0437 0.9259 0.3752
vn 0.0957 0.6425 0.7602
vn 0.1318 0.7756 0.6173
vn -0.6329 -0.2192 0.7426
vn -0.5776 -0.2226 0.7854
vn -0.6963 0.7175 -0.0213
vn -0.6198 0.7819 -0.0669
vn -0.6374 0.7667 -0.0762
vn 0.1285 -0.4141 -0.9011
vn 0.0773 -0.9378 -0.3383
vn 0.2327 -0.9369 0.2608
vn 0.6797 -0.6902 0.2481
vn 0.3338 -0.8733 0.3548
vn 0.0000 0.0000 -1.0000
vn 0.0000 0.0000 -1.0000
f 5//1 1//1 14//1
f 13//2 14//2 1//2
f 7//3 4//3 9//3
f 7//4 12//4 8//4
f 7//5 8//5 4//5
f 6//6 9//6 4//6
f 10//7 1//7 5//7
f 10//8 5//8 6//8
f 2//9 3//9 13//9
f 2//10 8//10 12//10
f 2//11 12//11 3//11
f 15//12 7//12 9//12
f 15//13 3//13 12//13
f 15//14 12//14 7//14
f 15//15 14//15 13//15
f 15//16 13//16 3//16
f 15//17 5//17 14//17
f 15//18 9//18 6//18
f 15//19 6//19 5//19
f 11//20 10//20 8//20
f 11//21 1//21 10//21
f 11//22 13//22 1//22
f 11//23 8//23 2//23
f 11//24 2//24 13//24
f 10//25 6//25 4//25
f 10//26 4//26 8//26
