v -0.21590 -0.21590 0.03810
v 0.21590 -0.21590 0.03810
v 0.21590 0.21590 0.03810
v -0.21590 0.21590 0.03810
v -0.09207 -0.09207 0.31750
v 0.09207 -0.09207 0.31750
v 0.09207 0.09207 0.31750
v -0.09207 0.09207 0.31750
vn 0.00000 -0.91424 0.40517
vn -0.00000 0.91424 -0.40517
vn 0.91424 -0.00000 0.40517
vn -0.91424 0.00000 -0.40517
vn 0.00000 0.91424 0.40517
vn -0.00000 -0.91424 -0.40517
vn -0.91424 0.00000 0.40517
vn 0.91424 -0.00000 -0.40517
f 1//1 2//1 6//1 5//1
f 5//2 6//2 2//2 1//2
f 2//3 3//3 7//3 6//3
f 6//4 7//4 3//4 2//4
f 3//5 4//5 8//5 7//5
f 7//6 8//6 4//6 3//6
f 4//7 1//7 5//7 8//7
f 8//8 5//8 1//8 4//8
