<?xml version='1.0' encoding='utf-8'?>
<COLLADA xmlns="http://www.collada.org/2005/11/COLLADASchema" version="1.4.1">
  <asset>
    <unit name="meter" meter="1" />
    <up_axis>Z_UP</up_axis>
  </asset>
  <library_effects>
    <effect id="DockCubes-effect">
      <profile_COMMON>
        <technique sid="common">
          <lambert>
            <diffuse>
              <color sid="diffuse">0.8 0.8 0.8 1</color>
            </diffuse>
            </lambert>
        </technique>
      </profile_COMMON>
    </effect>
  </library_effects>
  <library_materials>
    <material id="DockCubes-material" name="DockCubes">
      <instance_effect url="#DockCubes-effect" />
    </material>
  </library_materials>
  <library_geometries>
    <geometry id="Cube_021-mesh" name="Cube.021">
      <mesh>
        <source id="Cube_021-mesh-positions">
          <float_array id="Cube_021-mesh-positions-array" count="1167">-0.2189822 0.2189822 -0.263346 -0.249756 0.2062353 -0.263346 -0.2272511 0.2404342 -0.263346 -0.2325314 0.2325315 -0.263346 -0.2253969 0.249756 -0.2524657 -0.2189822 0.2189822 -0.2524657 -0.249756 0.2062353 -0.2524657 -0.2331014 0.2095481 -0.2524657 -0.2253969 0.249756 -0.263346 -0.249756 0.2253969 -0.263346 -0.2404342 0.2272511 -0.263346 -0.2095479 0.2331014 -0.263346 -0.2062352 0.249756 -0.263346 -0.2331014 0.2095481 -0.263346 -0.2272511 0.2404342 -0.2524657 -0.2325314 0.2325315 -0.2524657 -0.249756 0.2253969 -0.2524657 -0.2404342 0.2272511 -0.2524657 -0.2095479 0.2331014 -0.2524657 -0.2062352 0.249756 -0.2524657 0.250244 0.2062353 -0.263346 0.2314503 0.2335799 -0.263346 0.250244 0.2062353 -0.2524657 -0.250244 0.2253969 -0.2746819 -0.2409222 0.227251 -0.2746819 -0.2314503 0.2335799 -0.2746819 -0.250244 0.2253969 -0.2638016 -0.2314503 0.2335799 -0.2638016 -0.250244 0.2062353 -0.2638016 -0.2335892 0.2095479 -0.2638016 -0.2194702 0.2189822 -0.2638016 0.240922 0.2272512 -0.263346 0.250244 0.2253969 -0.263346 0.2194702 0.2189822 -0.263346 0.2335894 0.209548 -0.263346 0.2314503 0.2335799 -0.2524657 0.240922 0.2272512 -0.2524657 0.250244 0.2253969 -0.2524657 0.2194702 0.2189822 -0.2524657 0.2335894 0.209548 -0.2524657 -0.250244 0.2062353 -0.2746819 -0.2335892 0.2095479 -0.2746819 -0.2194702 0.2189822 -0.2746819 -0.2409222 0.227251 -0.2638016 0.2189822 0.2189822 -0.2746819 0.2331014 0.209548 -0.2746819 0.2095481 0.2331013 -0.2746819 0.2325314 0.2325314 -0.2746819 0.2497559 0.2253969 -0.2746819 0.2253969 0.2497559 -0.2746819 0.2404342 0.2272511 -0.2638016 0.2325314 0.2325314 -0.2638016 0.2497559 0.2253969 -0.2638016 0.2253969 0.2497559 -0.2638016 0.2272512 0.2404341 -0.2638016 0.2331014 0.209548 -0.2638016 0.2497559 0.2062353 -0.2638016 0.2404342 0.2272511 -0.2746819 0.2272512 0.2404341 -0.2746819 0.2497559 0.2062353 -0.2746819 0.2062352 0.2497559 -0.2746819 0.2189822 0.2189822 -0.2638016 0.2062352 0.2497559 -0.2638016 0.2095481 0.2331013 -0.2638016 -0.1223891 -0.2510501 -0.04851573 0.122389 -0.2510501 -0.04851573 0.250244 -0.2062353 -0.2517949 0.2194702 -0.2189822 -0.2517949 0.250244 -0.2253969 -0.2517949 0.240922 -0.2272511 -0.2517949 0.250244 -0.2253969 -0.2409148 0.240922 -0.2272511 -0.2409148 0.250244 -0.2062353 -0.2409148 0.2194702 -0.2189822 -0.2409148 0.1605644 -0.2507426 -0.07572734 0.2314503 -0.23358 -0.2517949 0.2335892 -0.209548 -0.2517949 0.2314503 -0.23358 -0.2409148 0.2335892 -0.209548 -0.2409148 -0.2507425 0.1605646 -0.4067022 -0.2507425 0.1605646 -0.07572734 -0.2510502 0.1223891 -0.04851573 -0.2189822 0.2194703 -0.2517949 -0.2095479 0.2335894 -0.2517949 -0.2062352 0.250244 -0.2517949 -0.2335799 0.2314504 -0.2517949 -0.2253969 0.2502441 -0.2517949 -0.2335799 0.2314504 -0.2409148 -0.2272512 0.2409222 -0.2409148 -0.2253969 0.2502441 -0.2409148 -0.2095479 0.2335894 -0.2409148 -0.2062352 0.250244 -0.2409148 -0.2507425 -0.1605644 -0.07572734 -0.2272512 0.2409222 -0.2517949 -0.2189822 0.2194703 -0.2409148 -0.2402455 0.1780924 -0.4067022 -0.2492575 0.1605646 -0.4067022 -0.1605644 0.2492575 -0.4067022 0.25 -0.1545428 -0.4067022 0.1605644 -0.2492575 -0.4067022 0.1545429 0.2500001 -0.4067022 0.25 0.1545429 -0.4067022 -0.2492575 -0.1605644 -0.07572734 -0.2439784 -0.1733093 -0.0810064 -0.2489498 -0.1223891 -0.04851573 -0.1780923 -0.2402454 -0.0817489 -0.1733093 -0.2439783 -0.0810064 -0.1671544 -0.2471429 -0.07889193 -0.1605644 -0.2492575 -0.07572734 -0.1671544 0.247143 -0.07889193 -0.1733093 0.2439785 -0.0810064 -0.1288048 0.2500001 -0.05379486 -0.1190503 0.2459596 -0.04404044 -0.1223891 0.24895 -0.04851573 -0.2414841 0.1192967 -0.04105001 -0.2402455 0.1780924 -0.0817489 -0.2439784 0.1733094 -0.0810064 -0.247143 0.1671544 -0.07889193 0.1605644 -0.2492575 -0.07572734 0.1733093 -0.2439783 -0.0810064 0.1192967 -0.2414841 -0.04105001 0.1190503 -0.2459595 -0.04404044 0.2402455 -0.1780923 -0.0817489 0.25 -0.1545428 -0.07199442 0.2471429 -0.1671543 -0.07889193 0.25 0.1545429 -0.07199442 0.2402455 0.1780924 -0.0817489 0.2492575 0.1605646 -0.07572734 0.2471429 0.1671544 -0.07889193 0.25 0.1288048 -0.05379486 0.2414841 0.1192967 -0.04105001 0.2489498 0.1223891 -0.04851573 0.1288048 0.2500001 -0.05379486 0.122389 0.24895 -0.04851573 0.1192967 0.2414842 -0.04105001 0.1780923 0.2402455 -0.0817489 0.1545429 0.2500001 -0.07199442 0.1733093 0.2439785 -0.0810064 0.2362049 0.1230908 -0.0399999 -0.1230908 0.2362051 -0.0399999 0.1230906 0.2362051 -0.0399999 0.1230906 -0.236205 -0.0399999 -0.1324633 -0.0801194 -0.01159662 -0.0638718 -0.0517079 -0.000935346 -0.05170798 -0.0638718 -0.000935346 -0.08011949 -0.1324633 -0.01159662 -0.08011949 0.1324634 -0.01159662 -0.05170798 0.0638719 -0.000935346 -0.0638718 0.051708 -0.000935346 -0.1324633 0.0801195 -0.01159662 0.08011949 -0.1324633 -0.01159662 0.05170792 -0.0638718 -0.000935346 0.0638718 -0.0517079 -0.000935346 0.1324633 -0.0801195 -0.01159662 0.1324633 0.0801195 -0.01159662 0.0638718 0.051708 -0.000935346 0.05170792 0.0638719 -0.000935346 0.08011949 0.1324634 -0.01159662 -0.1988925 0.1639232 -0.2631949 -0.1639227 0.1988929 -0.2523148 0.163923 0.1988926 -0.2517949 -0.1639227 0.1988929 -0.2631949 0.1988928 0.1639227 -0.2517949 0.1988928 0.1639227 -0.2409148 0.1639227 -0.1988928 -0.2524657 0.1988925 -0.163923 -0.2524657 -0.2133615 0.2483317 -0.2631949 -0.2483313 0.2133618 -0.2523148 0.2483313 -0.2133618 -0.263346 0.2133613 -0.2483316 -0.263346 0.2483313 -0.2133618 -0.2524657 0.2483317 0.2133614 -0.2409148 0.2133619 0.2483313 -0.2409148 -0.247143 -0.1671543 -0.07889193 -0.2402455 -0.1780923 -0.0817489 -0.2414841 -0.1192967 -0.04105001 -0.2362051 -0.1230908 -0.0399999 -0.2362051 0.1230908 -0.0399999 -0.2459595 -0.1190503 -0.04404044 -0.2459595 0.1190504 -0.04404044 -0.2489498 0.1223892 -0.04851573 -0.2492575 0.1605646 -0.07572734 0.2489498 -0.1223891 -0.04851573 0.25 -0.1288047 -0.05379486 0.2459595 -0.1190503 -0.04404044 0.2459595 0.1190504 -0.04404044 0.2414841 -0.1192967 -0.04105001 0.2362049 -0.1230908 -0.0399999 0.1190503 0.2459596 -0.04404044 -0.1192967 0.2414842 -0.04105001 -0.1223891 -0.2489498 -0.04851573 0.122389 -0.2489498 -0.04851573 -0.1190503 -0.2459595 -0.04404044 -0.1192967 -0.2414841 -0.04105001 -0.1230908 -0.236205 -0.0399999 0.1780923 -0.2402454 -0.0817489 0.1671544 -0.2471429 -0.4067022 0.1671544 -0.2471429 -0.07889193 -0.1605644 0.2492575 -0.07572734 -0.1545429 0.2500001 -0.07199442 -0.1671544 0.247143 -0.4067022 -0.1733093 0.2439785 -0.4067022 -0.1780923 0.2402455 -0.0817489 0.1671544 0.247143 -0.07889193 0.1671544 0.247143 -0.4067022 0.1605644 0.2492575 -0.07572734 0.2492575 -0.1605644 -0.07572734 0.2439783 -0.1733093 -0.0810064 0.2439783 0.1733094 -0.0810064 -0.1988925 0.1639232 -0.2523148 0.163923 0.1988926 -0.2409148 0.1639227 -0.1988928 -0.263346 0.1988925 -0.163923 -0.263346 -0.2483313 0.2133618 -0.2631949 -0.2133615 0.2483317 -0.2523148 0.2133613 -0.2483316 -0.2524657 0.2483317 0.2133614 -0.2517949 0.2133619 0.2483313 -0.2517949 -0.1733093 -0.2439783 -0.4067022 -0.2402455 -0.1780923 -0.4067022 -0.2439784 -0.1733093 -0.4067022 -0.247143 0.1671544 -0.4067022 0.2402455 -0.1780923 -0.4067022 0.2492575 -0.1605644 -0.4067022 0.2471429 -0.1671543 -0.4067022 0.2439783 -0.1733093 -0.4067022 0.1733093 -0.2439783 -0.4067022 0.1780923 0.2402455 -0.4067022 0.1605644 0.2492575 -0.4067022 0.1733093 0.2439785 -0.4067022 0.2439783 0.1733094 -0.4067022 0.2492575 0.1605646 -0.4067022 -0.1671544 -0.2471429 -0.4067022 -0.1780923 -0.2402454 -0.4067022 -0.247143 -0.1671543 -0.4067022 -0.2439784 0.1733094 -0.4067022 0.1780923 -0.2402454 -0.4067022 -0.1545429 0.2500001 -0.4067022 -0.1780923 0.2402455 -0.4067022 0.2402455 0.1780924 -0.4067022 0.2471429 0.1671544 -0.4067022 -0.2044304 0.2182808 -0.2400806 -0.226562 0.199611 -0.2400806 -0.1945987 0.2455151 -0.2400806 -0.212652 0.2227636 -0.2155217 -0.2314407 0.2076041 -0.2155217 -0.2044495 0.2182743 -0.2227248 -0.2265818 0.1996149 -0.2227248 -0.2039602 0.2452865 -0.2155217 -0.194612 0.2454999 -0.2227248 -0.2396011 0.2244106 -0.2836523 -0.224478 0.2395666 -0.2836523 -0.2301183 0.2166564 -0.2628147 -0.2167469 0.2300278 -0.2628147 -0.2167469 0.2300278 -0.2836523 -0.2301183 0.2166564 -0.2836523 -0.224478 0.2395666 -0.3017265 -0.2396011 0.2244106 -0.3017265 0.2095481 -0.2331013 -0.2631949 0.2325314 -0.2325314 -0.2631949 0.2253969 -0.249756 -0.2631949 0.2497559 -0.2253969 -0.2631949 0.2404342 -0.2272511 -0.2631949 0.2325314 -0.2325314 -0.2523148 0.2497559 -0.2253969 -0.2523148 0.2404342 -0.2272511 -0.2523148 0.2189822 -0.2189822 -0.2523148 0.2062352 -0.249756 -0.2523148 0.2497559 -0.2062353 -0.2523148 0.2272512 -0.2404341 -0.2631949 0.2189822 -0.2189822 -0.2631949 0.2062352 -0.249756 -0.2631949 0.2497559 -0.2062353 -0.2631949 0.2331014 -0.209548 -0.2631949 0.2272512 -0.2404341 -0.2523148 0.2253969 -0.249756 -0.2523148 0.2095481 -0.2331013 -0.2523148 0.2331014 -0.209548 -0.2523148 0.2095481 0.2335894 -0.2631949 0.2253969 0.250244 -0.2631949 0.2272512 0.2409222 -0.2631949 0.2272512 0.2409222 -0.2523148 0.2335799 0.2314504 -0.2523148 0.2062352 0.250244 -0.2523148 0.2095481 0.2335894 -0.2523148 0.2189822 0.2194703 -0.2523148 0.2189822 -0.2194702 -0.2746819 0.2335799 -0.2314503 -0.2746819 0.2272512 -0.2409221 -0.2746819 0.2253969 -0.250244 -0.2746819 0.2335799 -0.2314503 -0.2638016 0.2272512 -0.2409221 -0.2638016 0.2253969 -0.250244 -0.2638016 0.2335799 0.2314504 -0.2631949 0.2062352 0.250244 -0.2631949 0.2189822 0.2194703 -0.2631949 0.2253969 0.250244 -0.2523148 0.2095482 -0.2335893 -0.2746819 0.2062352 -0.250244 -0.2746819 0.2189822 -0.2194702 -0.2638016 0.2095482 -0.2335893 -0.2638016 0.2062352 -0.250244 -0.2638016 0.2455151 0.1945083 -0.2400806 0.2182809 0.2043399 -0.2400806 0.1996111 0.2264715 -0.2400806 0.2452865 0.2038699 -0.2155217 0.2454999 0.1945216 -0.2227248 0.2227637 0.2125615 -0.2155217 0.2076041 0.2313502 -0.2155217 0.2182742 0.204359 -0.2227248 0.199615 0.2264913 -0.2227248 0.2395666 0.2243875 -0.2836523 0.2244105 0.2395108 -0.2836523 0.2300277 0.2166564 -0.2628147 0.2166565 0.2300278 -0.2628147 0.2300277 0.2166564 -0.2836523 0.2166565 0.2300278 -0.2836523 0.2395666 0.2243875 -0.3017265 0.2244105 0.2395108 -0.3017265 -0.2095479 -0.2336428 -0.263346 -0.2335799 -0.2315039 -0.263346 -0.2253969 -0.2502975 -0.2524657 -0.2272511 -0.2409757 -0.2524657 -0.2095479 -0.2336428 -0.2524657 -0.2253969 -0.2502975 -0.263346 -0.2272511 -0.2409757 -0.263346 -0.2062352 -0.2502975 -0.263346 -0.2189822 -0.2195237 -0.263346 -0.2335799 -0.2315039 -0.2524657 -0.2062352 -0.2502975 -0.2524657 -0.2189822 -0.2195237 -0.2524657 -0.1988928 -0.1639763 -0.2638016 -0.163923 -0.1989462 -0.2638016 -0.1988928 -0.1639763 -0.2746819 -0.163923 -0.1989462 -0.2746819 -0.2483317 -0.213415 -0.2746819 -0.2483317 -0.213415 -0.2638016 -0.2133619 -0.2483848 -0.2638016 -0.2133619 -0.2483848 -0.2746819 -0.249756 -0.2062888 -0.2517949 -0.2062352 -0.2498096 -0.2517949 -0.2404342 -0.2273046 -0.2517949 -0.2325314 -0.2325851 -0.2517949 -0.249756 -0.2254505 -0.2517949 -0.2253969 -0.2498095 -0.2517949 -0.2404342 -0.2273046 -0.2409148 -0.2325314 -0.2325851 -0.2409148 -0.249756 -0.2254505 -0.2409148 -0.2253969 -0.2498095 -0.2409148 -0.2272512 -0.2404877 -0.2409148 -0.2331014 -0.2096015 -0.2409148 -0.2189822 -0.2190358 -0.2409148 -0.249756 -0.2062888 -0.2409148 -0.2062352 -0.2498096 -0.2409148 -0.2095479 -0.2331549 -0.2409148 -0.2272512 -0.2404877 -0.2517949 -0.2331014 -0.2096015 -0.2517949 -0.2189822 -0.2190358 -0.2517949 -0.2095479 -0.2331549 -0.2517949 -0.2194702 -0.2190358 -0.2631949 -0.250244 -0.2254505 -0.2631949 -0.2314503 -0.2336335 -0.2523148 -0.2409222 -0.2273046 -0.2523148 -0.250244 -0.2254505 -0.2523148 -0.2335894 -0.2096015 -0.2523148 -0.250244 -0.2062888 -0.2523148 -0.2314503 -0.2336335 -0.2631949 -0.2409222 -0.2273046 -0.2631949 -0.2335894 -0.2096015 -0.2631949 -0.250244 -0.2062888 -0.2631949 -0.2194702 -0.2190358 -0.2523148 -0.2183713 -0.2039054 -0.2400806 -0.1997014 -0.226037 -0.2400806 -0.2456055 -0.1940739 -0.2400806 -0.2228541 -0.212127 -0.2155217 -0.2076945 -0.2309157 -0.2155217 -0.2183648 -0.2039246 -0.2227248 -0.1997054 -0.2260569 -0.2227248 -0.245377 -0.2034354 -0.2155217 -0.2455903 -0.1940871 -0.2227248 0.1945084 -0.2450806 -0.2400806 0.2043399 -0.2178463 -0.2400806 0.2264716 -0.1991765 -0.2400806 0.2038698 -0.2448521 -0.2155217 0.1945216 -0.2450654 -0.2227248 0.2125616 -0.2223292 -0.2155217 0.2313503 -0.2071696 -0.2155217 0.2043591 -0.2178398 -0.2227248 0.2264913 -0.1991804 -0.2227248</float_array>
          <technique_common>
            <accessor source="#Cube_021-mesh-positions-array" count="389" stride="3">
              <param name="X" type="float" />
              <param name="Y" type="float" />
              <param name="Z" type="float" />
            </accessor>
          </technique_common>
        </source>
        <source id="Cube_021-mesh-normals">
          <float_array id="Cube_021-mesh-normals-array" count="1593">0.7126849 0.7014845 0 0 0 1 2.60701e-06 0 -1 -7.29573e-07 0 -1 0 0 -1 -0.4429615 0.8965407 0 -0.6587802 0.7523356 -2.53568e-05 -0.3207229 0.9471731 3.22968e-05 0.06613248 -0.997811 0 2.1751e-06 0 -1 -0.06613379 -0.9978108 0 0.06618428 -0.9978075 0 0.6587941 -0.7523234 0 0.4429904 -0.8965264 0 0.7523553 -0.6587576 0 -0.06615048 0.9978098 6.33487e-06 0.06616032 0.997809 -6.33487e-06 0.9978109 -0.06613278 0 0.9471825 -0.3206951 0 0.9978109 0.066132 0 -0.9978092 -0.0661571 0 -0.9978092 0.06615686 2.2849e-05 -9.77616e-07 0 1 0.320745 -0.9471656 0 -0.9471728 0.3207237 0 -0.8965399 0.442963 0 -0.7071068 0.7071068 0 -0.7523365 0.6587791 -6.93003e-06 0.8965268 -0.4429897 0 -0.7071059 -0.7071077 0 -5.38691e-07 0 -1 -0.6959334 -0.7181063 0 -0.6703909 -0.7420081 0 -0.06615549 0.9978094 -6.93007e-06 -0.3362058 0.9417886 2.38661e-05 0.0661571 0.9978092 0 0.3206954 -0.9471825 0 0.06613188 -0.9978109 0 0.4429909 -0.8965261 0 -0.06613373 -0.9978108 0 0.06613343 0.9978109 0 -0.06613224 0.9978109 0 2.17512e-06 0 -1 -0.06613326 -0.9978109 0 -0.3206957 -0.9471823 0 0.7071073 0.7071064 0 0.6703965 -0.7420031 4.54802e-06 0.6959396 -0.7181004 0 -0.06614637 0.99781 0 0.06616508 0.9978087 0 -1.45915e-06 0 1 -1.09437e-06 0 1 -0.4567335 0.8896036 0 -0.6799678 0.7332419 0 0.6992902 0.7148379 8.42401e-05 -2.17507e-06 0 1 1.45917e-06 0 1 -2.60696e-06 0 -1 -0.4429897 -0.8965268 0 0.6799619 0.7332476 0 0.4567378 0.8896015 0 -0.6992961 0.7148322 0 0.3362097 0.9417871 0 1 0 0 0 1 0 -1.30348e-06 0 1 -2.1751e-06 0 1 -0.7148357 0.6992925 0 0.06613326 0.9978109 0 -0.06613218 0.9978109 0 -2.60699e-06 0 1 6.51748e-07 0 -1 -0.7332456 0.679964 0 -0.7071077 -0.7071059 0 -0.4572584 -0.8893339 0 -0.5071804 -0.86184 -3.78815e-07 -0.5601271 -0.8284067 0 -0.6965249 -0.7175328 0 -0.7042248 -0.709977 0 0.5071822 -0.8618388 -3.80911e-07 0.4078193 -0.9130627 0 0.5601281 -0.8284061 0 0.357016 -0.9340984 0 0.3055365 -0.9521804 0 -7.29578e-07 0 -1 -0.0661571 -0.9978092 -2.51787e-06 0.7071042 -0.7071094 0 0.06615471 -0.9978094 -2.2849e-05 1.45915e-06 0 1 -0.7181038 -0.695936 0 -0.06613284 0.9978109 0 0.06613314 0.9978109 0 0.7014883 -0.7126809 0 0.7014794 -0.7126897 0 -0.5601272 0.8284067 0 0.5000029 -0.4999984 0.7071059 0.7071062 -0.7071074 0 -0.7071098 -0.7071039 0 -3.91045e-06 0 1 -7.2958e-07 0 -1 -0.06615549 0.9978094 0 0.06615632 0.9978093 0 -0.9978073 0.06618791 0 -0.9978076 -0.06618297 0 0.9978094 -0.06615382 0 0.06613194 -0.9978109 0 -0.7523224 -0.6587952 0 -0.8965483 -0.442946 0 -0.6587963 -0.7523216 0 -0.06613391 -0.9978108 0 -0.3206956 -0.9471824 0 -2.91829e-06 0 -1 -0.7523221 0.6587955 0 0.3207185 0.9471746 0 0.4429585 0.8965421 3.22969e-05 -0.9471815 -0.3206983 0 -0.4429901 -0.8965266 0 -0.6587958 0.752322 0 0.658779 0.7523367 -3.17131e-05 0.7523373 0.658778 0 0.9978093 0.0661571 2.51785e-06 0.947174 0.3207203 2.28491e-05 1.3035e-06 0 1 2.60696e-06 0 -1 -0.9471647 -0.3207478 0 0.8965402 0.4429625 -3.2297e-05 -0.8965489 0.4429449 0 2.60694e-06 0 -1 -3.25876e-07 0 1 -0.9978109 -0.0661329 0 -0.06613308 0.9978109 0 0.06615668 -0.9978092 0 -0.06615489 -0.9978094 0 0.06613266 0.9978109 0 -2.17507e-06 0 1 -0.7063423 -0.7078705 0 1.45916e-06 0 1 -0.6703948 0.7420045 -1.4091e-05 -0.4429912 0.8965259 0 -0.6959381 0.7181019 0 0.6992976 -0.7148306 0 0.6799697 -0.7332403 0 1.08753e-06 0 -1 -0.3206962 0.9471821 0 5.3869e-07 0 1 0.4567377 -0.8896015 -7.26404e-07 0.3362107 -0.9417869 4.43541e-07 -2.28108e-06 0 1 -0.4999991 0.4999997 0.7071076 0.9978109 0.06613314 0 -0.580439 0 0.8143038 0.3811438 -1.05985e-06 0.9245159 0.3826942 -1.07044e-06 0.9238751 0.7175344 -0.6965232 0 0.1223961 0.9924814 0 0.8284125 0.5601184 0 0.8618449 -0.507172 -4.42378e-07 0.861845 0.507172 -4.27011e-07 0.9340999 0.3570119 0 0.9978109 -0.06613332 0 0.9471652 -0.3207461 0 0.896526 -0.4429913 0 0.7420073 -0.6703919 -1.82045e-05 0.7181054 -0.6959345 0 1.33294e-06 0 1 -2.60694e-06 0 -1 -0.8895992 0.4567421 -1.8733e-05 -0.9417861 0.3362128 1.90826e-05 -0.9978094 0.06615525 2.28489e-05 -0.9978092 -0.06615829 -2.28489e-05 -0.00232023 0.9999974 0 -0.02336168 0.9997271 -7.20844e-07 1.89617e-06 0.9999965 0.002684891 -0.02693146 -0.2184212 0.975483 0.06604462 -0.2354393 0.9696425 0.05121999 -0.198663 0.9787285 -0.5000041 -0.4999991 0.7071046 -0.8893367 -0.457253 0 -0.8618419 -0.5071772 -4.787e-07 -0.8893371 -0.4572521 0 -1.00769e-06 0.3811441 0.9245157 -1.2368e-06 0.6586956 0.7524097 1.22469e-06 0.7531405 0.6578599 3.1963e-06 0.8970574 0.441914 -2.07219e-07 0.9479032 0.3185584 -0.8618419 0.5071771 -4.55417e-07 -0.9130644 0.4078154 2.43705e-07 -0.9341018 0.3570069 0 -0.9521818 0.305532 0 -0.9521839 0.3055258 0 0.708028 3.51109e-07 0.7061844 0.7071046 -8.22241e-07 0.7071091 -0.7531403 -1.12504e-06 0.6578601 -0.8314616 0 0.5555822 -0.6586987 1.25496e-06 0.7524068 -0.381147 -1.073e-06 0.9245145 -0.3826973 -1.05985e-06 0.9238739 -0.2325466 -0.06973356 0.9700822 -0.2422332 0.0518198 0.9688333 0.9253685 1.9148e-06 0.3790689 0.9999966 -1.84914e-06 0.002619028 0.9999964 -1.91852e-06 0.002687811 0 -0.8314744 0.5555631 3.53903e-07 -0.7080199 0.7061927 0 -0.8314608 0.5555835 3.08454e-06 -0.4429091 0.8965665 -3.66126e-07 -0.7071108 0.7071028 -5.83008e-07 -0.3194275 0.9476108 0.05077379 0.2412806 0.9691263 1.07917e-06 0.3826954 0.9238746 0.9238724 -1.83657e-06 0.3827009 0.2412803 -0.05077379 0.9691264 0.8284122 -0.560119 9.86072e-06 0.7099772 -0.7042247 2.19417e-05 -0.7175335 0.696524 0 -0.8284076 0.5601259 0 -0.1893848 0.981903 0 -0.2504481 0.9681301 0 -0.357005 0.9341025 0 -0.4077644 0.9130872 0 -0.507179 0.8618409 -3.43192e-07 0.5071809 0.8618397 -3.30387e-07 0.4078084 0.9130675 0 0.3570047 0.9341026 0 0.2504475 0.9681303 1.61213e-05 0.189433 0.9818937 0 0.1223961 0.9924814 0 0.7126571 0.7015125 0 0.9924834 -0.1223794 0 0.9818857 -0.1894744 0 0.9681178 -0.2504952 1.75389e-05 0.9341005 -0.3570105 0 0.9130656 -0.407813 9.44792e-06 0.9130843 0.4077708 0 0.9681299 0.2504484 0 0.9818952 0.1894252 0 0.9999974 0.002311468 -2.82815e-05 0.696495 0.7175617 0 0.5601282 0.828406 0 0.09046483 0.1955929 0.9765038 0.06333667 0.01245206 0.9979146 0.2259737 0.03021001 0.9736649 -0.1955929 0.09046465 0.9765039 -0.04225999 0.1100141 0.9930313 -0.02730864 0.2191033 0.9753195 0.00625807 0.1418399 0.9898698 0.003657698 -0.08304774 0.9965389 -0.04667937 -0.1215202 0.9914908 0.1215195 -0.04668182 0.9914908 0.1926395 -0.08025109 0.9779825 -0.08916348 0.2267508 0.9698629 -0.2121393 -0.05790019 0.9755227 0.22675 0.08916348 0.969863 -0.03399354 -0.003587007 0.9994156 -0.08609181 0.003800094 0.99628 -2.17511e-06 0 -1 -0.9978109 -0.06613308 0 0.9978109 -0.0661323 0 0.997811 0.06613254 0 -0.742006 -0.6703932 0 5.38689e-07 0 1 -0.7014915 0.7126778 0 -0.7099763 0.7042257 0 0.7042296 0.7099724 0 0.5000016 0.4999944 0.7071098 0.9997272 0.02335619 -7.47386e-07 -0.08916348 -0.2267501 0.9698631 -0.7126814 -0.7014878 0 -0.7126886 -0.7014806 0 -0.8284072 -0.5601263 0 1.86497e-06 0.9999967 0.002615332 0 -0.5804414 0.8143021 -8.63848e-07 0 -1 8.74873e-07 0 -1 9.84555e-07 0 -1 -1.43758e-06 0 -1 5.03207e-07 0 -1 -3.77404e-07 0 -1 0.5993844 -0.1204636 0.791345 0.5315272 -0.3159283 0.7859187 0.6182802 -0.007838904 0.7859187 0.9849123 -0.1730532 0.000790605 0.8681933 -0.4962258 0.000615181 0.9999904 0.004351913 0.000614802 0.4588491 -0.404016 0.7913461 0.3023477 -0.5393626 0.7859224 0.1953638 -0.5793097 0.7913491 0.342588 -0.9394854 0.000790088 0.5037649 -0.8638407 0.000614785 0.7664331 -0.6423238 0.000790528 2.02036e-06 0 -1 0.7078717 -0.7063411 0 -2.60696e-06 0 -1 1.30349e-06 0 -1 0.4429586 -0.8965421 0 0.6587802 -0.7523356 0 0.320719 -0.9471744 0 1.45916e-06 0 -1 -0.8965256 0.4429919 0 -0.9471649 0.3207473 0 -0.9978109 0.06613212 0 0.7523369 -0.6587787 0 0.8965405 -0.4429618 0 0.9978094 0.06615477 -2.28489e-05 0.9978095 -0.06615388 2.28489e-05 -0.4429907 0.8965263 0 0.947173 -0.3207232 0 -0.3207455 0.9471654 0 -0.9978072 0.06618845 0 -0.947165 0.3207467 0 -0.9978076 -0.06618261 0 0.9417864 -0.336212 0 0.9978094 -0.06615465 0 0.8896005 -0.4567397 0 0.8896002 0.45674 -5.94209e-05 0.7332429 0.6799669 0 0.9417859 0.3362133 0 -0.9978109 0.06613194 0 0.7148334 0.6992948 -3.00749e-05 0.9978095 0.06615459 -2.28489e-05 0.9978094 -0.06615406 2.28489e-05 -0.7181072 0.6959325 0 -0.7420098 0.6703892 0 0.9978092 0.06615668 0 -0.8965256 -0.442992 0 0.7332457 -0.6799638 0 0.7148362 -0.699292 0 -2.91829e-06 0 -1 -0.1204619 -0.5993813 0.7913477 -0.3159268 -0.5315223 0.7859226 -0.007839381 -0.6182767 0.7859215 -0.1730539 -0.9849122 0.000790726 -0.4962717 -0.8681671 0.000610425 0.004351556 -0.9999904 0.000616694 -0.5793143 -0.1953682 0.7913446 -0.5393664 -0.3023508 0.7859185 -0.4040132 -0.4588472 0.7913486 -0.939486 -0.3425863 0.000786842 -0.8638416 -0.5037633 0.000611272 -0.6423249 -0.7664322 0.000784916 -5.21393e-06 0 1 0.896526 0.4429911 0 -0.9978093 -0.06615734 0 -0.9417867 -0.3362112 -1.90826e-05 -0.9978092 0.06615686 2.2849e-05 2.17508e-06 0 -1 0.7181025 0.6959373 0 0.9471817 0.3206976 0 0.8965263 0.4429906 0 -0.8896 -0.4567406 3.10326e-06 -0.7332417 -0.6799681 0 -0.7148314 -0.6992968 4.17426e-05 -5.3869e-07 0 1 0.7420042 0.6703953 -4.59479e-05 0.9471654 0.3207456 0 0.9978075 0.06618392 0 0.9978107 -0.06613463 0 -0.3207234 -0.9471729 0 -0.06615716 -0.9978092 0 -0.4429627 -0.8965401 3.22967e-05 0.3206984 0.9471814 0 4.56219e-06 0 -1 0.06615483 -0.9978094 0 0.4429923 0.8965255 0 0.6587963 0.7523215 0 0.7523218 0.6587958 0 -0.8965375 -0.4429681 3.17134e-05 -0.7523401 -0.6587749 0 -0.9471714 -0.3207278 6.93005e-06 -0.9978092 0.06615692 2.28489e-05 -0.6587834 -0.7523328 -2.53568e-05 -0.9978093 -0.0661565 -2.28489e-05 1.30347e-06 0 -1 -0.679966 -0.7332436 0 -0.4567334 -0.8896037 0 -0.6992937 -0.7148345 0 -3.2587e-07 0 -1 0.6959364 0.7181035 0 0.6703935 0.7420058 2.3187e-05 0.06615668 -0.9978092 0 -0.06615573 -0.9978093 0 -0.3362066 -0.9417883 0 0.3207466 0.9471651 0 0.4429919 0.8965258 0 0.1730525 0.9849123 0.000786391 0.4962259 0.8681933 0.000623549 -0.004298865 0.9999907 0.00061072 0.120465 0.5993805 0.7913478 0.3159304 0.5315294 0.7859164 0.007840692 0.6182754 0.7859225 0.5793129 0.1953673 0.7913458 0.5393663 0.3023491 0.7859194 0.404017 0.4588543 0.7913426 0.6423255 0.7664316 0.000799028 0.8638677 0.5037185 0.000616458 0.939486 0.3425867 0.000790187 -0.599382 0.1204628 0.7913469 -0.5315265 0.3159289 0.785919 -0.6182776 0.007839977 0.7859207 -0.9849126 0.1730515 0.000785853 -0.868193 0.4962263 0.000613349 -0.9999906 -0.004300773 0.000609657 -0.1953659 0.5793101 0.7913482 -0.3023501 0.5393618 0.7859219 -0.4588509 0.4040158 0.7913451 -0.342588 0.9394855 0.000789747 -0.5037623 0.8638422 0.000614125 -0.7664314 0.6423258 0.000791719 -1.45915e-06 0 -1 2.60696e-06 0 -1 0.7071055 -0.7071081 0 -1.45916e-06 0 -1 0.5000477 0.5000109 0.7070655 -3.64791e-07 0 -1 0.7071077 0.7071059 0 1.09438e-06 0 1 5.21383e-06 0 1 -1.82393e-06 0 -1 0 0.5804414 0.8143021 -0.4999979 0.4999979 0.7071098 -6.51738e-07 0 -1 -0.4572581 -0.8893342 0 -0.4999979 -0.4999979 0.7071098 0.3055375 -0.9521801 0 -1.45916e-06 0 -1 0.5000318 -0.5000023 0.7070828 0.4999952 -0.4999989 0.707111 0.7078729 -0.7063399 0 -1.48509e-05 0 -1 5.93983e-05 0 -1 -2.96983e-05 0 -1 2.96965e-05 0 -1 -2.96965e-05 0 -1 -5.93965e-05 0 -1 1.3035e-06 0 -1 -1.45914e-06 0 -1 -0.5000001 0.5000001 0.7071067 -1.30347e-06 0 1 0.5000154 0.5000049 0.7070925 1.09437e-06 0 1 0.580439 0 0.8143038 0.5000547 -0.5000652 0.7070221 -0.4999962 0.4999857 0.7071197 -0.4999998 0.5000008 0.7071064 -0.5000265 0.5000118 0.7070798 -0.5 0.5000003 0.7071067 -0.5000007 0.4999789 0.7071213 -0.5000055 0.4999783 0.7071183 -0.4999894 0.5000004 0.707114 -0.4999704 0.5000072 0.7071228 -0.5000016 0.4999976 0.7071074 -0.5000005 0.4999982 0.7071079 -0.500001 0.500009 0.7070999 -0.5000016 0.499997 0.7071078 -0.5000069 0.5000069 0.7070971 0 -0.4328814 0.901451 -2.91832e-06 0 1 5.3869e-07 0 -1 -0.7014827 0.7126864 0 -0.4999998 -0.5000008 0.7071064 -0.4999669 -0.4999722 0.7071499 -0.5000151 -0.5000225 0.7070802 -0.4999997 -0.5000012 0.7071062 -0.4999927 -0.5000176 0.7070996 -0.4999904 -0.4999996 0.7071139 -0.5000006 -0.5000011 0.7071056 -0.500005 -0.4999879 0.707112 -0.500008 -0.4999765 0.7071178 -0.500003 -0.5000004 0.7071045 -0.5000081 -0.4999971 0.7071032 -0.5000033 -0.4999986 0.7071055 -0.8314612 0 0.5555828 0.9924834 -0.1223794 0 -0.7071081 0.7071055 0 -5.3869e-07 0 1 -5.38692e-07 0 1 0.4999994 0.5000004 0.7071071 0.4999975 0.4999818 0.7071215 0.5000026 0.4999989 0.7071058 0.499999 0.500015 0.707097 0.5000009 0.4999963 0.7071089 0.5000007 0.4999967 0.7071086 0.4999788 0.5000077 0.7071164 0.5000024 0.4999969 0.7071074 0.4999996 0.4999997 0.7071074 0.5000059 0.4999949 0.7071062 0.4999907 0.5000012 0.7071126 0.5000014 0.499996 0.7071087 0.4999981 0.5000014 0.7071071 0.4999859 0.4999979 0.7071184 0.500002 0.4999979 0.7071069 0.5000004 -0.5000014 0.7071056 0.4999708 -0.4999603 0.7071555 0.500009 -0.500009 0.7070942 0.500001 -0.4999981 0.7071075 0.4999966 -0.5000002 0.7071091 0.4999894 -0.4999734 0.7071332 0.500018 -0.5000118 0.7070859 0.4999997 -0.5000002 0.7071068 0.5000035 -0.4999943 0.7071084 0.4999954 -0.5000151 0.7070994 0.4999991 -0.4999969 0.7071096 0.5000057 -0.5000008 0.7071022 2.96947e-05 0 -1 -2.02449e-05 0 -1 -6.06047e-07 0 -1 0 0 -1 -5.55491e-06 0 -1 1.99484e-07 0 -1 -8.74962e-07 0 -1 -8.90409e-07 0 -1 1.74746e-06 0 -1 -4.58739e-06 0 -1 7.42523e-06 0 -1 -9.31874e-07 0 -1 -1.02887e-06 0 -1 4.3754e-07 0 -1 2.78417e-06 0 -1 -2.97162e-06 0 -1 1.5725e-05 0 -1 -5.93917e-05 0 -1 3.19587e-06 0 1 1.78121e-06 0 -1 1.95525e-06 0 -1 -2.607e-06 0 -1 2.60696e-06 0 1 -2.22177e-06 0 -1 -2.91828e-06 0 1 1.34097e-06 0 -1 3.64789e-07 0 1 3.19587e-06 0 1</float_array>
          <technique_common>
            <accessor source="#Cube_021-mesh-normals-array" count="531" stride="3">
              <param name="X" type="float" />
              <param name="Y" type="float" />
              <param name="Z" type="float" />
            </accessor>
          </technique_common>
        </source>
        <source id="Cube_021-mesh-map-0">
          <float_array id="Cube_021-mesh-map-0-array" count="3360">0.6791347 0.3045449 0.6881546 0.310817 0.6791346 0.310817 0.7615 0.8420954 0.7666873 0.8375638 0.7666873 0.8420954 0.7011627 0.2982733 0.692143 0.2920013 0.7011627 0.2920013 0.243936 0.9925816 0.2520324 0.9977689 0.243936 0.9977689 0.7615 0.8466269 0.7666873 0.8420954 0.7666873 0.8466269 0.2277433 0.9925816 0.2358397 0.9977689 0.2277433 0.9977689 0.692143 0.3045455 0.7011627 0.2982733 0.7011628 0.3045455 0.692143 0.3170898 0.7011628 0.3108175 0.7011628 0.3170898 0.6791346 0.3170891 0.6881546 0.310817 0.6881546 0.3170891 0.6881546 0.3045449 0.6791347 0.2982727 0.6881546 0.2982727 0.2520324 0.9925816 0.2601288 0.9977689 0.2520324 0.9977689 0.7615 0.8330323 0.7666873 0.8285007 0.7666873 0.8330323 0.7011628 0.3045455 0.692143 0.3108175 0.692143 0.3045455 0.6791347 0.2920007 0.6881546 0.2982727 0.6791347 0.2982727 0.7615 0.8375638 0.7666873 0.8330323 0.7666873 0.8375638 0.2358397 0.9925816 0.243936 0.9977689 0.2358397 0.9977689 0.7697491 0.0567162 0.7749364 0.05218464 0.7749364 0.0567162 0.7423666 0.3934198 0.747554 0.3853236 0.747554 0.3934198 0.7141709 0.4254076 0.7051511 0.4321268 0.7051511 0.4254076 0.6407623 0.6911002 0.6497822 0.6978194 0.6407623 0.6978194 0.6407623 0.6848281 0.6497822 0.6911002 0.6407623 0.6911002 0.7491073 0.5485862 0.7542947 0.5404901 0.7542947 0.5485862 0.7423666 0.4015159 0.747554 0.3934198 0.747554 0.4015159 0.6873418 0.616158 0.678322 0.6228773 0.678322 0.616158 0.6873418 0.6098859 0.678322 0.616158 0.678322 0.6098859 0.6757989 0.7249219 0.6667789 0.7311939 0.6667789 0.7249219 0.7697491 0.05218464 0.7749364 0.04675322 0.7749364 0.05218464 0.6757989 0.7249219 0.6667789 0.718203 0.6757989 0.718203 0.7051511 0.4321268 0.7141708 0.4383988 0.7051511 0.4383988 0.7491073 0.5404901 0.7542947 0.532394 0.7542947 0.5404901 0.7186506 0.9759219 0.7132191 0.9707346 0.7186506 0.9707346 0.7132191 0.9759219 0.7086876 0.9707346 0.7132191 0.9707346 0.6523417 0.9026814 0.6433219 0.8964091 0.6523417 0.8964091 0.7083631 0.8901364 0.7173829 0.8838644 0.7173829 0.8901364 0.7575116 0.887948 0.7523242 0.896044 0.7523242 0.887948 0.7575116 0.871756 0.7523242 0.8798519 0.7523242 0.871756 0.7083631 0.8901364 0.7173829 0.8964085 0.7083631 0.8964085 0.7698942 0.3274537 0.7750816 0.3229222 0.7750816 0.3274537 0.7575116 0.896044 0.7523242 0.9041401 0.7523242 0.896044 0.6523417 0.8838648 0.6433219 0.8775925 0.6523417 0.8775925 0.7575116 0.8798519 0.7523242 0.887948 0.7523242 0.8798519 0.7698942 0.3319854 0.7750816 0.3274537 0.7750816 0.3319854 0.7698942 0.3410482 0.7750816 0.3365167 0.7750816 0.3410482 0.6433219 0.890137 0.6523417 0.8838648 0.6523417 0.890137 0.6523417 0.8964091 0.6433219 0.890137 0.6523417 0.890137 0.7083631 0.9026805 0.7173829 0.8964085 0.7173829 0.9026805 0.7083631 0.8838644 0.7173829 0.8775924 0.7173829 0.8838644 0.7698942 0.3365167 0.7750816 0.3319854 0.7750816 0.3365167 0.7003499 0.5785253 0.6913303 0.5718061 0.7003499 0.5718061 0.6751462 0.2920011 0.6661263 0.2857288 0.6751462 0.2857288 0.7515424 0.4355772 0.7567297 0.4274809 0.7567297 0.4355772 0.6751462 0.2790096 0.6661263 0.2857288 0.6661265 0.2790096 0.7515424 0.4274809 0.7567297 0.4193847 0.7567297 0.4274809 0.7758632 0.7448838 0.7706757 0.750315 0.7706757 0.7448838 0.7758632 0.7403522 0.7706757 0.7448838 0.7706757 0.7403522 0.6913303 0.5847974 0.7003499 0.5785253 0.7003499 0.5847974 0.4184276 0.2699691 0.4266608 0.2940589 0.4094803 0.2659088 0.3355122 0.9342162 0.3354029 0.9118474 0.3364036 0.9118808 0.1734679 0.916098 0.3312694 0.9168061 0.1734679 0.9168063 0.6542379 0.4697589 0.6632578 0.4764778 0.6542379 0.4764778 0.7513976 0.06382822 0.7565849 0.05573189 0.7565849 0.06382822 0.7513976 0.05573189 0.7565849 0.04763561 0.7565849 0.05573189 0.6537706 0.6534678 0.6627905 0.6467487 0.6627905 0.6534678 0.6537706 0.6534678 0.6627905 0.6597397 0.6537706 0.6597397 0.6632578 0.4634868 0.6542379 0.4697589 0.6542379 0.4634868 0.7702625 0.484113 0.7754498 0.4786816 0.7754498 0.484113 0.7702625 0.4786816 0.7754498 0.4741501 0.7754498 0.4786816 0.416013 0.3566893 0.5133334 0.3052679 0.4921463 0.3566768 0.7331558 0.1152861 0.5780866 0.1119202 0.7331558 0.1119202 0.7331558 0.1119202 0.5780866 0.1090247 0.7331558 0.1090247 0.5927305 0.2695534 0.601678 0.2736134 0.6099112 0.2977033 0.7331558 0.06097018 0.5780866 0.064336 0.5780866 0.06097018 0.7239378 0.9348315 0.7265039 0.8211932 0.7265039 0.9347139 0.7265039 0.9347139 0.7290702 0.8196014 0.7290702 0.9363058 0.3287523 0.9234051 0.1734679 0.9201057 0.3297605 0.9201055 0.3297605 0.9201055 0.1734679 0.9168063 0.3312694 0.9168061 0.740637 0.8478178 0.7432034 0.7341806 0.7432034 0.8477004 0.5872924 0.8018412 0.589859 0.9169539 0.5872924 0.9153621 0.5847262 0.8017237 0.5872924 0.9153621 0.5847262 0.9154795 0.5847262 0.8017237 0.5821599 0.9172884 0.5821599 0.7999147 0.7457696 0.8492921 0.7483357 0.7295297 0.7483357 0.8523509 0.1632211 0.9798932 0.2783345 0.9773268 0.2799263 0.9798931 0.1646955 0.9747605 0.2783345 0.9773268 0.1648129 0.9773269 0.1628866 0.9721943 0.2784519 0.9747605 0.1646955 0.9747605 0.7239378 0.9348315 0.7213713 0.8192669 0.7239378 0.8210756 0.7457696 0.8492921 0.7432034 0.7341806 0.7457693 0.7325887 0.740637 0.8478178 0.7380706 0.7322542 0.740637 0.734063 0.1565051 0.4321985 0.001220703 0.4354981 0.001220703 0.4321986 0.1575132 0.4354982 0.001220703 0.4387978 0.001220703 0.4354981 0.1590219 0.4395062 0.001220703 0.4387978 0.1590219 0.438798 0.001220703 0.3845055 0.1561511 0.3873981 0.001220703 0.3873982 0.3283984 0.9262979 0.1734679 0.9234055 0.3287523 0.9234051 0.001220881 0.01360571 0.1590222 0.01071321 0.160802 0.01360595 0.001220822 0.01071292 0.1575134 0.007413566 0.1590222 0.01071321 0.001220881 0.007413208 0.1565053 0.004113852 0.1575134 0.007413566 0.1565052 0.1704631 0.001220703 0.1671633 0.1575132 0.1671635 0.1575132 0.1671635 0.001220703 0.1638635 0.159022 0.1638637 0.159022 0.1638637 0.001220703 0.1609708 0.1608018 0.1609711 0.1561511 0.2152635 0.001220703 0.2181562 0.001220703 0.2152634 0.001220703 0.3750134 0.1590219 0.3779061 0.001220703 0.3779062 0.001220703 0.3779062 0.1575132 0.3812058 0.001220703 0.381206 0.001220703 0.381206 0.1565051 0.3845055 0.001220703 0.3845055 0.1565051 0.218156 0.001220703 0.2214558 0.001220703 0.2181562 0.1575132 0.221456 0.001220703 0.2247555 0.001220703 0.2214558 0.159022 0.2247555 0.001220703 0.2276483 0.001220703 0.2247555 0.1561511 0.1733558 0.001220703 0.170463 0.1565052 0.1704631 0.4921457 0.4824604 0.4841143 0.4439827 0.5168343 0.4575761 0.3911057 0.4576369 0.4296033 0.4495916 0.4160019 0.4823448 0.4784598 0.449669 0.4160019 0.4823448 0.4296033 0.4495916 0.416013 0.3566893 0.478486 0.3894641 0.429642 0.3894376 0.4841448 0.3951556 0.4921463 0.3566768 0.5168766 0.3815323 0.5168766 0.3815323 0.4841143 0.4439827 0.4841448 0.3951556 0.3911057 0.4576369 0.3946745 0.5336621 0.3397734 0.4790177 0.5135009 0.5338274 0.4160019 0.4823448 0.4921457 0.4824604 0.3397734 0.4790177 0.3911542 0.381434 0.3911057 0.4576369 0.5681536 0.3600676 0.5168343 0.4575761 0.5168766 0.3815323 0.5133334 0.3052679 0.5168766 0.3815323 0.4921463 0.3566768 0.4921457 0.4824604 0.5681571 0.4788701 0.5135009 0.5338274 0.3911542 0.381434 0.429642 0.3894376 0.4239466 0.3951042 0.4238948 0.4439284 0.3911542 0.381434 0.4239466 0.3951042 0.5488794 0.2068793 0.5540668 0.2304581 0.5488794 0.2304581 0.7615 0.9329332 0.785079 0.966268 0.7615 0.966268 0.4843525 0.2572471 0.479165 0.2336685 0.4843525 0.2336685 0.4720899 0.2848146 0.4669026 0.2612355 0.4720899 0.2612355 0.7798513 0.5237458 0.8034302 0.5570806 0.7798513 0.5570806 0.7790697 0.1838484 0.8026487 0.1505137 0.8026487 0.1838485 0.8025038 0.109202 0.7789248 0.07586717 0.8025038 0.07586717 0.63778 0.7808113 0.6613588 0.7474763 0.6613588 0.7808113 0.8025038 0.001220703 0.7789248 0.03455549 0.7789248 0.001220703 0.3283984 0.9682055 0.1734679 0.9262982 0.3283984 0.9262979 0.1561511 0.2152635 0.001220703 0.1733558 0.1561511 0.1733558 0.1561509 0.4293058 0.001220703 0.3873982 0.1561511 0.3873981 0.669656 0.5970917 0.6524753 0.5689418 0.663703 0.5755187 0.1561509 0.4293058 0.001220703 0.4321986 0.001220703 0.4293059 0.4239466 0.3951042 0.478486 0.3894641 0.4841143 0.4439827 0.3911542 0.381434 0.3945268 0.3054246 0.416013 0.3566893 0.7331558 0.1090247 0.5780866 0.06723159 0.7331557 0.06723159 0.7331558 0.064336 0.5780866 0.06723159 0.5780866 0.064336 0.001220881 0.004113376 0.1561512 0.001220881 0.1565053 0.004113852 0.59086 0.8002494 0.589859 0.9169539 0.5898587 0.8002493 0.7290702 0.9363058 0.7316364 0.8165426 0.7316364 0.9393647 0.608624 0.6696798 0.615201 0.658452 0.6367739 0.6524992 0.3422192 0.8820038 0.3423284 0.9043728 0.3416209 0.9043492 0.9000591 0.1438465 0.898523 0.1428779 0.9018302 0.1442478 0.9000591 0.07443076 0.9460827 0.07392531 0.9460827 0.07413381 0.766274 0.573435 0.7607181 0.5859302 0.7607181 0.573435 0.6490395 0.3299854 0.6407719 0.3437858 0.6407647 0.3299809 0.766274 0.5859302 0.7607181 0.5984252 0.7607181 0.5859302 0.6407843 0.3575907 0.6490468 0.3437874 0.6490591 0.3575894 0.4994432 0.2891374 0.508459 0.2990723 0.4994432 0.2990723 0.3494109 0.5412222 0.352089 0.5521186 0.3457139 0.5457434 0.7442422 0.9383609 0.7356247 0.9281529 0.7442422 0.9281529 0.6797873 0.743738 0.6888074 0.737466 0.6888074 0.743738 0.6693383 0.8775922 0.6783581 0.8838643 0.6693383 0.8838643 0.6783581 0.9026806 0.6693383 0.8964086 0.6783581 0.8964086 0.6783581 0.8901364 0.6693383 0.8964086 0.6693383 0.8901364 0.7758629 0.593657 0.7706755 0.5981881 0.7706755 0.593657 0.6797873 0.7562818 0.6888074 0.7500098 0.6888074 0.7562818 0.6783581 0.8901364 0.6693383 0.8838643 0.6783581 0.8838643 0.6888074 0.7500098 0.6797873 0.743738 0.6888074 0.743738 0.7515423 0.2497027 0.7567297 0.2416065 0.7567297 0.2497027 0.7515423 0.2577988 0.7567297 0.2497027 0.7567297 0.2577988 0.7758629 0.5981881 0.7706755 0.6027196 0.7706755 0.5981881 0.7515423 0.2416065 0.7567297 0.2335106 0.7567297 0.2416065 0.7758629 0.6027196 0.7706755 0.6072512 0.7706755 0.6027196 0.7515424 0.2335106 0.7567297 0.2254143 0.7567297 0.2335106 0.7758629 0.5891256 0.7706755 0.593657 0.7706755 0.5891256 0.6888074 0.7311942 0.6797873 0.737466 0.6797873 0.7311942 0.7043383 0.6098862 0.7133581 0.6161583 0.7043383 0.6161583 0.7043383 0.6161583 0.7133581 0.6228774 0.7043383 0.6228774 0.7051513 0.3233623 0.7141711 0.3170903 0.7141711 0.3233623 0.7051513 0.3300815 0.7141711 0.3233623 0.7141711 0.3300815 0.7607182 0.3869941 0.7659058 0.378898 0.7659058 0.3869941 0.716646 0.9942734 0.7121145 0.989086 0.716646 0.989086 0.7666872 0.7180521 0.7615 0.7234837 0.7615 0.7180521 0.7666872 0.7135207 0.7615 0.7180521 0.7615 0.7135207 0.6762661 0.4697586 0.6672462 0.4764776 0.6672462 0.4697586 0.6823466 0.9089526 0.6913664 0.9156716 0.6823466 0.9156716 0.6823466 0.9026804 0.6913664 0.9089526 0.6823466 0.9089526 0.6762661 0.4634864 0.6672462 0.4697586 0.6672462 0.4634864 0.7575114 0.7020758 0.7523242 0.7101719 0.7523242 0.7020758 0.7220773 0.9942734 0.716646 0.989086 0.7220773 0.989086 0.7575114 0.6939795 0.7523242 0.7020758 0.7523242 0.6939795 0.7607182 0.378898 0.7659058 0.3708022 0.7659058 0.378898 0.766274 0.6109203 0.7607181 0.6234154 0.7607181 0.6109203 0.6490764 0.3713912 0.6408238 0.3852005 0.6408016 0.3713956 0.7607181 0.6359105 0.766274 0.6234154 0.766274 0.6359105 0.6408507 0.3990052 0.6490986 0.3851932 0.6491256 0.3989951 0.4864391 0.2849185 0.4954549 0.2948534 0.4864391 0.2948534 0.7442422 0.8771126 0.7356247 0.8669046 0.7442422 0.8669046 0.3566103 0.5237879 0.3457139 0.5264661 0.352089 0.520091 0.7615 0.8285007 0.7666873 0.8239691 0.7666873 0.8285007 0.7011627 0.285729 0.692143 0.2920013 0.692143 0.285729 0.6881546 0.3233612 0.6791346 0.3170891 0.6881546 0.3170891 0.6791347 0.3300802 0.6881546 0.3233612 0.6881546 0.3300802 0.2196469 0.9925816 0.2277433 0.9977689 0.2196469 0.9977689 0.7011627 0.285729 0.692143 0.2790099 0.7011628 0.2790099 0.7615 0.8239691 0.7666873 0.8185376 0.7666873 0.8239691 0.2115506 0.9925816 0.2196469 0.9977689 0.2115506 0.9977689 0.1605396 0.3866467 0.165727 0.4102259 0.1605396 0.4102259 0.8026489 0.2958182 0.7790701 0.2624832 0.8026489 0.2624832 0.802649 0.2998065 0.7790701 0.3331414 0.7790701 0.2998065 0.7513976 0.07192456 0.7565849 0.06382822 0.7565849 0.07192456 0.6537706 0.6660119 0.6627905 0.6722841 0.6537706 0.6722841 0.7702625 0.4605553 0.7754498 0.4560236 0.7754498 0.4605553 0.7513976 0.09621328 0.7565849 0.08811718 0.7565849 0.09621328 0.6627905 0.6722841 0.6537706 0.6785562 0.6537706 0.6722841 0.6537706 0.6597397 0.6627905 0.6660119 0.6537706 0.6660119 0.6632578 0.4383984 0.6542379 0.4446705 0.6542379 0.4383984 0.6632578 0.4509428 0.6542379 0.4572146 0.6542379 0.4509428 0.6537706 0.6785562 0.6627905 0.6848282 0.6537706 0.6848282 0.6632578 0.4509428 0.6542379 0.4446705 0.6632578 0.4446705 0.6632578 0.4572146 0.6542379 0.4634868 0.6542379 0.4572146 0.7513976 0.08811718 0.7565849 0.08002084 0.7565849 0.08811718 0.7513976 0.08002084 0.7565849 0.07192456 0.7565849 0.08002084 0.7702625 0.4696184 0.7754498 0.465087 0.7754498 0.4696184 0.7702625 0.465087 0.7754498 0.4605553 0.7754498 0.465087 0.7702625 0.4741501 0.7754498 0.4696184 0.7754498 0.4741501 0.7173465 0.724923 0.7263663 0.7311952 0.7173465 0.7311952 0.7750813 0.179857 0.769894 0.1852883 0.769894 0.179857 0.7173465 0.724923 0.7263663 0.718204 0.7263663 0.724923 0.6563301 0.8775933 0.6653499 0.8713213 0.6653499 0.8775933 0.6653499 0.8713213 0.6563301 0.8646019 0.6653499 0.8646019 0.7750813 0.1852883 0.769894 0.1898198 0.769894 0.1852883 0.7607182 0.2254105 0.7659056 0.2173146 0.7659056 0.2254105 0.7607182 0.2173146 0.7659056 0.2092185 0.7659056 0.2173146 0.6490468 0.2885796 0.6407647 0.3023712 0.6407719 0.2885662 0.766274 0.5359497 0.7607181 0.5484448 0.7607181 0.5359497 0.7607181 0.5609399 0.766274 0.5484448 0.766274 0.5609399 0.6490395 0.3023815 0.6407622 0.3161761 0.6407647 0.3023712 0.766274 0.4984644 0.7607181 0.5109595 0.7607181 0.4984644 0.6490986 0.2471738 0.6408016 0.2609565 0.6408238 0.2471516 0.7607181 0.5234546 0.766274 0.5109595 0.766274 0.5234546 0.6407843 0.2747613 0.6490764 0.2609757 0.649059 0.2747776 0.6791347 0.3045449 0.6881546 0.3045449 0.6881546 0.310817 0.7615 0.8420954 0.7615 0.8375638 0.7666873 0.8375638 0.7011627 0.2982733 0.692143 0.2982733 0.692143 0.2920013 0.243936 0.9925816 0.2520324 0.9925816 0.2520324 0.9977689 0.7615 0.8466269 0.7615 0.8420954 0.7666873 0.8420954 0.2277433 0.9925816 0.2358397 0.9925816 0.2358397 0.9977689 0.692143 0.3045455 0.692143 0.2982733 0.7011627 0.2982733 0.692143 0.3170898 0.692143 0.3108175 0.7011628 0.3108175 0.6791346 0.3170891 0.6791346 0.310817 0.6881546 0.310817 0.6881546 0.3045449 0.6791347 0.3045449 0.6791347 0.2982727 0.2520324 0.9925816 0.2601288 0.9925816 0.2601288 0.9977689 0.7615 0.8330323 0.7615 0.8285007 0.7666873 0.8285007 0.7011628 0.3045455 0.7011628 0.3108175 0.692143 0.3108175 0.6791347 0.2920007 0.6881546 0.2920007 0.6881546 0.2982727 0.7615 0.8375638 0.7615 0.8330323 0.7666873 0.8330323 0.2358397 0.9925816 0.243936 0.9925816 0.243936 0.9977689 0.7697491 0.0567162 0.7697491 0.05218464 0.7749364 0.05218464 0.7423666 0.3934198 0.7423666 0.3853236 0.747554 0.3853236 0.7141709 0.4254076 0.7141708 0.4321268 0.7051511 0.4321268 0.6407623 0.6911002 0.6497822 0.6911002 0.6497822 0.6978194 0.6407623 0.6848281 0.6497822 0.6848281 0.6497822 0.6911002 0.7491073 0.5485862 0.7491073 0.5404901 0.7542947 0.5404901 0.7423666 0.4015159 0.7423666 0.3934198 0.747554 0.3934198 0.6873418 0.616158 0.6873418 0.6228773 0.678322 0.6228773 0.6873418 0.6098859 0.6873418 0.616158 0.678322 0.616158 0.6757989 0.7249219 0.6757989 0.7311939 0.6667789 0.7311939 0.7697491 0.05218464 0.7697491 0.04675322 0.7749364 0.04675322 0.6757989 0.7249219 0.6667789 0.7249219 0.6667789 0.718203 0.7051511 0.4321268 0.7141708 0.4321268 0.7141708 0.4383988 0.7491073 0.5404901 0.7491073 0.532394 0.7542947 0.532394 0.7186506 0.9759219 0.7132191 0.9759219 0.7132191 0.9707346 0.7132191 0.9759219 0.7086876 0.9759219 0.7086876 0.9707346 0.6523417 0.9026814 0.6433219 0.9026814 0.6433219 0.8964091 0.7083631 0.8901364 0.7083631 0.8838644 0.7173829 0.8838644 0.7575116 0.887948 0.7575116 0.896044 0.7523242 0.896044 0.7575116 0.871756 0.7575116 0.8798519 0.7523242 0.8798519 0.7083631 0.8901364 0.7173829 0.8901364 0.7173829 0.8964085 0.7698942 0.3274537 0.7698942 0.3229222 0.7750816 0.3229222 0.7575116 0.896044 0.7575116 0.9041401 0.7523242 0.9041401 0.6523417 0.8838648 0.6433219 0.8838648 0.6433219 0.8775925 0.7575116 0.8798519 0.7575116 0.887948 0.7523242 0.887948 0.7698942 0.3319854 0.7698942 0.3274537 0.7750816 0.3274537 0.7698942 0.3410482 0.7698942 0.3365167 0.7750816 0.3365167 0.6433219 0.890137 0.6433219 0.8838648 0.6523417 0.8838648 0.6523417 0.8964091 0.6433219 0.8964091 0.6433219 0.890137 0.7083631 0.9026805 0.7083631 0.8964085 0.7173829 0.8964085 0.7083631 0.8838644 0.7083631 0.8775924 0.7173829 0.8775924 0.7698942 0.3365167 0.7698942 0.3319854 0.7750816 0.3319854 0.7003499 0.5785253 0.6913303 0.5785253 0.6913303 0.5718061 0.6751462 0.2920011 0.6661263 0.2920011 0.6661263 0.2857288 0.7515424 0.4355772 0.7515424 0.4274809 0.7567297 0.4274809 0.6751462 0.2790096 0.6751462 0.2857288 0.6661263 0.2857288 0.7515424 0.4274809 0.7515424 0.4193847 0.7567297 0.4193847 0.7758632 0.7448838 0.7758632 0.750315 0.7706757 0.750315 0.7758632 0.7403522 0.7758632 0.7448838 0.7706757 0.7448838 0.6913303 0.5847974 0.6913303 0.5785253 0.7003499 0.5785253 0.3404814 0.1473264 0.3407747 0.1696766 0.3397734 0.169683 0.3397995 0.6589023 0.3400929 0.6365529 0.340801 0.6365576 0.3647016 0.2664095 0.3675725 0.265909 0.3615597 0.2678353 0.3675725 0.265909 0.4094803 0.2659088 0.3503918 0.2940589 0.4094803 0.2659088 0.4123511 0.2664095 0.415493 0.2678353 0.415493 0.2678353 0.4184276 0.2699691 0.4094803 0.2659088 0.4184276 0.2699691 0.4311938 0.2883169 0.4266608 0.2940589 0.4311938 0.2883169 0.4313114 0.2913345 0.4297195 0.2933507 0.4297195 0.2933507 0.4266608 0.2940589 0.4311938 0.2883169 0.4266608 0.2940589 0.3503918 0.2940589 0.4094803 0.2659088 0.3503918 0.2940589 0.347333 0.2933507 0.3458586 0.2883169 0.347333 0.2933507 0.345741 0.2913345 0.3458586 0.2883169 0.3458586 0.2883169 0.3476675 0.2847574 0.3503918 0.2940589 0.3476675 0.2847574 0.3563448 0.272486 0.3503918 0.2940589 0.3563448 0.272486 0.3586252 0.2699691 0.3675725 0.265909 0.3503918 0.2940589 0.3563448 0.272486 0.3675725 0.265909 0.3586252 0.2699691 0.3615597 0.2678353 0.3675725 0.265909 0.340497 0.9077992 0.3416209 0.9043492 0.3423284 0.9043728 0.6542379 0.4697589 0.6632578 0.4697589 0.6632578 0.4764778 0.7513976 0.06382822 0.7513976 0.05573189 0.7565849 0.05573189 0.7513976 0.05573189 0.7513976 0.04763561 0.7565849 0.04763561 0.6537706 0.6534678 0.6537706 0.6467487 0.6627905 0.6467487 0.6537706 0.6534678 0.6627905 0.6534678 0.6627905 0.6597397 0.6632578 0.4634868 0.6632578 0.4697589 0.6542379 0.4697589 0.7702625 0.484113 0.7702625 0.4786816 0.7754498 0.4786816 0.7702625 0.4786816 0.7702625 0.4741501 0.7754498 0.4741501 0.416013 0.3566893 0.3945268 0.3054246 0.5133334 0.3052679 0.7331558 0.1152861 0.5780866 0.1152861 0.5780866 0.1119202 0.7331558 0.1119202 0.5780866 0.1119202 0.5780866 0.1090247 0.5479519 0.2700539 0.5508229 0.2695532 0.54481 0.2714797 0.5508229 0.2695532 0.5927305 0.2695534 0.5336424 0.2977033 0.5927305 0.2695534 0.5956016 0.2700539 0.5987434 0.2714797 0.5987434 0.2714797 0.601678 0.2736134 0.5927305 0.2695534 0.601678 0.2736134 0.6144441 0.2919612 0.6099112 0.2977033 0.6144441 0.2919612 0.6145617 0.2949786 0.6129699 0.2969949 0.6129699 0.2969949 0.6099112 0.2977033 0.6144441 0.2919612 0.6099112 0.2977033 0.5336424 0.2977033 0.5927305 0.2695534 0.5336424 0.2977033 0.5305835 0.2969949 0.5291093 0.2919612 0.5305835 0.2969949 0.5289917 0.2949786 0.5291093 0.2919612 0.5291093 0.2919612 0.5418756 0.2736134 0.5336424 0.2977033 0.5418756 0.2736134 0.54481 0.2714797 0.5508229 0.2695532 0.5508229 0.2695532 0.5336424 0.2977033 0.5418756 0.2736134 0.7331558 0.06097018 0.7331558 0.064336 0.5780866 0.064336 0.7239378 0.9348315 0.7239378 0.8210756 0.7265039 0.8211932 0.7265039 0.9347139 0.7265039 0.8211932 0.7290702 0.8196014 0.3287523 0.9234051 0.1734679 0.9234055 0.1734679 0.9201057 0.3297605 0.9201055 0.1734679 0.9201057 0.1734679 0.9168063 0.740637 0.8478178 0.740637 0.734063 0.7432034 0.7341806 0.1632211 0.9798932 0.2799263 0.9798931 0.2799263 0.9808945 0.5872924 0.8018412 0.5898587 0.8002493 0.589859 0.9169539 0.5847262 0.8017237 0.5872924 0.8018412 0.5872924 0.9153621 0.5847262 0.8017237 0.5847262 0.9154795 0.5821599 0.9172884 0.7457696 0.8492921 0.7457693 0.7325887 0.7483357 0.7295297 0.1632211 0.9798932 0.1648129 0.9773269 0.2783345 0.9773268 0.1646955 0.9747605 0.2784519 0.9747605 0.2783345 0.9773268 0.1628866 0.9721943 0.2802608 0.9721943 0.2784519 0.9747605 0.7239378 0.9348315 0.7213713 0.9366403 0.7213713 0.8192669 0.7457696 0.8492921 0.7432034 0.8477004 0.7432034 0.7341806 0.740637 0.8478178 0.7380706 0.8496267 0.7380706 0.7322542 0.1565051 0.4321985 0.1575132 0.4354982 0.001220703 0.4354981 0.1575132 0.4354982 0.1590219 0.438798 0.001220703 0.4387978 0.001220703 0.3845055 0.1565051 0.3845055 0.1561511 0.3873981 0.3283984 0.9262979 0.1734679 0.9262982 0.1734679 0.9234055 0.001220881 0.01360571 0.001220822 0.01071292 0.1590222 0.01071321 0.001220822 0.01071292 0.001220881 0.007413208 0.1575134 0.007413566 0.001220881 0.007413208 0.001220881 0.004113376 0.1565053 0.004113852 0.1565052 0.1704631 0.001220703 0.170463 0.001220703 0.1671633 0.1575132 0.1671635 0.001220703 0.1671633 0.001220703 0.1638635 0.159022 0.1638637 0.001220703 0.1638635 0.001220703 0.1609708 0.1561511 0.2152635 0.1565051 0.218156 0.001220703 0.2181562 0.001220703 0.3750134 0.1608017 0.3750135 0.1590219 0.3779061 0.001220703 0.3779062 0.1590219 0.3779061 0.1575132 0.3812058 0.001220703 0.381206 0.1575132 0.3812058 0.1565051 0.3845055 0.1565051 0.218156 0.1575132 0.221456 0.001220703 0.2214558 0.1575132 0.221456 0.159022 0.2247555 0.001220703 0.2247555 0.159022 0.2247555 0.1608018 0.2276483 0.001220703 0.2276483 0.1561511 0.1733558 0.001220703 0.1733558 0.001220703 0.170463 0.4921457 0.4824604 0.4784598 0.449669 0.4841143 0.4439827 0.3911057 0.4576369 0.4238948 0.4439284 0.4296033 0.4495916 0.4784598 0.449669 0.4921457 0.4824604 0.4160019 0.4823448 0.416013 0.3566893 0.4921463 0.3566768 0.478486 0.3894641 0.4841448 0.3951556 0.478486 0.3894641 0.4921463 0.3566768 0.5168766 0.3815323 0.5168343 0.4575761 0.4841143 0.4439827 0.3911057 0.4576369 0.4160019 0.4823448 0.3946745 0.5336621 0.5135009 0.5338274 0.3946745 0.5336621 0.4160019 0.4823448 0.3397734 0.4790177 0.3397734 0.3602178 0.3911542 0.381434 0.5681536 0.3600676 0.5681571 0.4788701 0.5168343 0.4575761 0.5133334 0.3052679 0.5681536 0.3600676 0.5168766 0.3815323 0.4921457 0.4824604 0.5168343 0.4575761 0.5681571 0.4788701 0.3911542 0.381434 0.416013 0.3566893 0.429642 0.3894376 0.4238948 0.4439284 0.3911057 0.4576369 0.3911542 0.381434 0.5488794 0.2068793 0.5540668 0.2068793 0.5540668 0.2304581 0.7615 0.9329332 0.785079 0.9329332 0.785079 0.966268 0.4843525 0.2572471 0.479165 0.2572471 0.479165 0.2336685 0.4720899 0.2848146 0.4669026 0.2848146 0.4669026 0.2612355 0.7798513 0.5237458 0.8034302 0.5237458 0.8034302 0.5570806 0.7790697 0.1838484 0.7790697 0.1505137 0.8026487 0.1505137 0.8025038 0.109202 0.7789248 0.109202 0.7789248 0.07586717 0.63778 0.7808113 0.63778 0.7474763 0.6613588 0.7474763 0.8025038 0.001220703 0.8025038 0.03455549 0.7789248 0.03455549 0.3283984 0.9682055 0.1734679 0.9682059 0.1734679 0.9262982 0.1561511 0.2152635 0.001220703 0.2152634 0.001220703 0.1733558 0.1561509 0.4293058 0.001220703 0.4293059 0.001220703 0.3873982 0.6076967 0.5694425 0.6105676 0.5689418 0.6045547 0.5708683 0.6105676 0.5689418 0.6524753 0.5689418 0.669656 0.5970917 0.6524753 0.5689418 0.6553462 0.5694425 0.6584882 0.5708683 0.6584882 0.5708683 0.6614227 0.573002 0.6524753 0.5689418 0.6614227 0.573002 0.663703 0.5755187 0.6524753 0.5689418 0.663703 0.5755187 0.6723803 0.5877902 0.669656 0.5970917 0.6723803 0.5877902 0.6741893 0.5913497 0.669656 0.5970917 0.6741893 0.5913497 0.6743066 0.5943672 0.6727147 0.5963837 0.6727147 0.5963837 0.669656 0.5970917 0.6741893 0.5913497 0.669656 0.5970917 0.5933869 0.5970917 0.6105676 0.5689418 0.5933869 0.5970917 0.5903281 0.5963838 0.5888537 0.5913497 0.5903281 0.5963838 0.5887362 0.5943673 0.5888537 0.5913497 0.5888537 0.5913497 0.5906626 0.5877902 0.5933869 0.5970917 0.5906626 0.5877902 0.5993399 0.5755188 0.5933869 0.5970917 0.5993399 0.5755188 0.6016202 0.573002 0.6105676 0.5689418 0.5933869 0.5970917 0.5993399 0.5755188 0.6105676 0.5689418 0.6016202 0.573002 0.6045547 0.5708683 0.6105676 0.5689418 0.1561509 0.4293058 0.1565051 0.4321985 0.001220703 0.4321986 0.4841143 0.4439827 0.4784598 0.449669 0.4296033 0.4495916 0.4296033 0.4495916 0.4238948 0.4439284 0.4841143 0.4439827 0.4238948 0.4439284 0.4239466 0.3951042 0.4841143 0.4439827 0.4239466 0.3951042 0.429642 0.3894376 0.478486 0.3894641 0.478486 0.3894641 0.4841448 0.3951556 0.4841143 0.4439827 0.3911542 0.381434 0.3397734 0.3602178 0.3945268 0.3054246 0.7331558 0.1090247 0.5780866 0.1090247 0.5780866 0.06723159 0.7331558 0.064336 0.7331557 0.06723159 0.5780866 0.06723159 0.001220881 0.004113376 0.001220881 0.001220703 0.1561512 0.001220881 0.7290702 0.9363058 0.7290702 0.8196014 0.7316364 0.8165426 0.6091246 0.7144584 0.608624 0.7115874 0.6105504 0.7176004 0.608624 0.7115874 0.608624 0.6696798 0.6367739 0.7287681 0.608624 0.6696798 0.6091246 0.6668087 0.6105504 0.6636669 0.6105504 0.6636669 0.6126841 0.6607323 0.608624 0.6696798 0.6126841 0.6607323 0.615201 0.658452 0.608624 0.6696798 0.615201 0.658452 0.6274724 0.6497747 0.6367739 0.6524992 0.6274724 0.6497747 0.6310318 0.647966 0.6367739 0.6524992 0.6310318 0.647966 0.6340494 0.6478485 0.6360659 0.6494404 0.6360659 0.6494404 0.6367739 0.6524992 0.6310318 0.647966 0.6367739 0.6524992 0.6367739 0.7287681 0.608624 0.6696798 0.6367739 0.7287681 0.6360659 0.7318269 0.6310318 0.7333014 0.6360659 0.7318269 0.6340494 0.7334187 0.6310318 0.7333014 0.6310318 0.7333014 0.6126842 0.7205348 0.6367739 0.7287681 0.6126842 0.7205348 0.6105504 0.7176004 0.608624 0.7115874 0.608624 0.7115874 0.6367739 0.7287681 0.6126842 0.7205348 0.8888258 0.1326132 0.8885288 0.1316878 0.8897945 0.1341493 0.8885288 0.1316878 0.8888258 0.08566409 0.9018302 0.1442478 0.8888258 0.08566409 0.8892702 0.0847997 0.8897945 0.08412802 0.8897945 0.08412802 0.898523 0.07539945 0.9000591 0.07443076 0.898523 0.07539945 0.8991947 0.07487523 0.9000591 0.07443076 0.9000591 0.07443076 0.9460827 0.07413381 0.9586427 0.08743524 0.8897945 0.08412802 0.9000591 0.07443076 0.8888258 0.08566409 0.9460827 0.07413381 0.9470081 0.07443076 0.9485443 0.07539945 0.9470081 0.07443076 0.9478726 0.07487523 0.9485443 0.07539945 0.9485443 0.07539945 0.9572728 0.08412802 0.9586427 0.08743524 0.9460827 0.07413381 0.9485443 0.07539945 0.9586427 0.08743524 0.9572728 0.08412802 0.9577972 0.0847997 0.9582416 0.08566409 0.9582416 0.08566409 0.9585384 0.08658957 0.9586427 0.08743524 0.9586427 0.08743524 0.9586427 0.1308421 0.9452371 0.1442478 0.9586427 0.1308421 0.9585384 0.1316878 0.9582416 0.1326132 0.9452371 0.1442478 0.9586427 0.1308421 0.9485443 0.1428779 0.9582416 0.1326132 0.9577972 0.1334776 0.9572728 0.1341493 0.9586427 0.1308421 0.9582416 0.1326132 0.9572728 0.1341493 0.9572728 0.1341493 0.9485443 0.1428779 0.9586427 0.1308421 0.9485443 0.1428779 0.9478726 0.143402 0.9470081 0.1438465 0.9470081 0.1438465 0.9460827 0.1441435 0.9452371 0.1442478 0.9452371 0.1442478 0.9018302 0.1442478 0.9586427 0.08743524 0.9018302 0.1442478 0.9009845 0.1441435 0.9000591 0.1438465 0.9586427 0.08743524 0.9018302 0.1442478 0.9000591 0.07443076 0.9000591 0.1438465 0.8991947 0.143402 0.898523 0.1428779 0.898523 0.1428779 0.8897945 0.1341493 0.9018302 0.1442478 0.8897945 0.1341493 0.8892702 0.1334776 0.8888258 0.1326132 0.8885288 0.1316878 0.9018302 0.1442478 0.8897945 0.1341493 0.9018302 0.1442478 0.8888258 0.08566409 0.9000591 0.07443076 0.9572728 0.08412802 0.9582416 0.08566409 0.9586427 0.08743524 0.9485443 0.1428779 0.9470081 0.1438465 0.9452371 0.1442478 0.766274 0.573435 0.766274 0.5859302 0.7607181 0.5859302 0.6490395 0.3299854 0.6490468 0.3437874 0.6407719 0.3437858 0.5626806 0.3016917 0.5741909 0.3016917 0.5841591 0.3074468 0.766274 0.5859302 0.766274 0.5984252 0.7607181 0.5984252 0.6407843 0.3575907 0.6407719 0.3437858 0.6490468 0.3437874 0.4994432 0.2891374 0.508459 0.2891374 0.508459 0.2990723 0.3494109 0.5412222 0.3566369 0.5484325 0.352089 0.5521186 0.7442422 0.9383609 0.7356247 0.9383609 0.7356247 0.9281529 0.6797873 0.743738 0.6797873 0.737466 0.6888074 0.737466 0.6693383 0.8775922 0.6783581 0.8775922 0.6783581 0.8838643 0.6783581 0.9026806 0.6693383 0.9026806 0.6693383 0.8964086 0.6783581 0.8901364 0.6783581 0.8964086 0.6693383 0.8964086 0.7758629 0.593657 0.7758629 0.5981881 0.7706755 0.5981881 0.6797873 0.7562818 0.6797873 0.7500098 0.6888074 0.7500098 0.6783581 0.8901364 0.6693383 0.8901364 0.6693383 0.8838643 0.6888074 0.7500098 0.6797873 0.7500098 0.6797873 0.743738 0.7515423 0.2497027 0.7515423 0.2416065 0.7567297 0.2416065 0.7515423 0.2577988 0.7515423 0.2497027 0.7567297 0.2497027 0.7758629 0.5981881 0.7758629 0.6027196 0.7706755 0.6027196 0.7515423 0.2416065 0.7515424 0.2335106 0.7567297 0.2335106 0.7758629 0.6027196 0.7758629 0.6072512 0.7706755 0.6072512 0.7515424 0.2335106 0.7515424 0.2254143 0.7567297 0.2254143 0.7758629 0.5891256 0.7758629 0.593657 0.7706755 0.593657 0.6888074 0.7311942 0.6888074 0.737466 0.6797873 0.737466 0.7043383 0.6098862 0.7133581 0.6098862 0.7133581 0.6161583 0.7043383 0.6161583 0.7133581 0.6161583 0.7133581 0.6228774 0.7051513 0.3233623 0.7051512 0.3170903 0.7141711 0.3170903 0.7051513 0.3300815 0.7051513 0.3233623 0.7141711 0.3233623 0.7607182 0.3869941 0.7607182 0.378898 0.7659058 0.378898 0.716646 0.9942734 0.7121145 0.9942734 0.7121145 0.989086 0.7666872 0.7180521 0.7666872 0.7234837 0.7615 0.7234837 0.7666872 0.7135207 0.7666872 0.7180521 0.7615 0.7180521 0.6762661 0.4697586 0.6762661 0.4764776 0.6672462 0.4764776 0.6823466 0.9089526 0.6913664 0.9089526 0.6913664 0.9156716 0.6823466 0.9026804 0.6913664 0.9026804 0.6913664 0.9089526 0.6762661 0.4634864 0.6762661 0.4697586 0.6672462 0.4697586 0.7575114 0.7020758 0.7575114 0.7101719 0.7523242 0.7101719 0.7220773 0.9942734 0.716646 0.9942734 0.716646 0.989086 0.7575114 0.6939795 0.7575114 0.7020758 0.7523242 0.7020758 0.7607182 0.378898 0.7607182 0.3708022 0.7659058 0.3708022 0.766274 0.6109203 0.766274 0.6234154 0.7607181 0.6234154 0.6490764 0.3713912 0.6490986 0.3851932 0.6408238 0.3852005 0.7607181 0.6359105 0.7607181 0.6234154 0.766274 0.6234154 0.6408507 0.3990052 0.6408238 0.3852005 0.6490986 0.3851932 0.4891287 0.2524864 0.4960312 0.2405309 0.5079866 0.2336285 0.4864391 0.2849185 0.4954549 0.2849185 0.4954549 0.2948534 0.7442422 0.8771126 0.7356247 0.8771126 0.7356247 0.8669046 0.3566103 0.5237879 0.3493999 0.531014 0.3457139 0.5264661 0.7615 0.8285007 0.7615 0.8239691 0.7666873 0.8239691 0.7011627 0.285729 0.7011627 0.2920013 0.692143 0.2920013 0.6881546 0.3233612 0.6791346 0.3233612 0.6791346 0.3170891 0.6791347 0.3300802 0.6791346 0.3233612 0.6881546 0.3233612 0.2196469 0.9925816 0.2277433 0.9925816 0.2277433 0.9977689 0.7011627 0.285729 0.692143 0.285729 0.692143 0.2790099 0.7615 0.8239691 0.7615 0.8185376 0.7666873 0.8185376 0.2115506 0.9925816 0.2196469 0.9925816 0.2196469 0.9977689 0.1605396 0.3866467 0.165727 0.3866467 0.165727 0.4102259 0.8026489 0.2958182 0.7790701 0.2958182 0.7790701 0.2624832 0.802649 0.2998065 0.802649 0.3331414 0.7790701 0.3331414 0.7513976 0.07192456 0.7513976 0.06382822 0.7565849 0.06382822 0.6537706 0.6660119 0.6627905 0.6660119 0.6627905 0.6722841 0.7702625 0.4605553 0.7702625 0.4560236 0.7754498 0.4560236 0.7513976 0.09621328 0.7513976 0.08811718 0.7565849 0.08811718 0.6627905 0.6722841 0.6627905 0.6785562 0.6537706 0.6785562 0.6537706 0.6597397 0.6627905 0.6597397 0.6627905 0.6660119 0.6632578 0.4383984 0.6632578 0.4446705 0.6542379 0.4446705 0.6632578 0.4509428 0.6632578 0.4572146 0.6542379 0.4572146 0.6537706 0.6785562 0.6627905 0.6785562 0.6627905 0.6848282 0.6632578 0.4509428 0.6542379 0.4509428 0.6542379 0.4446705 0.6632578 0.4572146 0.6632578 0.4634868 0.6542379 0.4634868 0.7513976 0.08811718 0.7513976 0.08002084 0.7565849 0.08002084 0.7513976 0.08002084 0.7513976 0.07192456 0.7565849 0.07192456 0.7702625 0.4696184 0.7702625 0.465087 0.7754498 0.465087 0.7702625 0.465087 0.7702625 0.4605553 0.7754498 0.4605553 0.7702625 0.4741501 0.7702625 0.4696184 0.7754498 0.4696184 0.7173465 0.724923 0.7263663 0.724923 0.7263663 0.7311952 0.7750813 0.179857 0.7750813 0.1852883 0.769894 0.1852883 0.7173465 0.724923 0.7173465 0.718204 0.7263663 0.718204 0.6563301 0.8775933 0.6563301 0.8713213 0.6653499 0.8713213 0.6653499 0.8713213 0.6563301 0.8713213 0.6563301 0.8646019 0.7750813 0.1852883 0.7750813 0.1898198 0.769894 0.1898198 0.7607182 0.2254105 0.7607182 0.2173146 0.7659056 0.2173146 0.7607182 0.2173146 0.7607182 0.2092185 0.7659056 0.2092185 0.6490468 0.2885796 0.6490395 0.3023815 0.6407647 0.3023712 0.766274 0.5359497 0.766274 0.5484448 0.7607181 0.5484448 0.7607181 0.5609399 0.7607181 0.5484448 0.766274 0.5484448 0.6490395 0.3023815 0.649037 0.3161835 0.6407622 0.3161761 0.5406492 0.2662912 0.5337468 0.2782466 0.5217914 0.285149 0.766274 0.4984644 0.766274 0.5109595 0.7607181 0.5109595 0.6490986 0.2471738 0.6490764 0.2609757 0.6408016 0.2609565 0.5741909 0.3446485 0.5626807 0.3446485 0.5527125 0.3388934 0.7607181 0.5234546 0.7607181 0.5109595 0.766274 0.5109595 0.6407843 0.2747613 0.6408016 0.2609565 0.6490764 0.2609757</float_array>
          <technique_common>
            <accessor source="#Cube_021-mesh-map-0-array" count="1680" stride="2">
              <param name="S" type="float" />
              <param name="T" type="float" />
            </accessor>
          </technique_common>
        </source>
        <vertices id="Cube_021-mesh-vertices">
          <input semantic="POSITION" source="#Cube_021-mesh-positions" />
        </vertices>
        <triangles material="DockCubes-material" count="560">
          <input semantic="VERTEX" source="#Cube_021-mesh-vertices" offset="0" />
          <input semantic="NORMAL" source="#Cube_021-mesh-normals" offset="1" />
          <input semantic="TEXCOORD" source="#Cube_021-mesh-map-0" offset="2" set="0" />
          <p>0 3 0 2 3 1 11 3 2 17 5 3 3 6 4 10 7 5 14 1 6 19 1 7 4 1 8 5 12 9 13 13 10 0 14 11 16 15 12 10 7 13 9 16 14 19 17 15 11 18 16 12 19 17 5 1 18 14 1 19 15 1 20 6 22 21 17 22 22 16 22 23 12 4 24 2 4 25 8 4 26 3 4 27 13 4 28 10 4 29 7 23 30 1 11 31 13 13 32 14 24 33 8 21 34 2 25 35 15 1 36 7 1 37 5 1 38 1 4 39 10 4 40 13 4 41 15 27 42 2 25 43 3 6 44 18 28 45 0 14 46 11 18 47 26 33 48 24 34 49 23 35 50 29 36 51 40 37 52 41 38 53 42 4 54 24 4 55 25 4 56 31 42 57 33 42 58 21 42 59 32 4 60 34 4 61 31 4 62 22 43 63 34 44 64 20 8 65 30 46 66 41 38 67 42 47 68 36 50 69 38 50 70 39 50 71 37 51 72 39 51 73 22 51 74 43 1 75 28 1 76 29 1 77 43 52 78 25 53 79 24 34 80 43 55 81 30 55 82 27 55 83 24 4 84 40 4 85 23 4 86 39 58 87 33 32 88 34 44 89 35 59 90 31 60 91 21 54 92 36 62 93 32 49 94 31 60 95 53 98 96 63 98 97 54 98 98 44 2 99 58 2 100 47 2 101 61 106 102 46 107 103 44 108 104 56 109 105 45 110 106 59 105 107 44 111 108 57 111 109 45 111 110 50 113 111 48 101 112 57 114 113 63 115 114 60 103 115 46 107 116 50 1 117 56 1 118 52 1 119 55 116 120 44 108 121 45 110 122 51 118 123 57 114 124 47 119 125 53 120 126 58 121 127 49 104 128 61 122 129 50 122 130 51 122 131 54 1 132 61 1 133 51 1 134 59 71 135 57 71 136 48 71 137 46 123 138 49 123 139 58 123 140 54 125 141 47 119 142 58 121 143 71 134 144 73 134 145 77 134 146 66 4 147 69 4 148 76 4 149 73 137 150 76 138 151 67 139 152 67 142 153 69 142 154 75 142 155 78 143 156 66 41 157 76 138 158 71 145 159 75 141 160 69 146 161 70 87 162 69 146 163 68 85 164 72 147 165 71 147 166 70 147 167 181 148 168 177 148 169 115 148 170 108 150 171 64 150 172 190 150 173 79 64 174 181 64 175 96 64 176 93 9 177 82 9 178 85 9 179 91 159 180 83 160 181 84 149 182 90 161 183 82 162 184 83 160 185 88 1 186 94 1 187 90 1 188 88 164 189 91 164 190 89 164 191 84 165 192 93 165 193 86 165 194 87 72 195 93 166 196 85 67 197 88 167 198 86 168 199 93 166 200 145 173 201 141 174 202 150 175 203 232 74 204 106 75 205 218 76 206 218 76 207 105 77 208 233 78 209 105 176 210 108 176 211 194 176 212 234 177 213 103 178 214 173 179 215 189 180 216 188 181 217 112 182 218 112 182 219 133 183 220 113 184 221 116 185 222 221 186 223 117 187 224 117 187 225 96 188 226 181 189 227 130 151 228 184 190 229 185 191 230 179 192 231 104 193 232 178 194 233 114 195 234 178 194 235 175 196 236 114 195 237 176 197 238 177 198 239 131 199 240 183 200 241 129 201 242 191 202 243 192 203 244 190 204 245 120 205 246 192 203 247 121 206 248 141 174 249 193 207 250 120 205 251 189 180 252 140 208 253 134 209 254 131 199 255 184 190 256 182 210 257 130 151 258 187 211 259 186 152 260 119 79 261 196 80 262 226 81 263 197 82 264 99 83 265 196 80 266 74 63 267 99 63 268 118 63 269 225 212 270 122 153 271 222 213 272 115 214 273 235 215 274 116 185 275 237 170 276 198 216 277 199 171 278 97 217 279 109 218 280 198 216 281 200 219 282 110 220 283 109 218 284 137 221 285 204 222 286 203 223 287 203 223 288 228 224 289 205 225 290 205 225 291 100 154 292 136 226 293 126 0 294 230 155 295 239 227 296 98 228 297 206 229 298 223 230 299 223 230 300 124 231 301 224 232 302 224 232 303 207 156 304 225 212 305 208 157 306 240 233 307 230 155 308 128 158 309 231 234 310 240 233 311 127 235 312 101 236 313 231 234 314 135 237 315 229 238 316 137 221 317 157 239 318 155 240 319 154 241 320 149 242 321 147 243 322 146 244 323 156 245 324 146 244 325 147 243 326 145 173 327 151 246 328 144 247 329 152 248 330 150 175 331 153 249 332 153 249 333 155 240 334 152 248 335 149 242 336 139 250 337 177 198 338 140 208 339 146 244 340 157 239 341 177 198 342 142 251 343 149 242 344 187 211 345 154 241 346 153 249 347 141 174 348 153 249 349 150 175 350 157 239 351 138 252 352 140 208 353 142 251 354 144 247 355 143 253 356 148 254 357 142 251 358 143 253 359 171 45 360 217 45 361 172 45 362 210 144 363 171 144 364 172 144 365 215 86 366 168 86 367 170 86 368 214 26 369 213 26 370 167 26 371 214 1 372 209 1 373 159 1 374 158 30 375 166 30 376 161 30 377 165 260 378 215 260 379 170 260 380 212 4 381 169 4 382 211 4 383 160 4 384 216 4 385 162 4 386 202 261 387 95 262 388 115 214 389 126 0 390 227 263 391 135 237 392 195 92 393 222 213 394 122 153 395 140 264 396 135 264 397 136 264 398 195 92 399 226 81 400 236 93 401 143 253 402 151 246 403 155 240 404 142 251 405 194 266 406 145 173 407 233 78 408 174 267 409 219 268 410 220 269 411 174 267 412 103 178 413 201 94 414 202 261 415 110 220 416 81 1 417 104 1 418 180 1 419 113 184 420 132 270 421 111 172 422 122 95 423 123 95 424 187 95 425 104 271 426 92 271 427 102 271 428 224 273 429 222 274 430 98 4 431 234 275 432 79 276 433 96 277 434 248 278 435 246 279 436 249 280 437 249 281 438 241 282 439 243 283 440 244 284 441 247 285 442 246 279 443 242 288 444 246 289 445 247 287 446 253 96 447 255 96 448 254 96 449 250 290 450 254 290 451 255 290 452 250 291 453 256 291 454 251 291 455 266 1 456 274 1 457 263 1 458 260 292 459 258 292 460 269 292 461 272 4 462 262 4 463 273 4 464 270 293 465 262 293 466 259 293 467 265 294 468 259 295 469 262 296 470 268 128 471 265 128 472 264 128 473 270 297 474 269 297 475 258 297 476 265 70 477 266 70 478 263 70 479 276 298 480 270 112 481 258 299 482 267 300 483 258 299 484 271 129 485 263 301 486 269 302 487 259 295 488 266 117 489 273 305 490 270 112 491 274 306 492 260 304 493 269 302 494 277 307 495 272 130 496 273 305 497 264 131 498 262 296 499 261 132 500 275 1 501 276 1 502 267 1 503 296 65 504 284 65 505 281 65 506 281 66 507 285 66 508 282 66 509 278 57 510 279 57 511 280 57 512 295 255 513 280 255 514 293 255 515 301 308 516 297 309 517 298 310 518 291 311 519 289 312 520 288 313 521 281 314 522 293 315 523 280 316 524 296 319 525 280 316 526 279 320 527 291 56 528 299 56 529 300 56 530 288 4 531 286 4 532 287 4 533 289 127 534 297 127 535 288 127 536 292 1 537 300 1 538 301 1 539 284 124 540 294 256 541 278 324 542 290 325 543 288 313 544 287 326 545 285 259 546 278 324 547 295 89 548 300 126 549 286 322 550 297 309 551 305 328 552 309 329 553 306 330 554 306 331 555 303 332 556 302 333 557 310 335 558 307 336 559 308 334 560 304 338 561 309 339 562 310 337 563 313 97 564 316 97 565 315 97 566 312 135 567 317 135 568 311 135 569 312 4 570 315 4 571 316 4 572 321 342 573 325 343 574 324 344 575 322 1 576 329 1 577 323 1 578 325 4 579 326 4 580 324 4 581 327 345 582 325 345 583 320 345 584 323 347 585 326 258 586 319 348 587 322 1 588 330 1 589 328 1 590 322 349 591 320 350 592 325 343 593 330 353 594 319 348 595 327 346 596 336 73 597 338 73 598 337 73 599 338 4 600 333 4 601 334 4 602 331 144 603 337 144 604 332 144 605 354 354 606 340 355 607 358 341 608 349 1 609 351 1 610 346 1 611 345 357 612 343 358 613 341 359 614 352 68 615 356 360 616 339 69 617 351 1 618 345 1 619 346 1 620 348 1 621 354 1 622 349 1 623 339 361 624 341 361 625 343 361 626 357 4 627 355 4 628 342 4 629 345 1 630 352 1 631 347 1 632 357 4 633 341 4 634 356 4 635 358 4 636 344 4 637 355 4 638 350 363 639 357 364 640 356 360 641 351 365 642 358 341 643 357 364 644 349 366 645 342 367 646 355 368 647 346 370 648 341 359 649 342 367 650 348 371 651 355 368 652 344 369 653 362 340 654 365 340 655 363 340 656 361 373 657 367 374 658 366 375 659 362 1 660 370 1 661 364 1 662 369 376 663 367 376 664 360 376 665 367 4 666 359 4 667 366 4 668 362 381 669 360 380 670 367 374 671 365 91 672 368 382 673 369 90 674 364 383 675 359 378 676 368 382 677 379 384 678 371 385 679 373 386 680 378 387 681 376 388 682 379 389 683 377 391 684 374 392 685 375 390 686 376 393 687 372 394 688 371 385 689 383 396 690 387 397 691 384 398 692 384 399 693 381 400 694 380 401 695 388 403 696 385 404 697 386 402 698 382 406 699 387 407 700 388 405 701 0 409 702 3 409 703 2 409 704 17 5 705 15 27 706 3 6 707 14 1 708 18 1 709 19 1 710 5 12 711 7 23 712 13 13 713 16 15 714 17 5 715 10 7 716 19 17 717 18 28 718 11 18 719 5 1 720 18 1 721 14 1 722 6 1 723 7 1 724 17 1 725 12 99 726 11 99 727 2 99 728 3 411 729 0 411 730 13 411 731 7 23 732 6 10 733 1 11 734 14 24 735 4 20 736 8 21 737 15 1 738 17 1 739 7 1 740 1 293 741 9 293 742 10 293 743 15 27 744 14 24 745 2 25 746 18 28 747 5 12 748 0 14 749 26 33 750 43 52 751 24 34 752 29 36 753 28 39 754 40 37 755 42 4 756 41 4 757 24 4 758 31 408 759 34 408 760 33 408 761 32 413 762 20 413 763 34 413 764 22 43 765 39 58 766 34 44 767 30 46 768 29 36 769 41 38 770 36 1 771 35 1 772 38 1 773 37 416 774 36 416 775 39 416 776 43 1 777 26 1 778 28 1 779 43 52 780 27 61 781 25 53 782 43 1 783 29 1 784 30 1 785 24 417 786 41 417 787 40 417 788 39 58 789 38 31 790 33 32 791 35 59 792 36 62 793 31 60 794 36 62 795 37 48 796 32 49 797 53 1 798 62 1 799 63 1 800 44 424 801 46 424 802 58 424 803 61 106 804 63 115 805 46 107 806 56 109 807 55 116 808 45 110 809 44 434 810 47 434 811 57 434 812 50 113 813 52 100 814 48 101 815 63 115 816 62 102 817 60 103 818 50 415 819 55 415 820 56 415 821 55 116 822 61 106 823 44 108 824 51 118 825 50 113 826 57 114 827 53 120 828 54 125 829 58 121 830 61 1 831 55 1 832 50 1 833 54 88 834 63 88 835 61 88 836 59 4 837 45 4 838 57 4 839 46 4 840 60 4 841 49 4 842 54 125 843 51 118 844 47 119 845 71 136 846 78 136 847 73 136 848 66 420 849 68 420 850 69 420 851 73 137 852 78 143 853 76 138 854 67 4 855 76 4 856 69 4 857 78 143 858 72 40 859 66 41 860 71 145 861 77 140 862 75 141 863 70 87 864 71 145 865 69 146 866 72 1 867 78 1 868 71 1 869 118 440 870 191 440 871 65 440 872 180 418 873 181 418 874 80 418 875 110 442 876 202 442 877 109 442 878 202 443 879 115 443 880 139 443 881 115 419 882 116 419 883 117 419 884 117 444 885 181 444 886 115 444 887 181 445 888 180 445 889 177 445 890 180 446 891 179 446 892 114 446 893 114 447 894 177 447 895 180 447 896 177 436 897 139 436 898 115 436 899 139 448 900 189 448 901 113 448 902 189 449 903 112 449 904 113 449 905 113 450 906 111 450 907 139 450 908 111 451 909 199 451 910 139 451 911 199 452 912 198 452 913 202 452 914 139 453 915 199 453 916 202 453 917 198 454 918 109 454 919 202 454 920 173 455 921 102 455 922 92 455 923 93 435 924 83 435 925 82 435 926 91 159 927 90 161 928 83 160 929 90 161 930 94 163 931 82 162 932 88 1 933 87 1 934 94 1 935 88 456 936 90 456 937 91 456 938 84 99 939 83 99 940 93 99 941 87 72 942 88 167 943 93 166 944 88 167 945 89 169 946 86 168 947 145 173 948 194 266 949 141 174 950 232 74 951 107 421 952 106 75 953 218 76 954 106 75 955 105 77 956 103 422 957 174 422 958 173 422 959 174 459 960 105 459 961 176 459 962 105 460 963 106 460 964 107 460 965 107 461 966 108 461 967 105 461 968 108 462 969 190 462 970 194 462 971 190 463 972 192 463 973 193 463 974 193 464 975 194 464 976 190 464 977 194 465 978 176 465 979 105 465 980 176 466 981 175 466 982 104 466 983 175 467 984 178 467 985 104 467 986 104 468 987 102 468 988 176 468 989 102 469 990 173 469 991 174 469 992 174 470 993 176 470 994 102 470 995 234 177 996 220 269 997 103 178 998 189 180 999 134 209 1000 188 181 1001 112 182 1002 188 181 1003 133 183 1004 116 185 1005 235 215 1006 221 186 1007 117 187 1008 221 186 1009 96 188 1010 130 151 1011 186 152 1012 184 190 1013 191 1 1014 190 1 1015 64 1 1016 179 192 1017 180 471 1018 104 193 1019 114 195 1020 179 192 1021 178 194 1022 114 195 1023 175 196 1024 176 197 1025 131 199 1026 182 210 1027 183 200 1028 191 202 1029 121 206 1030 192 203 1031 120 205 1032 193 207 1033 192 203 1034 141 174 1035 194 266 1036 193 207 1037 189 180 1038 139 250 1039 140 208 1040 131 199 1041 185 191 1042 184 190 1043 130 151 1044 138 252 1045 187 211 1046 119 79 1047 197 82 1048 196 80 1049 197 82 1050 118 423 1051 99 83 1052 225 212 1053 207 156 1054 122 153 1055 115 214 1056 95 262 1057 235 215 1058 237 170 1059 97 217 1060 198 216 1061 97 217 1062 200 219 1063 109 218 1064 200 219 1065 201 94 1066 110 220 1067 137 221 1068 229 238 1069 204 222 1070 203 223 1071 204 222 1072 228 224 1073 205 225 1074 228 224 1075 100 154 1076 126 0 1077 208 157 1078 230 155 1079 98 228 1080 123 472 1081 206 229 1082 223 230 1083 206 229 1084 124 231 1085 224 232 1086 124 231 1087 207 156 1088 208 157 1089 128 158 1090 240 233 1091 128 158 1092 127 235 1093 231 234 1094 127 235 1095 125 265 1096 101 236 1097 135 237 1098 227 263 1099 229 238 1100 157 239 1101 156 245 1102 155 240 1103 149 242 1104 148 254 1105 147 243 1106 156 245 1107 157 239 1108 146 244 1109 145 173 1110 150 175 1111 151 246 1112 152 248 1113 151 246 1114 150 175 1115 153 249 1116 154 241 1117 155 240 1118 149 242 1119 146 244 1120 139 250 1121 140 208 1122 139 250 1123 146 244 1124 177 198 1125 176 197 1126 142 251 1127 187 211 1128 138 252 1129 154 241 1130 141 174 1131 187 211 1132 153 249 1133 157 239 1134 154 241 1135 138 252 1136 142 251 1137 145 173 1138 144 247 1139 148 254 1140 149 242 1141 142 251 1142 171 414 1143 216 414 1144 217 414 1145 210 1 1146 163 1 1147 171 1 1148 215 410 1149 169 410 1150 168 410 1151 214 473 1152 166 473 1153 213 473 1154 214 474 1155 167 474 1156 209 474 1157 158 457 1158 213 457 1159 166 457 1160 165 475 1161 164 475 1162 215 475 1163 212 4 1164 168 4 1165 169 4 1166 160 4 1167 217 4 1168 216 4 1169 202 261 1170 238 458 1171 95 262 1172 126 0 1173 239 227 1174 227 263 1175 195 92 1176 236 93 1177 222 213 1178 208 438 1179 126 438 1180 128 438 1181 126 476 1182 135 476 1183 140 476 1184 135 477 1185 137 477 1186 203 477 1187 203 478 1188 205 478 1189 135 478 1190 205 479 1191 136 479 1192 135 479 1193 136 480 1194 132 480 1195 140 480 1196 132 481 1197 133 481 1198 140 481 1199 133 482 1200 188 482 1201 134 482 1202 134 483 1203 140 483 1204 133 483 1205 140 484 1206 138 484 1207 126 484 1208 138 485 1209 130 485 1210 131 485 1211 130 486 1212 185 486 1213 131 486 1214 131 487 1215 129 487 1216 138 487 1217 129 488 1218 125 488 1219 138 488 1220 125 489 1221 127 489 1222 126 489 1223 138 490 1224 125 490 1225 126 490 1226 127 412 1227 128 412 1228 126 412 1229 195 92 1230 119 79 1231 226 81 1232 155 240 1233 156 245 1234 147 243 1235 147 243 1236 148 254 1237 155 240 1238 148 254 1239 143 253 1240 155 240 1241 143 253 1242 144 247 1243 151 246 1244 151 246 1245 152 248 1246 155 240 1247 142 251 1248 176 197 1249 194 266 1250 233 78 1251 105 77 1252 174 267 1253 220 269 1254 219 268 1255 174 267 1256 201 94 1257 238 458 1258 202 261 1259 113 184 1260 133 183 1261 132 270 1262 119 441 1263 195 441 1264 197 441 1265 195 491 1266 122 491 1267 141 491 1268 122 492 1269 207 492 1270 124 492 1271 124 425 1272 206 425 1273 122 425 1274 206 493 1275 123 493 1276 122 493 1277 123 494 1278 183 494 1279 187 494 1280 183 495 1281 182 495 1282 187 495 1283 182 496 1284 184 496 1285 186 496 1286 186 497 1287 187 497 1288 182 497 1289 187 498 1290 141 498 1291 122 498 1292 141 499 1293 120 499 1294 191 499 1295 120 500 1296 121 500 1297 191 500 1298 191 501 1299 118 501 1300 141 501 1301 118 426 1302 197 426 1303 195 426 1304 195 502 1305 141 502 1306 118 502 1307 196 504 1308 99 272 1309 236 505 1310 99 272 1311 232 4 1312 98 4 1313 232 4 1314 218 4 1315 233 506 1316 233 506 1317 219 507 1318 234 275 1319 219 507 1320 220 433 1321 234 275 1322 234 275 1323 96 277 1324 237 508 1325 233 506 1326 234 275 1327 232 4 1328 96 277 1329 221 509 1330 95 510 1331 221 509 1332 235 430 1333 95 510 1334 95 510 1335 238 511 1336 237 508 1337 96 277 1338 95 510 1339 237 508 1340 238 511 1341 201 432 1342 200 512 1343 200 512 1344 97 513 1345 237 508 1346 237 508 1347 100 514 1348 101 515 1349 100 514 1350 228 428 1351 204 516 1352 101 515 1353 100 514 1354 239 517 1355 204 516 1356 229 431 1357 227 518 1358 100 514 1359 204 516 1360 227 518 1361 227 518 1362 239 517 1363 100 514 1364 239 517 1365 230 429 1366 240 519 1367 240 519 1368 231 520 1369 101 515 1370 101 515 1371 98 4 1372 237 508 1373 98 4 1374 223 4 1375 224 273 1376 237 508 1377 98 4 1378 234 275 1379 224 273 1380 225 503 1381 222 274 1382 222 274 1383 236 505 1384 98 4 1385 236 505 1386 226 4 1387 196 504 1388 99 272 1389 98 4 1390 236 505 1391 98 4 1392 232 4 1393 234 275 1394 238 511 1395 200 512 1396 237 508 1397 239 517 1398 240 519 1399 101 515 1400 248 278 1401 244 284 1402 246 279 1403 249 281 1404 246 289 1405 241 282 1406 245 521 1407 244 521 1408 248 521 1409 244 284 1410 245 286 1411 247 285 1412 242 288 1413 241 282 1414 246 289 1415 253 96 1416 252 96 1417 255 96 1418 250 522 1419 251 522 1420 254 522 1421 250 427 1422 257 427 1423 256 427 1424 266 1 1425 276 1 1426 274 1 1427 260 4 1428 271 4 1429 258 4 1430 272 523 1431 261 523 1432 262 523 1433 270 327 1434 273 327 1435 262 327 1436 265 294 1437 263 301 1438 259 295 1439 268 1 1440 277 1 1441 265 1 1442 270 524 1443 259 524 1444 269 524 1445 265 1 1446 277 1 1447 266 1 1448 276 298 1449 266 117 1450 270 112 1451 267 300 1452 276 298 1453 258 299 1454 263 301 1455 274 306 1456 269 302 1457 266 117 1458 277 307 1459 273 305 1460 274 306 1461 275 303 1462 260 304 1463 277 307 1464 268 133 1465 272 130 1466 264 131 1467 265 294 1468 262 296 1469 275 525 1470 274 525 1471 276 525 1472 296 1 1473 283 1 1474 284 1 1475 281 136 1476 284 136 1477 285 136 1478 278 4 1479 294 4 1480 279 4 1481 295 4 1482 278 4 1483 280 4 1484 301 308 1485 300 126 1486 297 309 1487 291 311 1488 292 323 1489 289 312 1490 281 314 1491 282 318 1492 293 315 1493 296 319 1494 281 314 1495 280 316 1496 291 1 1497 290 1 1498 299 1 1499 288 4 1500 297 4 1501 286 4 1502 289 4 1503 298 4 1504 297 4 1505 292 437 1506 291 437 1507 300 437 1508 284 124 1509 283 317 1510 294 256 1511 290 325 1512 291 311 1513 288 313 1514 285 259 1515 284 124 1516 278 324 1517 300 126 1518 299 321 1519 286 322 1520 305 328 1521 307 336 1522 309 329 1523 306 331 1524 309 339 1525 303 332 1526 310 335 1527 309 329 1528 307 336 1529 304 338 1530 303 332 1531 309 339 1532 302 526 1533 303 526 1534 304 526 1535 313 97 1536 314 97 1537 316 97 1538 312 135 1539 318 135 1540 317 135 1541 312 4 1542 311 4 1543 315 4 1544 321 342 1545 322 349 1546 325 343 1547 322 1 1548 321 1 1549 329 1 1550 325 4 1551 319 4 1552 326 4 1553 327 84 1554 319 84 1555 325 84 1556 323 347 1557 329 257 1558 326 258 1559 322 1 1560 323 1 1561 330 1 1562 322 349 1563 328 351 1564 320 350 1565 330 353 1566 323 347 1567 319 348 1568 336 29 1569 335 29 1570 338 29 1571 338 4 1572 335 4 1573 333 4 1574 331 352 1575 336 352 1576 337 352 1577 354 354 1578 353 356 1579 340 355 1580 349 1 1581 354 1 1582 351 1 1583 345 357 1584 347 362 1585 343 358 1586 352 68 1587 350 363 1588 356 360 1589 351 527 1590 350 527 1591 345 527 1592 348 1 1593 353 1 1594 354 1 1595 339 4 1596 356 4 1597 341 4 1598 357 408 1599 358 408 1600 355 408 1601 345 439 1602 350 439 1603 352 439 1604 357 372 1605 342 372 1606 341 372 1607 358 528 1608 340 528 1609 344 528 1610 350 363 1611 351 365 1612 357 364 1613 351 365 1614 354 354 1615 358 341 1616 349 366 1617 346 370 1618 342 367 1619 346 370 1620 345 357 1621 341 359 1622 348 371 1623 349 366 1624 355 368 1625 362 529 1626 364 529 1627 365 529 1628 361 373 1629 362 381 1630 367 374 1631 362 1 1632 361 1 1633 370 1 1634 369 4 1635 368 4 1636 367 4 1637 367 4 1638 368 4 1639 359 4 1640 362 381 1641 363 379 1642 360 380 1643 365 91 1644 364 383 1645 368 382 1646 364 383 1647 370 377 1648 359 378 1649 379 384 1650 376 393 1651 371 385 1652 378 387 1653 374 392 1654 376 388 1655 377 391 1656 376 388 1657 374 392 1658 376 393 1659 377 395 1660 372 394 1661 373 4 1662 371 4 1663 372 4 1664 383 396 1665 385 404 1666 387 397 1667 384 399 1668 387 407 1669 381 400 1670 386 530 1671 385 530 1672 383 530 1673 388 403 1674 387 397 1675 385 404 1676 382 406 1677 381 400 1678 387 407 1679</p>
        </triangles>
      </mesh>
    </geometry>
  </library_geometries>
  <library_visual_scenes>
    <visual_scene id="Scene" name="Scene">
      <node id="DocckCube_4x4" name="DocckCube.4x4" type="NODE">
        <matrix sid="transform">1 0 0 0 0 1 0 6.96629e-8 0 0 1 -5.96046e-8 0 0 0 1</matrix>
        <instance_geometry url="#Cube_021-mesh" name="DocckCube.4x4">
          <bind_material>
            <technique_common>
              <instance_material symbol="DockCubes-material" target="#DockCubes-material">
                <bind_vertex_input semantic="Cube_021-mesh-map-0" input_semantic="TEXCOORD" input_set="0" />
                </instance_material>
            </technique_common>
          </bind_material>
        </instance_geometry>
      </node>
    </visual_scene>
  </library_visual_scenes>
  <scene>
    <instance_visual_scene url="#Scene" />
  </scene>
</COLLADA>
